<?xml version="1.0" encoding="utf-8" standalone="no"?>
<!DOCTYPE svg PUBLIC "-//W3C//DTD SVG 1.1//EN"
  "http://www.w3.org/Graphics/SVG/1.1/DTD/svg11.dtd">
<!-- Created with matplotlib (https://matplotlib.org/) -->
<svg height="539.623326pt" version="1.1" viewBox="0 0 789.208636 539.623326" width="789.208636pt" xmlns="http://www.w3.org/2000/svg" xmlns:xlink="http://www.w3.org/1999/xlink">
 <defs>
  <style type="text/css">
*{stroke-linecap:butt;stroke-linejoin:round;}
  </style>
 </defs>
 <g id="figure_1">
  <g id="patch_1">
   <path d="M 0 539.623326 
L 789.208636 539.623326 
L 789.208636 0 
L 0 0 
z
" style="fill:#ffffff;"/>
  </g>
  <g id="axes_1">
   <g id="patch_2">
    <path d="M 332.85 330.523326 
L 644.29 330.523326 
L 644.29 19.083326 
L 332.85 19.083326 
z
" style="fill:#ffffff;"/>
   </g>
   <g id="patch_3">
    <path clip-path="url(#p610ea9a09e)" d="M 347.006364 330.523326 
L 356.443939 330.523326 
L 356.443939 330.523326 
L 347.006364 330.523326 
z
" style="fill:#43406b;opacity:0.6;stroke:#000000;stroke-linejoin:miter;stroke-width:0.5;"/>
   </g>
   <g id="patch_4">
    <path clip-path="url(#p610ea9a09e)" d="M 356.443939 330.523326 
L 365.881515 330.523326 
L 365.881515 330.523326 
L 356.443939 330.523326 
z
" style="fill:#43406b;opacity:0.6;stroke:#000000;stroke-linejoin:miter;stroke-width:0.5;"/>
   </g>
   <g id="patch_5">
    <path clip-path="url(#p610ea9a09e)" d="M 365.881515 330.523326 
L 375.319091 330.523326 
L 375.319091 330.523326 
L 365.881515 330.523326 
z
" style="fill:#43406b;opacity:0.6;stroke:#000000;stroke-linejoin:miter;stroke-width:0.5;"/>
   </g>
   <g id="patch_6">
    <path clip-path="url(#p610ea9a09e)" d="M 375.319091 330.523326 
L 384.756667 330.523326 
L 384.756667 330.523326 
L 375.319091 330.523326 
z
" style="fill:#43406b;opacity:0.6;stroke:#000000;stroke-linejoin:miter;stroke-width:0.5;"/>
   </g>
   <g id="patch_7">
    <path clip-path="url(#p610ea9a09e)" d="M 384.756667 330.523326 
L 394.194242 330.523326 
L 394.194242 330.523326 
L 384.756667 330.523326 
z
" style="fill:#43406b;opacity:0.6;stroke:#000000;stroke-linejoin:miter;stroke-width:0.5;"/>
   </g>
   <g id="patch_8">
    <path clip-path="url(#p610ea9a09e)" d="M 394.194242 330.523326 
L 403.631818 330.523326 
L 403.631818 330.523326 
L 394.194242 330.523326 
z
" style="fill:#43406b;opacity:0.6;stroke:#000000;stroke-linejoin:miter;stroke-width:0.5;"/>
   </g>
   <g id="patch_9">
    <path clip-path="url(#p610ea9a09e)" d="M 403.631818 330.523326 
L 413.069394 330.523326 
L 413.069394 330.523326 
L 403.631818 330.523326 
z
" style="fill:#43406b;opacity:0.6;stroke:#000000;stroke-linejoin:miter;stroke-width:0.5;"/>
   </g>
   <g id="patch_10">
    <path clip-path="url(#p610ea9a09e)" d="M 413.069394 330.523326 
L 422.50697 330.523326 
L 422.50697 330.523326 
L 413.069394 330.523326 
z
" style="fill:#43406b;opacity:0.6;stroke:#000000;stroke-linejoin:miter;stroke-width:0.5;"/>
   </g>
   <g id="patch_11">
    <path clip-path="url(#p610ea9a09e)" d="M 422.50697 330.523326 
L 431.944545 330.523326 
L 431.944545 330.523326 
L 422.50697 330.523326 
z
" style="fill:#43406b;opacity:0.6;stroke:#000000;stroke-linejoin:miter;stroke-width:0.5;"/>
   </g>
   <g id="patch_12">
    <path clip-path="url(#p610ea9a09e)" d="M 431.944545 330.523326 
L 441.382121 330.523326 
L 441.382121 330.523326 
L 431.944545 330.523326 
z
" style="fill:#43406b;opacity:0.6;stroke:#000000;stroke-linejoin:miter;stroke-width:0.5;"/>
   </g>
   <g id="patch_13">
    <path clip-path="url(#p610ea9a09e)" d="M 441.382121 330.523326 
L 450.819697 330.523326 
L 450.819697 330.134993 
L 441.382121 330.134993 
z
" style="fill:#43406b;opacity:0.6;stroke:#000000;stroke-linejoin:miter;stroke-width:0.5;"/>
   </g>
   <g id="patch_14">
    <path clip-path="url(#p610ea9a09e)" d="M 450.819697 330.523326 
L 460.257273 330.523326 
L 460.257273 328.969991 
L 450.819697 328.969991 
z
" style="fill:#43406b;opacity:0.6;stroke:#000000;stroke-linejoin:miter;stroke-width:0.5;"/>
   </g>
   <g id="patch_15">
    <path clip-path="url(#p610ea9a09e)" d="M 460.257273 330.523326 
L 469.694848 330.523326 
L 469.694848 312.271636 
L 460.257273 312.271636 
z
" style="fill:#43406b;opacity:0.6;stroke:#000000;stroke-linejoin:miter;stroke-width:0.5;"/>
   </g>
   <g id="patch_16">
    <path clip-path="url(#p610ea9a09e)" d="M 469.694848 330.523326 
L 479.132424 330.523326 
L 479.132424 245.478217 
L 469.694848 245.478217 
z
" style="fill:#43406b;opacity:0.6;stroke:#000000;stroke-linejoin:miter;stroke-width:0.5;"/>
   </g>
   <g id="patch_17">
    <path clip-path="url(#p610ea9a09e)" d="M 479.132424 330.523326 
L 488.57 330.523326 
L 488.57 84.319677 
L 479.132424 84.319677 
z
" style="fill:#43406b;opacity:0.6;stroke:#000000;stroke-linejoin:miter;stroke-width:0.5;"/>
   </g>
   <g id="patch_18">
    <path clip-path="url(#p610ea9a09e)" d="M 488.57 330.523326 
L 498.007576 330.523326 
L 498.007576 34.224613 
L 488.57 34.224613 
z
" style="fill:#43406b;opacity:0.6;stroke:#000000;stroke-linejoin:miter;stroke-width:0.5;"/>
   </g>
   <g id="patch_19">
    <path clip-path="url(#p610ea9a09e)" d="M 498.007576 330.523326 
L 507.445152 330.523326 
L 507.445152 175.966461 
L 498.007576 175.966461 
z
" style="fill:#43406b;opacity:0.6;stroke:#000000;stroke-linejoin:miter;stroke-width:0.5;"/>
   </g>
   <g id="patch_20">
    <path clip-path="url(#p610ea9a09e)" d="M 507.445152 330.523326 
L 516.882727 330.523326 
L 516.882727 292.078277 
L 507.445152 292.078277 
z
" style="fill:#43406b;opacity:0.6;stroke:#000000;stroke-linejoin:miter;stroke-width:0.5;"/>
   </g>
   <g id="patch_21">
    <path clip-path="url(#p610ea9a09e)" d="M 516.882727 330.523326 
L 526.320303 330.523326 
L 526.320303 324.698319 
L 516.882727 324.698319 
z
" style="fill:#43406b;opacity:0.6;stroke:#000000;stroke-linejoin:miter;stroke-width:0.5;"/>
   </g>
   <g id="patch_22">
    <path clip-path="url(#p610ea9a09e)" d="M 526.320303 330.523326 
L 535.757879 330.523326 
L 535.757879 329.746659 
L 526.320303 329.746659 
z
" style="fill:#43406b;opacity:0.6;stroke:#000000;stroke-linejoin:miter;stroke-width:0.5;"/>
   </g>
   <g id="patch_23">
    <path clip-path="url(#p610ea9a09e)" d="M 535.757879 330.523326 
L 545.195455 330.523326 
L 545.195455 330.523326 
L 535.757879 330.523326 
z
" style="fill:#43406b;opacity:0.6;stroke:#000000;stroke-linejoin:miter;stroke-width:0.5;"/>
   </g>
   <g id="patch_24">
    <path clip-path="url(#p610ea9a09e)" d="M 545.195455 330.523326 
L 554.63303 330.523326 
L 554.63303 330.523326 
L 545.195455 330.523326 
z
" style="fill:#43406b;opacity:0.6;stroke:#000000;stroke-linejoin:miter;stroke-width:0.5;"/>
   </g>
   <g id="patch_25">
    <path clip-path="url(#p610ea9a09e)" d="M 554.63303 330.523326 
L 564.070606 330.523326 
L 564.070606 330.523326 
L 554.63303 330.523326 
z
" style="fill:#43406b;opacity:0.6;stroke:#000000;stroke-linejoin:miter;stroke-width:0.5;"/>
   </g>
   <g id="patch_26">
    <path clip-path="url(#p610ea9a09e)" d="M 564.070606 330.523326 
L 573.508182 330.523326 
L 573.508182 330.523326 
L 564.070606 330.523326 
z
" style="fill:#43406b;opacity:0.6;stroke:#000000;stroke-linejoin:miter;stroke-width:0.5;"/>
   </g>
   <g id="patch_27">
    <path clip-path="url(#p610ea9a09e)" d="M 573.508182 330.523326 
L 582.945758 330.523326 
L 582.945758 330.523326 
L 573.508182 330.523326 
z
" style="fill:#43406b;opacity:0.6;stroke:#000000;stroke-linejoin:miter;stroke-width:0.5;"/>
   </g>
   <g id="patch_28">
    <path clip-path="url(#p610ea9a09e)" d="M 582.945758 330.523326 
L 592.383333 330.523326 
L 592.383333 330.523326 
L 582.945758 330.523326 
z
" style="fill:#43406b;opacity:0.6;stroke:#000000;stroke-linejoin:miter;stroke-width:0.5;"/>
   </g>
   <g id="patch_29">
    <path clip-path="url(#p610ea9a09e)" d="M 592.383333 330.523326 
L 601.820909 330.523326 
L 601.820909 330.523326 
L 592.383333 330.523326 
z
" style="fill:#43406b;opacity:0.6;stroke:#000000;stroke-linejoin:miter;stroke-width:0.5;"/>
   </g>
   <g id="patch_30">
    <path clip-path="url(#p610ea9a09e)" d="M 601.820909 330.523326 
L 611.258485 330.523326 
L 611.258485 330.523326 
L 601.820909 330.523326 
z
" style="fill:#43406b;opacity:0.6;stroke:#000000;stroke-linejoin:miter;stroke-width:0.5;"/>
   </g>
   <g id="patch_31">
    <path clip-path="url(#p610ea9a09e)" d="M 611.258485 330.523326 
L 620.696061 330.523326 
L 620.696061 330.523326 
L 611.258485 330.523326 
z
" style="fill:#43406b;opacity:0.6;stroke:#000000;stroke-linejoin:miter;stroke-width:0.5;"/>
   </g>
   <g id="patch_32">
    <path clip-path="url(#p610ea9a09e)" d="M 620.696061 330.523326 
L 630.133636 330.523326 
L 630.133636 330.523326 
L 620.696061 330.523326 
z
" style="fill:#43406b;opacity:0.6;stroke:#000000;stroke-linejoin:miter;stroke-width:0.5;"/>
   </g>
   <g id="patch_33">
    <path clip-path="url(#p610ea9a09e)" d="M 347.006364 330.523326 
L 356.443939 330.523326 
L 356.443939 330.523326 
L 347.006364 330.523326 
z
" style="fill:#d15a00;opacity:0.6;stroke:#000000;stroke-linejoin:miter;stroke-width:0.5;"/>
   </g>
   <g id="patch_34">
    <path clip-path="url(#p610ea9a09e)" d="M 356.443939 330.523326 
L 365.881515 330.523326 
L 365.881515 330.523326 
L 356.443939 330.523326 
z
" style="fill:#d15a00;opacity:0.6;stroke:#000000;stroke-linejoin:miter;stroke-width:0.5;"/>
   </g>
   <g id="patch_35">
    <path clip-path="url(#p610ea9a09e)" d="M 365.881515 330.523326 
L 375.319091 330.523326 
L 375.319091 330.523326 
L 365.881515 330.523326 
z
" style="fill:#d15a00;opacity:0.6;stroke:#000000;stroke-linejoin:miter;stroke-width:0.5;"/>
   </g>
   <g id="patch_36">
    <path clip-path="url(#p610ea9a09e)" d="M 375.319091 330.523326 
L 384.756667 330.523326 
L 384.756667 330.523326 
L 375.319091 330.523326 
z
" style="fill:#d15a00;opacity:0.6;stroke:#000000;stroke-linejoin:miter;stroke-width:0.5;"/>
   </g>
   <g id="patch_37">
    <path clip-path="url(#p610ea9a09e)" d="M 384.756667 330.523326 
L 394.194242 330.523326 
L 394.194242 330.523326 
L 384.756667 330.523326 
z
" style="fill:#d15a00;opacity:0.6;stroke:#000000;stroke-linejoin:miter;stroke-width:0.5;"/>
   </g>
   <g id="patch_38">
    <path clip-path="url(#p610ea9a09e)" d="M 394.194242 330.523326 
L 403.631818 330.523326 
L 403.631818 330.523326 
L 394.194242 330.523326 
z
" style="fill:#d15a00;opacity:0.6;stroke:#000000;stroke-linejoin:miter;stroke-width:0.5;"/>
   </g>
   <g id="patch_39">
    <path clip-path="url(#p610ea9a09e)" d="M 403.631818 330.523326 
L 413.069394 330.523326 
L 413.069394 330.523326 
L 403.631818 330.523326 
z
" style="fill:#d15a00;opacity:0.6;stroke:#000000;stroke-linejoin:miter;stroke-width:0.5;"/>
   </g>
   <g id="patch_40">
    <path clip-path="url(#p610ea9a09e)" d="M 413.069394 330.523326 
L 422.50697 330.523326 
L 422.50697 330.523326 
L 413.069394 330.523326 
z
" style="fill:#d15a00;opacity:0.6;stroke:#000000;stroke-linejoin:miter;stroke-width:0.5;"/>
   </g>
   <g id="patch_41">
    <path clip-path="url(#p610ea9a09e)" d="M 422.50697 330.523326 
L 431.944545 330.523326 
L 431.944545 330.523326 
L 422.50697 330.523326 
z
" style="fill:#d15a00;opacity:0.6;stroke:#000000;stroke-linejoin:miter;stroke-width:0.5;"/>
   </g>
   <g id="patch_42">
    <path clip-path="url(#p610ea9a09e)" d="M 431.944545 330.523326 
L 441.382121 330.523326 
L 441.382121 330.133564 
L 431.944545 330.133564 
z
" style="fill:#d15a00;opacity:0.6;stroke:#000000;stroke-linejoin:miter;stroke-width:0.5;"/>
   </g>
   <g id="patch_43">
    <path clip-path="url(#p610ea9a09e)" d="M 441.382121 330.523326 
L 450.819697 330.523326 
L 450.819697 329.743801 
L 441.382121 329.743801 
z
" style="fill:#d15a00;opacity:0.6;stroke:#000000;stroke-linejoin:miter;stroke-width:0.5;"/>
   </g>
   <g id="patch_44">
    <path clip-path="url(#p610ea9a09e)" d="M 450.819697 330.523326 
L 460.257273 330.523326 
L 460.257273 328.574512 
L 450.819697 328.574512 
z
" style="fill:#d15a00;opacity:0.6;stroke:#000000;stroke-linejoin:miter;stroke-width:0.5;"/>
   </g>
   <g id="patch_45">
    <path clip-path="url(#p610ea9a09e)" d="M 460.257273 330.523326 
L 469.694848 330.523326 
L 469.694848 315.322576 
L 460.257273 315.322576 
z
" style="fill:#d15a00;opacity:0.6;stroke:#000000;stroke-linejoin:miter;stroke-width:0.5;"/>
   </g>
   <g id="patch_46">
    <path clip-path="url(#p610ea9a09e)" d="M 469.694848 330.523326 
L 479.132424 330.523326 
L 479.132424 244.385738 
L 469.694848 244.385738 
z
" style="fill:#d15a00;opacity:0.6;stroke:#000000;stroke-linejoin:miter;stroke-width:0.5;"/>
   </g>
   <g id="patch_47">
    <path clip-path="url(#p610ea9a09e)" d="M 479.132424 330.523326 
L 488.57 330.523326 
L 488.57 91.598703 
L 479.132424 91.598703 
z
" style="fill:#d15a00;opacity:0.6;stroke:#000000;stroke-linejoin:miter;stroke-width:0.5;"/>
   </g>
   <g id="patch_48">
    <path clip-path="url(#p610ea9a09e)" d="M 488.57 330.523326 
L 498.007576 330.523326 
L 498.007576 33.913803 
L 488.57 33.913803 
z
" style="fill:#d15a00;opacity:0.6;stroke:#000000;stroke-linejoin:miter;stroke-width:0.5;"/>
   </g>
   <g id="patch_49">
    <path clip-path="url(#p610ea9a09e)" d="M 498.007576 330.523326 
L 507.445152 330.523326 
L 507.445152 168.381984 
L 498.007576 168.381984 
z
" style="fill:#d15a00;opacity:0.6;stroke:#000000;stroke-linejoin:miter;stroke-width:0.5;"/>
   </g>
   <g id="patch_50">
    <path clip-path="url(#p610ea9a09e)" d="M 507.445152 330.523326 
L 516.882727 330.523326 
L 516.882727 291.157279 
L 507.445152 291.157279 
z
" style="fill:#d15a00;opacity:0.6;stroke:#000000;stroke-linejoin:miter;stroke-width:0.5;"/>
   </g>
   <g id="patch_51">
    <path clip-path="url(#p610ea9a09e)" d="M 516.882727 330.523326 
L 526.320303 330.523326 
L 526.320303 327.015461 
L 516.882727 327.015461 
z
" style="fill:#d15a00;opacity:0.6;stroke:#000000;stroke-linejoin:miter;stroke-width:0.5;"/>
   </g>
   <g id="patch_52">
    <path clip-path="url(#p610ea9a09e)" d="M 526.320303 330.523326 
L 535.757879 330.523326 
L 535.757879 328.964275 
L 526.320303 328.964275 
z
" style="fill:#d15a00;opacity:0.6;stroke:#000000;stroke-linejoin:miter;stroke-width:0.5;"/>
   </g>
   <g id="patch_53">
    <path clip-path="url(#p610ea9a09e)" d="M 535.757879 330.523326 
L 545.195455 330.523326 
L 545.195455 329.743801 
L 535.757879 329.743801 
z
" style="fill:#d15a00;opacity:0.6;stroke:#000000;stroke-linejoin:miter;stroke-width:0.5;"/>
   </g>
   <g id="patch_54">
    <path clip-path="url(#p610ea9a09e)" d="M 545.195455 330.523326 
L 554.63303 330.523326 
L 554.63303 330.523326 
L 545.195455 330.523326 
z
" style="fill:#d15a00;opacity:0.6;stroke:#000000;stroke-linejoin:miter;stroke-width:0.5;"/>
   </g>
   <g id="patch_55">
    <path clip-path="url(#p610ea9a09e)" d="M 554.63303 330.523326 
L 564.070606 330.523326 
L 564.070606 330.523326 
L 554.63303 330.523326 
z
" style="fill:#d15a00;opacity:0.6;stroke:#000000;stroke-linejoin:miter;stroke-width:0.5;"/>
   </g>
   <g id="patch_56">
    <path clip-path="url(#p610ea9a09e)" d="M 564.070606 330.523326 
L 573.508182 330.523326 
L 573.508182 330.523326 
L 564.070606 330.523326 
z
" style="fill:#d15a00;opacity:0.6;stroke:#000000;stroke-linejoin:miter;stroke-width:0.5;"/>
   </g>
   <g id="patch_57">
    <path clip-path="url(#p610ea9a09e)" d="M 573.508182 330.523326 
L 582.945758 330.523326 
L 582.945758 330.523326 
L 573.508182 330.523326 
z
" style="fill:#d15a00;opacity:0.6;stroke:#000000;stroke-linejoin:miter;stroke-width:0.5;"/>
   </g>
   <g id="patch_58">
    <path clip-path="url(#p610ea9a09e)" d="M 582.945758 330.523326 
L 592.383333 330.523326 
L 592.383333 330.523326 
L 582.945758 330.523326 
z
" style="fill:#d15a00;opacity:0.6;stroke:#000000;stroke-linejoin:miter;stroke-width:0.5;"/>
   </g>
   <g id="patch_59">
    <path clip-path="url(#p610ea9a09e)" d="M 592.383333 330.523326 
L 601.820909 330.523326 
L 601.820909 330.523326 
L 592.383333 330.523326 
z
" style="fill:#d15a00;opacity:0.6;stroke:#000000;stroke-linejoin:miter;stroke-width:0.5;"/>
   </g>
   <g id="patch_60">
    <path clip-path="url(#p610ea9a09e)" d="M 601.820909 330.523326 
L 611.258485 330.523326 
L 611.258485 330.523326 
L 601.820909 330.523326 
z
" style="fill:#d15a00;opacity:0.6;stroke:#000000;stroke-linejoin:miter;stroke-width:0.5;"/>
   </g>
   <g id="patch_61">
    <path clip-path="url(#p610ea9a09e)" d="M 611.258485 330.523326 
L 620.696061 330.523326 
L 620.696061 330.523326 
L 611.258485 330.523326 
z
" style="fill:#d15a00;opacity:0.6;stroke:#000000;stroke-linejoin:miter;stroke-width:0.5;"/>
   </g>
   <g id="patch_62">
    <path clip-path="url(#p610ea9a09e)" d="M 620.696061 330.523326 
L 630.133636 330.523326 
L 630.133636 330.523326 
L 620.696061 330.523326 
z
" style="fill:#d15a00;opacity:0.6;stroke:#000000;stroke-linejoin:miter;stroke-width:0.5;"/>
   </g>
   <g id="matplotlib.axis_1">
    <g id="xtick_1">
     <g id="line2d_1">
      <defs>
       <path d="M 0 0 
L 0 3.5 
" id="mcc314ad1cf" style="stroke:#000000;stroke-width:1.6;"/>
      </defs>
      <g>
       <use style="stroke:#000000;stroke-width:1.6;" x="347.006364" xlink:href="#mcc314ad1cf" y="330.523326"/>
      </g>
     </g>
     <g id="text_1">
      <!-- −1.0 -->
      <defs>
       <path d="M 10.59375 35.5 
L 73.1875 35.5 
L 73.1875 27.203125 
L 10.59375 27.203125 
z
" id="DejaVuSans-8722"/>
       <path d="M 12.40625 8.296875 
L 28.515625 8.296875 
L 28.515625 63.921875 
L 10.984375 60.40625 
L 10.984375 69.390625 
L 28.421875 72.90625 
L 38.28125 72.90625 
L 38.28125 8.296875 
L 54.390625 8.296875 
L 54.390625 0 
L 12.40625 0 
z
" id="DejaVuSans-49"/>
       <path d="M 10.6875 12.40625 
L 21 12.40625 
L 21 0 
L 10.6875 0 
z
" id="DejaVuSans-46"/>
       <path d="M 31.78125 66.40625 
Q 24.171875 66.40625 20.328125 58.90625 
Q 16.5 51.421875 16.5 36.375 
Q 16.5 21.390625 20.328125 13.890625 
Q 24.171875 6.390625 31.78125 6.390625 
Q 39.453125 6.390625 43.28125 13.890625 
Q 47.125 21.390625 47.125 36.375 
Q 47.125 51.421875 43.28125 58.90625 
Q 39.453125 66.40625 31.78125 66.40625 
z
M 31.78125 74.21875 
Q 44.046875 74.21875 50.515625 64.515625 
Q 56.984375 54.828125 56.984375 36.375 
Q 56.984375 17.96875 50.515625 8.265625 
Q 44.046875 -1.421875 31.78125 -1.421875 
Q 19.53125 -1.421875 13.0625 8.265625 
Q 6.59375 17.96875 6.59375 36.375 
Q 6.59375 54.828125 13.0625 64.515625 
Q 19.53125 74.21875 31.78125 74.21875 
z
" id="DejaVuSans-48"/>
      </defs>
      <g transform="translate(322.723551 360.420201)scale(0.2 -0.2)">
       <use xlink:href="#DejaVuSans-8722"/>
       <use x="83.789062" xlink:href="#DejaVuSans-49"/>
       <use x="147.412109" xlink:href="#DejaVuSans-46"/>
       <use x="179.199219" xlink:href="#DejaVuSans-48"/>
      </g>
     </g>
    </g>
    <g id="xtick_2">
     <g id="line2d_2">
      <g>
       <use style="stroke:#000000;stroke-width:1.6;" x="417.788182" xlink:href="#mcc314ad1cf" y="330.523326"/>
      </g>
     </g>
     <g id="text_2">
      <!-- −0.5 -->
      <defs>
       <path d="M 10.796875 72.90625 
L 49.515625 72.90625 
L 49.515625 64.59375 
L 19.828125 64.59375 
L 19.828125 46.734375 
Q 21.96875 47.46875 24.109375 47.828125 
Q 26.265625 48.1875 28.421875 48.1875 
Q 40.625 48.1875 47.75 41.5 
Q 54.890625 34.8125 54.890625 23.390625 
Q 54.890625 11.625 47.5625 5.09375 
Q 40.234375 -1.421875 26.90625 -1.421875 
Q 22.3125 -1.421875 17.546875 -0.640625 
Q 12.796875 0.140625 7.71875 1.703125 
L 7.71875 11.625 
Q 12.109375 9.234375 16.796875 8.0625 
Q 21.484375 6.890625 26.703125 6.890625 
Q 35.15625 6.890625 40.078125 11.328125 
Q 45.015625 15.765625 45.015625 23.390625 
Q 45.015625 31 40.078125 35.4375 
Q 35.15625 39.890625 26.703125 39.890625 
Q 22.75 39.890625 18.8125 39.015625 
Q 14.890625 38.140625 10.796875 36.28125 
z
" id="DejaVuSans-53"/>
      </defs>
      <g transform="translate(393.505369 360.420201)scale(0.2 -0.2)">
       <use xlink:href="#DejaVuSans-8722"/>
       <use x="83.789062" xlink:href="#DejaVuSans-48"/>
       <use x="147.412109" xlink:href="#DejaVuSans-46"/>
       <use x="179.199219" xlink:href="#DejaVuSans-53"/>
      </g>
     </g>
    </g>
    <g id="xtick_3">
     <g id="line2d_3">
      <g>
       <use style="stroke:#000000;stroke-width:1.6;" x="488.57" xlink:href="#mcc314ad1cf" y="330.523326"/>
      </g>
     </g>
     <g id="text_3">
      <!-- 0.0 -->
      <g transform="translate(472.666875 360.420201)scale(0.2 -0.2)">
       <use xlink:href="#DejaVuSans-48"/>
       <use x="63.623047" xlink:href="#DejaVuSans-46"/>
       <use x="95.410156" xlink:href="#DejaVuSans-48"/>
      </g>
     </g>
    </g>
    <g id="xtick_4">
     <g id="line2d_4">
      <g>
       <use style="stroke:#000000;stroke-width:1.6;" x="559.351818" xlink:href="#mcc314ad1cf" y="330.523326"/>
      </g>
     </g>
     <g id="text_4">
      <!-- 0.5 -->
      <g transform="translate(543.448693 360.420201)scale(0.2 -0.2)">
       <use xlink:href="#DejaVuSans-48"/>
       <use x="63.623047" xlink:href="#DejaVuSans-46"/>
       <use x="95.410156" xlink:href="#DejaVuSans-53"/>
      </g>
     </g>
    </g>
    <g id="xtick_5">
     <g id="line2d_5">
      <g>
       <use style="stroke:#000000;stroke-width:1.6;" x="630.133636" xlink:href="#mcc314ad1cf" y="330.523326"/>
      </g>
     </g>
     <g id="text_5">
      <!-- 1.0 -->
      <g transform="translate(614.230511 360.420201)scale(0.2 -0.2)">
       <use xlink:href="#DejaVuSans-49"/>
       <use x="63.623047" xlink:href="#DejaVuSans-46"/>
       <use x="95.410156" xlink:href="#DejaVuSans-48"/>
      </g>
     </g>
    </g>
   </g>
   <g id="matplotlib.axis_2">
    <g id="ytick_1">
     <g id="line2d_6">
      <defs>
       <path d="M 0 0 
L -3.5 0 
" id="me6b3d572b0" style="stroke:#000000;stroke-width:1.6;"/>
      </defs>
      <g>
       <use style="stroke:#000000;stroke-width:1.6;" x="332.85" xlink:href="#me6b3d572b0" y="330.523326"/>
      </g>
     </g>
     <g id="text_6">
      <!-- 0.0 -->
      <g transform="translate(286.34375 338.121764)scale(0.2 -0.2)">
       <use xlink:href="#DejaVuSans-48"/>
       <use x="63.623047" xlink:href="#DejaVuSans-46"/>
       <use x="95.410156" xlink:href="#DejaVuSans-48"/>
      </g>
     </g>
    </g>
    <g id="ytick_2">
     <g id="line2d_7">
      <g>
       <use style="stroke:#000000;stroke-width:1.6;" x="332.85" xlink:href="#me6b3d572b0" y="245.788884"/>
      </g>
     </g>
     <g id="text_7">
      <!-- 0.1 -->
      <g transform="translate(286.34375 253.387322)scale(0.2 -0.2)">
       <use xlink:href="#DejaVuSans-48"/>
       <use x="63.623047" xlink:href="#DejaVuSans-46"/>
       <use x="95.410156" xlink:href="#DejaVuSans-49"/>
      </g>
     </g>
    </g>
    <g id="ytick_3">
     <g id="line2d_8">
      <g>
       <use style="stroke:#000000;stroke-width:1.6;" x="332.85" xlink:href="#me6b3d572b0" y="161.054442"/>
      </g>
     </g>
     <g id="text_8">
      <!-- 0.2 -->
      <defs>
       <path d="M 19.1875 8.296875 
L 53.609375 8.296875 
L 53.609375 0 
L 7.328125 0 
L 7.328125 8.296875 
Q 12.9375 14.109375 22.625 23.890625 
Q 32.328125 33.6875 34.8125 36.53125 
Q 39.546875 41.84375 41.421875 45.53125 
Q 43.3125 49.21875 43.3125 52.78125 
Q 43.3125 58.59375 39.234375 62.25 
Q 35.15625 65.921875 28.609375 65.921875 
Q 23.96875 65.921875 18.8125 64.3125 
Q 13.671875 62.703125 7.8125 59.421875 
L 7.8125 69.390625 
Q 13.765625 71.78125 18.9375 73 
Q 24.125 74.21875 28.421875 74.21875 
Q 39.75 74.21875 46.484375 68.546875 
Q 53.21875 62.890625 53.21875 53.421875 
Q 53.21875 48.921875 51.53125 44.890625 
Q 49.859375 40.875 45.40625 35.40625 
Q 44.1875 33.984375 37.640625 27.21875 
Q 31.109375 20.453125 19.1875 8.296875 
z
" id="DejaVuSans-50"/>
      </defs>
      <g transform="translate(286.34375 168.65288)scale(0.2 -0.2)">
       <use xlink:href="#DejaVuSans-48"/>
       <use x="63.623047" xlink:href="#DejaVuSans-46"/>
       <use x="95.410156" xlink:href="#DejaVuSans-50"/>
      </g>
     </g>
    </g>
    <g id="ytick_4">
     <g id="line2d_9">
      <g>
       <use style="stroke:#000000;stroke-width:1.6;" x="332.85" xlink:href="#me6b3d572b0" y="76.32"/>
      </g>
     </g>
     <g id="text_9">
      <!-- 0.3 -->
      <defs>
       <path d="M 40.578125 39.3125 
Q 47.65625 37.796875 51.625 33 
Q 55.609375 28.21875 55.609375 21.1875 
Q 55.609375 10.40625 48.1875 4.484375 
Q 40.765625 -1.421875 27.09375 -1.421875 
Q 22.515625 -1.421875 17.65625 -0.515625 
Q 12.796875 0.390625 7.625 2.203125 
L 7.625 11.71875 
Q 11.71875 9.328125 16.59375 8.109375 
Q 21.484375 6.890625 26.8125 6.890625 
Q 36.078125 6.890625 40.9375 10.546875 
Q 45.796875 14.203125 45.796875 21.1875 
Q 45.796875 27.640625 41.28125 31.265625 
Q 36.765625 34.90625 28.71875 34.90625 
L 20.21875 34.90625 
L 20.21875 43.015625 
L 29.109375 43.015625 
Q 36.375 43.015625 40.234375 45.921875 
Q 44.09375 48.828125 44.09375 54.296875 
Q 44.09375 59.90625 40.109375 62.90625 
Q 36.140625 65.921875 28.71875 65.921875 
Q 24.65625 65.921875 20.015625 65.03125 
Q 15.375 64.15625 9.8125 62.3125 
L 9.8125 71.09375 
Q 15.4375 72.65625 20.34375 73.4375 
Q 25.25 74.21875 29.59375 74.21875 
Q 40.828125 74.21875 47.359375 69.109375 
Q 53.90625 64.015625 53.90625 55.328125 
Q 53.90625 49.265625 50.4375 45.09375 
Q 46.96875 40.921875 40.578125 39.3125 
z
" id="DejaVuSans-51"/>
      </defs>
      <g transform="translate(286.34375 83.918438)scale(0.2 -0.2)">
       <use xlink:href="#DejaVuSans-48"/>
       <use x="63.623047" xlink:href="#DejaVuSans-46"/>
       <use x="95.410156" xlink:href="#DejaVuSans-51"/>
      </g>
     </g>
    </g>
   </g>
   <g id="patch_63">
    <path d="M 332.85 330.523326 
L 332.85 19.083326 
" style="fill:none;stroke:#000000;stroke-linecap:square;stroke-linejoin:miter;stroke-width:0.8;"/>
   </g>
   <g id="patch_64">
    <path d="M 332.85 330.523326 
L 644.29 330.523326 
" style="fill:none;stroke:#000000;stroke-linecap:square;stroke-linejoin:miter;stroke-width:0.8;"/>
   </g>
  </g>
 </g>
 <defs>
  <clipPath id="p610ea9a09e">
   <rect height="311.44" width="311.44" x="332.85" y="19.083326"/>
  </clipPath>
 </defs>
</svg>
