<?xml version="1.0" encoding="utf-8" standalone="no"?>
<!DOCTYPE svg PUBLIC "-//W3C//DTD SVG 1.1//EN"
  "http://www.w3.org/Graphics/SVG/1.1/DTD/svg11.dtd">
<!-- Created with matplotlib (https://matplotlib.org/) -->
<svg height="523.06pt" version="1.1" viewBox="0 0 916.468636 523.06" width="916.468636pt" xmlns="http://www.w3.org/2000/svg" xmlns:xlink="http://www.w3.org/1999/xlink">
 <defs>
  <style type="text/css">
*{stroke-linecap:butt;stroke-linejoin:round;}
  </style>
 </defs>
 <g id="figure_1">
  <g id="patch_1">
   <path d="M 0 523.06 
L 916.468636 523.06 
L 916.468636 0 
L 0 0 
z
" style="fill:#ffffff;"/>
  </g>
  <g id="axes_1">
   <g id="patch_2">
    <path d="M 460.11 313.96 
L 771.55 313.96 
L 771.55 2.52 
L 460.11 2.52 
z
" style="fill:#ffffff;"/>
   </g>
   <g id="patch_3">
    <path clip-path="url(#p5e8bb07ac8)" d="M 474.266364 313.96 
L 483.703939 313.96 
L 483.703939 313.96 
L 474.266364 313.96 
z
" style="fill:#43406b;opacity:0.6;stroke:#000000;stroke-linejoin:miter;stroke-width:0.5;"/>
   </g>
   <g id="patch_4">
    <path clip-path="url(#p5e8bb07ac8)" d="M 483.703939 313.96 
L 493.141515 313.96 
L 493.141515 313.96 
L 483.703939 313.96 
z
" style="fill:#43406b;opacity:0.6;stroke:#000000;stroke-linejoin:miter;stroke-width:0.5;"/>
   </g>
   <g id="patch_5">
    <path clip-path="url(#p5e8bb07ac8)" d="M 493.141515 313.96 
L 502.579091 313.96 
L 502.579091 313.96 
L 493.141515 313.96 
z
" style="fill:#43406b;opacity:0.6;stroke:#000000;stroke-linejoin:miter;stroke-width:0.5;"/>
   </g>
   <g id="patch_6">
    <path clip-path="url(#p5e8bb07ac8)" d="M 502.579091 313.96 
L 512.016667 313.96 
L 512.016667 313.96 
L 502.579091 313.96 
z
" style="fill:#43406b;opacity:0.6;stroke:#000000;stroke-linejoin:miter;stroke-width:0.5;"/>
   </g>
   <g id="patch_7">
    <path clip-path="url(#p5e8bb07ac8)" d="M 512.016667 313.96 
L 521.454242 313.96 
L 521.454242 313.96 
L 512.016667 313.96 
z
" style="fill:#43406b;opacity:0.6;stroke:#000000;stroke-linejoin:miter;stroke-width:0.5;"/>
   </g>
   <g id="patch_8">
    <path clip-path="url(#p5e8bb07ac8)" d="M 521.454242 313.96 
L 530.891818 313.96 
L 530.891818 313.96 
L 521.454242 313.96 
z
" style="fill:#43406b;opacity:0.6;stroke:#000000;stroke-linejoin:miter;stroke-width:0.5;"/>
   </g>
   <g id="patch_9">
    <path clip-path="url(#p5e8bb07ac8)" d="M 530.891818 313.96 
L 540.329394 313.96 
L 540.329394 313.96 
L 530.891818 313.96 
z
" style="fill:#43406b;opacity:0.6;stroke:#000000;stroke-linejoin:miter;stroke-width:0.5;"/>
   </g>
   <g id="patch_10">
    <path clip-path="url(#p5e8bb07ac8)" d="M 540.329394 313.96 
L 549.76697 313.96 
L 549.76697 313.96 
L 540.329394 313.96 
z
" style="fill:#43406b;opacity:0.6;stroke:#000000;stroke-linejoin:miter;stroke-width:0.5;"/>
   </g>
   <g id="patch_11">
    <path clip-path="url(#p5e8bb07ac8)" d="M 549.76697 313.96 
L 559.204545 313.96 
L 559.204545 313.96 
L 549.76697 313.96 
z
" style="fill:#43406b;opacity:0.6;stroke:#000000;stroke-linejoin:miter;stroke-width:0.5;"/>
   </g>
   <g id="patch_12">
    <path clip-path="url(#p5e8bb07ac8)" d="M 559.204545 313.96 
L 568.642121 313.96 
L 568.642121 313.96 
L 559.204545 313.96 
z
" style="fill:#43406b;opacity:0.6;stroke:#000000;stroke-linejoin:miter;stroke-width:0.5;"/>
   </g>
   <g id="patch_13">
    <path clip-path="url(#p5e8bb07ac8)" d="M 568.642121 313.96 
L 578.079697 313.96 
L 578.079697 280.512543 
L 568.642121 280.512543 
z
" style="fill:#43406b;opacity:0.6;stroke:#000000;stroke-linejoin:miter;stroke-width:0.5;"/>
   </g>
   <g id="patch_14">
    <path clip-path="url(#p5e8bb07ac8)" d="M 578.079697 313.96 
L 587.517273 313.96 
L 587.517273 247.065086 
L 578.079697 247.065086 
z
" style="fill:#43406b;opacity:0.6;stroke:#000000;stroke-linejoin:miter;stroke-width:0.5;"/>
   </g>
   <g id="patch_15">
    <path clip-path="url(#p5e8bb07ac8)" d="M 587.517273 313.96 
L 596.954848 313.96 
L 596.954848 280.512543 
L 587.517273 280.512543 
z
" style="fill:#43406b;opacity:0.6;stroke:#000000;stroke-linejoin:miter;stroke-width:0.5;"/>
   </g>
   <g id="patch_16">
    <path clip-path="url(#p5e8bb07ac8)" d="M 596.954848 313.96 
L 606.392424 313.96 
L 606.392424 280.512543 
L 596.954848 280.512543 
z
" style="fill:#43406b;opacity:0.6;stroke:#000000;stroke-linejoin:miter;stroke-width:0.5;"/>
   </g>
   <g id="patch_17">
    <path clip-path="url(#p5e8bb07ac8)" d="M 606.392424 313.96 
L 615.83 313.96 
L 615.83 213.617629 
L 606.392424 213.617629 
z
" style="fill:#43406b;opacity:0.6;stroke:#000000;stroke-linejoin:miter;stroke-width:0.5;"/>
   </g>
   <g id="patch_18">
    <path clip-path="url(#p5e8bb07ac8)" d="M 615.83 313.96 
L 625.267576 313.96 
L 625.267576 313.96 
L 615.83 313.96 
z
" style="fill:#43406b;opacity:0.6;stroke:#000000;stroke-linejoin:miter;stroke-width:0.5;"/>
   </g>
   <g id="patch_19">
    <path clip-path="url(#p5e8bb07ac8)" d="M 625.267576 313.96 
L 634.705152 313.96 
L 634.705152 213.617629 
L 625.267576 213.617629 
z
" style="fill:#43406b;opacity:0.6;stroke:#000000;stroke-linejoin:miter;stroke-width:0.5;"/>
   </g>
   <g id="patch_20">
    <path clip-path="url(#p5e8bb07ac8)" d="M 634.705152 313.96 
L 644.142727 313.96 
L 644.142727 313.96 
L 634.705152 313.96 
z
" style="fill:#43406b;opacity:0.6;stroke:#000000;stroke-linejoin:miter;stroke-width:0.5;"/>
   </g>
   <g id="patch_21">
    <path clip-path="url(#p5e8bb07ac8)" d="M 644.142727 313.96 
L 653.580303 313.96 
L 653.580303 180.170172 
L 644.142727 180.170172 
z
" style="fill:#43406b;opacity:0.6;stroke:#000000;stroke-linejoin:miter;stroke-width:0.5;"/>
   </g>
   <g id="patch_22">
    <path clip-path="url(#p5e8bb07ac8)" d="M 653.580303 313.96 
L 663.017879 313.96 
L 663.017879 313.96 
L 653.580303 313.96 
z
" style="fill:#43406b;opacity:0.6;stroke:#000000;stroke-linejoin:miter;stroke-width:0.5;"/>
   </g>
   <g id="patch_23">
    <path clip-path="url(#p5e8bb07ac8)" d="M 663.017879 313.96 
L 672.455455 313.96 
L 672.455455 113.275258 
L 663.017879 113.275258 
z
" style="fill:#43406b;opacity:0.6;stroke:#000000;stroke-linejoin:miter;stroke-width:0.5;"/>
   </g>
   <g id="patch_24">
    <path clip-path="url(#p5e8bb07ac8)" d="M 672.455455 313.96 
L 681.89303 313.96 
L 681.89303 213.617629 
L 672.455455 213.617629 
z
" style="fill:#43406b;opacity:0.6;stroke:#000000;stroke-linejoin:miter;stroke-width:0.5;"/>
   </g>
   <g id="patch_25">
    <path clip-path="url(#p5e8bb07ac8)" d="M 681.89303 313.96 
L 691.330606 313.96 
L 691.330606 79.827801 
L 681.89303 79.827801 
z
" style="fill:#43406b;opacity:0.6;stroke:#000000;stroke-linejoin:miter;stroke-width:0.5;"/>
   </g>
   <g id="patch_26">
    <path clip-path="url(#p5e8bb07ac8)" d="M 691.330606 313.96 
L 700.768182 313.96 
L 700.768182 146.722715 
L 691.330606 146.722715 
z
" style="fill:#43406b;opacity:0.6;stroke:#000000;stroke-linejoin:miter;stroke-width:0.5;"/>
   </g>
   <g id="patch_27">
    <path clip-path="url(#p5e8bb07ac8)" d="M 700.768182 313.96 
L 710.205758 313.96 
L 710.205758 247.065086 
L 700.768182 247.065086 
z
" style="fill:#43406b;opacity:0.6;stroke:#000000;stroke-linejoin:miter;stroke-width:0.5;"/>
   </g>
   <g id="patch_28">
    <path clip-path="url(#p5e8bb07ac8)" d="M 710.205758 313.96 
L 719.643333 313.96 
L 719.643333 213.617629 
L 710.205758 213.617629 
z
" style="fill:#43406b;opacity:0.6;stroke:#000000;stroke-linejoin:miter;stroke-width:0.5;"/>
   </g>
   <g id="patch_29">
    <path clip-path="url(#p5e8bb07ac8)" d="M 719.643333 313.96 
L 729.080909 313.96 
L 729.080909 313.96 
L 719.643333 313.96 
z
" style="fill:#43406b;opacity:0.6;stroke:#000000;stroke-linejoin:miter;stroke-width:0.5;"/>
   </g>
   <g id="patch_30">
    <path clip-path="url(#p5e8bb07ac8)" d="M 729.080909 313.96 
L 738.518485 313.96 
L 738.518485 146.722715 
L 729.080909 146.722715 
z
" style="fill:#43406b;opacity:0.6;stroke:#000000;stroke-linejoin:miter;stroke-width:0.5;"/>
   </g>
   <g id="patch_31">
    <path clip-path="url(#p5e8bb07ac8)" d="M 738.518485 313.96 
L 747.956061 313.96 
L 747.956061 313.96 
L 738.518485 313.96 
z
" style="fill:#43406b;opacity:0.6;stroke:#000000;stroke-linejoin:miter;stroke-width:0.5;"/>
   </g>
   <g id="patch_32">
    <path clip-path="url(#p5e8bb07ac8)" d="M 747.956061 313.96 
L 757.393636 313.96 
L 757.393636 280.512543 
L 747.956061 280.512543 
z
" style="fill:#43406b;opacity:0.6;stroke:#000000;stroke-linejoin:miter;stroke-width:0.5;"/>
   </g>
   <g id="patch_33">
    <path clip-path="url(#p5e8bb07ac8)" d="M 474.266364 313.96 
L 483.703939 313.96 
L 483.703939 313.96 
L 474.266364 313.96 
z
" style="fill:#d15a00;opacity:0.6;stroke:#000000;stroke-linejoin:miter;stroke-width:0.5;"/>
   </g>
   <g id="patch_34">
    <path clip-path="url(#p5e8bb07ac8)" d="M 483.703939 313.96 
L 493.141515 313.96 
L 493.141515 313.96 
L 483.703939 313.96 
z
" style="fill:#d15a00;opacity:0.6;stroke:#000000;stroke-linejoin:miter;stroke-width:0.5;"/>
   </g>
   <g id="patch_35">
    <path clip-path="url(#p5e8bb07ac8)" d="M 493.141515 313.96 
L 502.579091 313.96 
L 502.579091 313.96 
L 493.141515 313.96 
z
" style="fill:#d15a00;opacity:0.6;stroke:#000000;stroke-linejoin:miter;stroke-width:0.5;"/>
   </g>
   <g id="patch_36">
    <path clip-path="url(#p5e8bb07ac8)" d="M 502.579091 313.96 
L 512.016667 313.96 
L 512.016667 313.96 
L 502.579091 313.96 
z
" style="fill:#d15a00;opacity:0.6;stroke:#000000;stroke-linejoin:miter;stroke-width:0.5;"/>
   </g>
   <g id="patch_37">
    <path clip-path="url(#p5e8bb07ac8)" d="M 512.016667 313.96 
L 521.454242 313.96 
L 521.454242 313.96 
L 512.016667 313.96 
z
" style="fill:#d15a00;opacity:0.6;stroke:#000000;stroke-linejoin:miter;stroke-width:0.5;"/>
   </g>
   <g id="patch_38">
    <path clip-path="url(#p5e8bb07ac8)" d="M 521.454242 313.96 
L 530.891818 313.96 
L 530.891818 313.96 
L 521.454242 313.96 
z
" style="fill:#d15a00;opacity:0.6;stroke:#000000;stroke-linejoin:miter;stroke-width:0.5;"/>
   </g>
   <g id="patch_39">
    <path clip-path="url(#p5e8bb07ac8)" d="M 530.891818 313.96 
L 540.329394 313.96 
L 540.329394 313.96 
L 530.891818 313.96 
z
" style="fill:#d15a00;opacity:0.6;stroke:#000000;stroke-linejoin:miter;stroke-width:0.5;"/>
   </g>
   <g id="patch_40">
    <path clip-path="url(#p5e8bb07ac8)" d="M 540.329394 313.96 
L 549.76697 313.96 
L 549.76697 313.96 
L 540.329394 313.96 
z
" style="fill:#d15a00;opacity:0.6;stroke:#000000;stroke-linejoin:miter;stroke-width:0.5;"/>
   </g>
   <g id="patch_41">
    <path clip-path="url(#p5e8bb07ac8)" d="M 549.76697 313.96 
L 559.204545 313.96 
L 559.204545 284.299048 
L 549.76697 284.299048 
z
" style="fill:#d15a00;opacity:0.6;stroke:#000000;stroke-linejoin:miter;stroke-width:0.5;"/>
   </g>
   <g id="patch_42">
    <path clip-path="url(#p5e8bb07ac8)" d="M 559.204545 313.96 
L 568.642121 313.96 
L 568.642121 313.96 
L 559.204545 313.96 
z
" style="fill:#d15a00;opacity:0.6;stroke:#000000;stroke-linejoin:miter;stroke-width:0.5;"/>
   </g>
   <g id="patch_43">
    <path clip-path="url(#p5e8bb07ac8)" d="M 568.642121 313.96 
L 578.079697 313.96 
L 578.079697 313.96 
L 568.642121 313.96 
z
" style="fill:#d15a00;opacity:0.6;stroke:#000000;stroke-linejoin:miter;stroke-width:0.5;"/>
   </g>
   <g id="patch_44">
    <path clip-path="url(#p5e8bb07ac8)" d="M 578.079697 313.96 
L 587.517273 313.96 
L 587.517273 313.96 
L 578.079697 313.96 
z
" style="fill:#d15a00;opacity:0.6;stroke:#000000;stroke-linejoin:miter;stroke-width:0.5;"/>
   </g>
   <g id="patch_45">
    <path clip-path="url(#p5e8bb07ac8)" d="M 587.517273 313.96 
L 596.954848 313.96 
L 596.954848 313.96 
L 587.517273 313.96 
z
" style="fill:#d15a00;opacity:0.6;stroke:#000000;stroke-linejoin:miter;stroke-width:0.5;"/>
   </g>
   <g id="patch_46">
    <path clip-path="url(#p5e8bb07ac8)" d="M 596.954848 313.96 
L 606.392424 313.96 
L 606.392424 313.96 
L 596.954848 313.96 
z
" style="fill:#d15a00;opacity:0.6;stroke:#000000;stroke-linejoin:miter;stroke-width:0.5;"/>
   </g>
   <g id="patch_47">
    <path clip-path="url(#p5e8bb07ac8)" d="M 606.392424 313.96 
L 615.83 313.96 
L 615.83 284.299048 
L 606.392424 284.299048 
z
" style="fill:#d15a00;opacity:0.6;stroke:#000000;stroke-linejoin:miter;stroke-width:0.5;"/>
   </g>
   <g id="patch_48">
    <path clip-path="url(#p5e8bb07ac8)" d="M 615.83 313.96 
L 625.267576 313.96 
L 625.267576 284.299048 
L 615.83 284.299048 
z
" style="fill:#d15a00;opacity:0.6;stroke:#000000;stroke-linejoin:miter;stroke-width:0.5;"/>
   </g>
   <g id="patch_49">
    <path clip-path="url(#p5e8bb07ac8)" d="M 625.267576 313.96 
L 634.705152 313.96 
L 634.705152 254.638095 
L 625.267576 254.638095 
z
" style="fill:#d15a00;opacity:0.6;stroke:#000000;stroke-linejoin:miter;stroke-width:0.5;"/>
   </g>
   <g id="patch_50">
    <path clip-path="url(#p5e8bb07ac8)" d="M 634.705152 313.96 
L 644.142727 313.96 
L 644.142727 284.299048 
L 634.705152 284.299048 
z
" style="fill:#d15a00;opacity:0.6;stroke:#000000;stroke-linejoin:miter;stroke-width:0.5;"/>
   </g>
   <g id="patch_51">
    <path clip-path="url(#p5e8bb07ac8)" d="M 644.142727 313.96 
L 653.580303 313.96 
L 653.580303 106.333333 
L 644.142727 106.333333 
z
" style="fill:#d15a00;opacity:0.6;stroke:#000000;stroke-linejoin:miter;stroke-width:0.5;"/>
   </g>
   <g id="patch_52">
    <path clip-path="url(#p5e8bb07ac8)" d="M 653.580303 313.96 
L 663.017879 313.96 
L 663.017879 313.96 
L 653.580303 313.96 
z
" style="fill:#d15a00;opacity:0.6;stroke:#000000;stroke-linejoin:miter;stroke-width:0.5;"/>
   </g>
   <g id="patch_53">
    <path clip-path="url(#p5e8bb07ac8)" d="M 663.017879 313.96 
L 672.455455 313.96 
L 672.455455 195.31619 
L 663.017879 195.31619 
z
" style="fill:#d15a00;opacity:0.6;stroke:#000000;stroke-linejoin:miter;stroke-width:0.5;"/>
   </g>
   <g id="patch_54">
    <path clip-path="url(#p5e8bb07ac8)" d="M 672.455455 313.96 
L 681.89303 313.96 
L 681.89303 254.638095 
L 672.455455 254.638095 
z
" style="fill:#d15a00;opacity:0.6;stroke:#000000;stroke-linejoin:miter;stroke-width:0.5;"/>
   </g>
   <g id="patch_55">
    <path clip-path="url(#p5e8bb07ac8)" d="M 681.89303 313.96 
L 691.330606 313.96 
L 691.330606 17.350476 
L 681.89303 17.350476 
z
" style="fill:#d15a00;opacity:0.6;stroke:#000000;stroke-linejoin:miter;stroke-width:0.5;"/>
   </g>
   <g id="patch_56">
    <path clip-path="url(#p5e8bb07ac8)" d="M 691.330606 313.96 
L 700.768182 313.96 
L 700.768182 135.994286 
L 691.330606 135.994286 
z
" style="fill:#d15a00;opacity:0.6;stroke:#000000;stroke-linejoin:miter;stroke-width:0.5;"/>
   </g>
   <g id="patch_57">
    <path clip-path="url(#p5e8bb07ac8)" d="M 700.768182 313.96 
L 710.205758 313.96 
L 710.205758 165.655238 
L 700.768182 165.655238 
z
" style="fill:#d15a00;opacity:0.6;stroke:#000000;stroke-linejoin:miter;stroke-width:0.5;"/>
   </g>
   <g id="patch_58">
    <path clip-path="url(#p5e8bb07ac8)" d="M 710.205758 313.96 
L 719.643333 313.96 
L 719.643333 195.31619 
L 710.205758 195.31619 
z
" style="fill:#d15a00;opacity:0.6;stroke:#000000;stroke-linejoin:miter;stroke-width:0.5;"/>
   </g>
   <g id="patch_59">
    <path clip-path="url(#p5e8bb07ac8)" d="M 719.643333 313.96 
L 729.080909 313.96 
L 729.080909 313.96 
L 719.643333 313.96 
z
" style="fill:#d15a00;opacity:0.6;stroke:#000000;stroke-linejoin:miter;stroke-width:0.5;"/>
   </g>
   <g id="patch_60">
    <path clip-path="url(#p5e8bb07ac8)" d="M 729.080909 313.96 
L 738.518485 313.96 
L 738.518485 135.994286 
L 729.080909 135.994286 
z
" style="fill:#d15a00;opacity:0.6;stroke:#000000;stroke-linejoin:miter;stroke-width:0.5;"/>
   </g>
   <g id="patch_61">
    <path clip-path="url(#p5e8bb07ac8)" d="M 738.518485 313.96 
L 747.956061 313.96 
L 747.956061 284.299048 
L 738.518485 284.299048 
z
" style="fill:#d15a00;opacity:0.6;stroke:#000000;stroke-linejoin:miter;stroke-width:0.5;"/>
   </g>
   <g id="patch_62">
    <path clip-path="url(#p5e8bb07ac8)" d="M 747.956061 313.96 
L 757.393636 313.96 
L 757.393636 254.638095 
L 747.956061 254.638095 
z
" style="fill:#d15a00;opacity:0.6;stroke:#000000;stroke-linejoin:miter;stroke-width:0.5;"/>
   </g>
   <g id="matplotlib.axis_1">
    <g id="xtick_1">
     <g id="line2d_1">
      <defs>
       <path d="M 0 0 
L 0 3.5 
" id="md19804795a" style="stroke:#000000;stroke-width:1.6;"/>
      </defs>
      <g>
       <use style="stroke:#000000;stroke-width:1.6;" x="474.266364" xlink:href="#md19804795a" y="313.96"/>
      </g>
     </g>
     <g id="text_1">
      <!-- −1.0 -->
      <defs>
       <path d="M 10.59375 35.5 
L 73.1875 35.5 
L 73.1875 27.203125 
L 10.59375 27.203125 
z
" id="DejaVuSans-8722"/>
       <path d="M 12.40625 8.296875 
L 28.515625 8.296875 
L 28.515625 63.921875 
L 10.984375 60.40625 
L 10.984375 69.390625 
L 28.421875 72.90625 
L 38.28125 72.90625 
L 38.28125 8.296875 
L 54.390625 8.296875 
L 54.390625 0 
L 12.40625 0 
z
" id="DejaVuSans-49"/>
       <path d="M 10.6875 12.40625 
L 21 12.40625 
L 21 0 
L 10.6875 0 
z
" id="DejaVuSans-46"/>
       <path d="M 31.78125 66.40625 
Q 24.171875 66.40625 20.328125 58.90625 
Q 16.5 51.421875 16.5 36.375 
Q 16.5 21.390625 20.328125 13.890625 
Q 24.171875 6.390625 31.78125 6.390625 
Q 39.453125 6.390625 43.28125 13.890625 
Q 47.125 21.390625 47.125 36.375 
Q 47.125 51.421875 43.28125 58.90625 
Q 39.453125 66.40625 31.78125 66.40625 
z
M 31.78125 74.21875 
Q 44.046875 74.21875 50.515625 64.515625 
Q 56.984375 54.828125 56.984375 36.375 
Q 56.984375 17.96875 50.515625 8.265625 
Q 44.046875 -1.421875 31.78125 -1.421875 
Q 19.53125 -1.421875 13.0625 8.265625 
Q 6.59375 17.96875 6.59375 36.375 
Q 6.59375 54.828125 13.0625 64.515625 
Q 19.53125 74.21875 31.78125 74.21875 
z
" id="DejaVuSans-48"/>
      </defs>
      <g transform="translate(449.983551 343.856875)scale(0.2 -0.2)">
       <use xlink:href="#DejaVuSans-8722"/>
       <use x="83.789062" xlink:href="#DejaVuSans-49"/>
       <use x="147.412109" xlink:href="#DejaVuSans-46"/>
       <use x="179.199219" xlink:href="#DejaVuSans-48"/>
      </g>
     </g>
    </g>
    <g id="xtick_2">
     <g id="line2d_2">
      <g>
       <use style="stroke:#000000;stroke-width:1.6;" x="545.048182" xlink:href="#md19804795a" y="313.96"/>
      </g>
     </g>
     <g id="text_2">
      <!-- −0.5 -->
      <defs>
       <path d="M 10.796875 72.90625 
L 49.515625 72.90625 
L 49.515625 64.59375 
L 19.828125 64.59375 
L 19.828125 46.734375 
Q 21.96875 47.46875 24.109375 47.828125 
Q 26.265625 48.1875 28.421875 48.1875 
Q 40.625 48.1875 47.75 41.5 
Q 54.890625 34.8125 54.890625 23.390625 
Q 54.890625 11.625 47.5625 5.09375 
Q 40.234375 -1.421875 26.90625 -1.421875 
Q 22.3125 -1.421875 17.546875 -0.640625 
Q 12.796875 0.140625 7.71875 1.703125 
L 7.71875 11.625 
Q 12.109375 9.234375 16.796875 8.0625 
Q 21.484375 6.890625 26.703125 6.890625 
Q 35.15625 6.890625 40.078125 11.328125 
Q 45.015625 15.765625 45.015625 23.390625 
Q 45.015625 31 40.078125 35.4375 
Q 35.15625 39.890625 26.703125 39.890625 
Q 22.75 39.890625 18.8125 39.015625 
Q 14.890625 38.140625 10.796875 36.28125 
z
" id="DejaVuSans-53"/>
      </defs>
      <g transform="translate(520.765369 343.856875)scale(0.2 -0.2)">
       <use xlink:href="#DejaVuSans-8722"/>
       <use x="83.789062" xlink:href="#DejaVuSans-48"/>
       <use x="147.412109" xlink:href="#DejaVuSans-46"/>
       <use x="179.199219" xlink:href="#DejaVuSans-53"/>
      </g>
     </g>
    </g>
    <g id="xtick_3">
     <g id="line2d_3">
      <g>
       <use style="stroke:#000000;stroke-width:1.6;" x="615.83" xlink:href="#md19804795a" y="313.96"/>
      </g>
     </g>
     <g id="text_3">
      <!-- 0.0 -->
      <g transform="translate(599.926875 343.856875)scale(0.2 -0.2)">
       <use xlink:href="#DejaVuSans-48"/>
       <use x="63.623047" xlink:href="#DejaVuSans-46"/>
       <use x="95.410156" xlink:href="#DejaVuSans-48"/>
      </g>
     </g>
    </g>
    <g id="xtick_4">
     <g id="line2d_4">
      <g>
       <use style="stroke:#000000;stroke-width:1.6;" x="686.611818" xlink:href="#md19804795a" y="313.96"/>
      </g>
     </g>
     <g id="text_4">
      <!-- 0.5 -->
      <g transform="translate(670.708693 343.856875)scale(0.2 -0.2)">
       <use xlink:href="#DejaVuSans-48"/>
       <use x="63.623047" xlink:href="#DejaVuSans-46"/>
       <use x="95.410156" xlink:href="#DejaVuSans-53"/>
      </g>
     </g>
    </g>
    <g id="xtick_5">
     <g id="line2d_5">
      <g>
       <use style="stroke:#000000;stroke-width:1.6;" x="757.393636" xlink:href="#md19804795a" y="313.96"/>
      </g>
     </g>
     <g id="text_5">
      <!-- 1.0 -->
      <g transform="translate(741.490511 343.856875)scale(0.2 -0.2)">
       <use xlink:href="#DejaVuSans-49"/>
       <use x="63.623047" xlink:href="#DejaVuSans-46"/>
       <use x="95.410156" xlink:href="#DejaVuSans-48"/>
      </g>
     </g>
    </g>
   </g>
   <g id="matplotlib.axis_2">
    <g id="ytick_1">
     <g id="line2d_6">
      <defs>
       <path d="M 0 0 
L -3.5 0 
" id="mcd5341b68a" style="stroke:#000000;stroke-width:1.6;"/>
      </defs>
      <g>
       <use style="stroke:#000000;stroke-width:1.6;" x="460.11" xlink:href="#mcd5341b68a" y="313.96"/>
      </g>
     </g>
     <g id="text_6">
      <!-- 0.00 -->
      <g transform="translate(400.87875 321.558437)scale(0.2 -0.2)">
       <use xlink:href="#DejaVuSans-48"/>
       <use x="63.623047" xlink:href="#DejaVuSans-46"/>
       <use x="95.410156" xlink:href="#DejaVuSans-48"/>
       <use x="159.033203" xlink:href="#DejaVuSans-48"/>
      </g>
     </g>
    </g>
    <g id="ytick_2">
     <g id="line2d_7">
      <g>
       <use style="stroke:#000000;stroke-width:1.6;" x="460.11" xlink:href="#mcd5341b68a" y="235.358476"/>
      </g>
     </g>
     <g id="text_7">
      <!-- 0.05 -->
      <g transform="translate(400.87875 242.956914)scale(0.2 -0.2)">
       <use xlink:href="#DejaVuSans-48"/>
       <use x="63.623047" xlink:href="#DejaVuSans-46"/>
       <use x="95.410156" xlink:href="#DejaVuSans-48"/>
       <use x="159.033203" xlink:href="#DejaVuSans-53"/>
      </g>
     </g>
    </g>
    <g id="ytick_3">
     <g id="line2d_8">
      <g>
       <use style="stroke:#000000;stroke-width:1.6;" x="460.11" xlink:href="#mcd5341b68a" y="156.756952"/>
      </g>
     </g>
     <g id="text_8">
      <!-- 0.10 -->
      <g transform="translate(400.87875 164.35539)scale(0.2 -0.2)">
       <use xlink:href="#DejaVuSans-48"/>
       <use x="63.623047" xlink:href="#DejaVuSans-46"/>
       <use x="95.410156" xlink:href="#DejaVuSans-49"/>
       <use x="159.033203" xlink:href="#DejaVuSans-48"/>
      </g>
     </g>
    </g>
    <g id="ytick_4">
     <g id="line2d_9">
      <g>
       <use style="stroke:#000000;stroke-width:1.6;" x="460.11" xlink:href="#mcd5341b68a" y="78.155429"/>
      </g>
     </g>
     <g id="text_9">
      <!-- 0.15 -->
      <g transform="translate(400.87875 85.753866)scale(0.2 -0.2)">
       <use xlink:href="#DejaVuSans-48"/>
       <use x="63.623047" xlink:href="#DejaVuSans-46"/>
       <use x="95.410156" xlink:href="#DejaVuSans-49"/>
       <use x="159.033203" xlink:href="#DejaVuSans-53"/>
      </g>
     </g>
    </g>
   </g>
   <g id="patch_63">
    <path d="M 460.11 313.96 
L 460.11 2.52 
" style="fill:none;stroke:#000000;stroke-linecap:square;stroke-linejoin:miter;stroke-width:0.8;"/>
   </g>
   <g id="patch_64">
    <path d="M 460.11 313.96 
L 771.55 313.96 
" style="fill:none;stroke:#000000;stroke-linecap:square;stroke-linejoin:miter;stroke-width:0.8;"/>
   </g>
  </g>
 </g>
 <defs>
  <clipPath id="p5e8bb07ac8">
   <rect height="311.44" width="311.44" x="460.11" y="2.52"/>
  </clipPath>
 </defs>
</svg>
