<?xml version="1.0" encoding="utf-8" standalone="no"?>
<!DOCTYPE svg PUBLIC "-//W3C//DTD SVG 1.1//EN"
  "http://www.w3.org/Graphics/SVG/1.1/DTD/svg11.dtd">
<!-- Created with matplotlib (https://matplotlib.org/) -->
<svg height="538.88632pt" version="1.1" viewBox="0 0 916.468636 538.88632" width="916.468636pt" xmlns="http://www.w3.org/2000/svg" xmlns:xlink="http://www.w3.org/1999/xlink">
 <defs>
  <style type="text/css">
*{stroke-linecap:butt;stroke-linejoin:round;}
  </style>
 </defs>
 <g id="figure_1">
  <g id="patch_1">
   <path d="M 0 538.88632 
L 916.468636 538.88632 
L 916.468636 0 
L 0 0 
z
" style="fill:#ffffff;"/>
  </g>
  <g id="axes_1">
   <g id="patch_2">
    <path d="M 460.11 329.78632 
L 771.55 329.78632 
L 771.55 18.34632 
L 460.11 18.34632 
z
" style="fill:#ffffff;"/>
   </g>
   <g id="patch_3">
    <path clip-path="url(#p988a3c75da)" d="M 474.266364 329.78632 
L 483.703939 329.78632 
L 483.703939 329.78632 
L 474.266364 329.78632 
z
" style="fill:#43406b;opacity:0.6;stroke:#000000;stroke-linejoin:miter;stroke-width:0.5;"/>
   </g>
   <g id="patch_4">
    <path clip-path="url(#p988a3c75da)" d="M 483.703939 329.78632 
L 493.141515 329.78632 
L 493.141515 329.78632 
L 483.703939 329.78632 
z
" style="fill:#43406b;opacity:0.6;stroke:#000000;stroke-linejoin:miter;stroke-width:0.5;"/>
   </g>
   <g id="patch_5">
    <path clip-path="url(#p988a3c75da)" d="M 493.141515 329.78632 
L 502.579091 329.78632 
L 502.579091 329.78632 
L 493.141515 329.78632 
z
" style="fill:#43406b;opacity:0.6;stroke:#000000;stroke-linejoin:miter;stroke-width:0.5;"/>
   </g>
   <g id="patch_6">
    <path clip-path="url(#p988a3c75da)" d="M 502.579091 329.78632 
L 512.016667 329.78632 
L 512.016667 329.78632 
L 502.579091 329.78632 
z
" style="fill:#43406b;opacity:0.6;stroke:#000000;stroke-linejoin:miter;stroke-width:0.5;"/>
   </g>
   <g id="patch_7">
    <path clip-path="url(#p988a3c75da)" d="M 512.016667 329.78632 
L 521.454242 329.78632 
L 521.454242 329.78632 
L 512.016667 329.78632 
z
" style="fill:#43406b;opacity:0.6;stroke:#000000;stroke-linejoin:miter;stroke-width:0.5;"/>
   </g>
   <g id="patch_8">
    <path clip-path="url(#p988a3c75da)" d="M 521.454242 329.78632 
L 530.891818 329.78632 
L 530.891818 329.78632 
L 521.454242 329.78632 
z
" style="fill:#43406b;opacity:0.6;stroke:#000000;stroke-linejoin:miter;stroke-width:0.5;"/>
   </g>
   <g id="patch_9">
    <path clip-path="url(#p988a3c75da)" d="M 530.891818 329.78632 
L 540.329394 329.78632 
L 540.329394 329.78632 
L 530.891818 329.78632 
z
" style="fill:#43406b;opacity:0.6;stroke:#000000;stroke-linejoin:miter;stroke-width:0.5;"/>
   </g>
   <g id="patch_10">
    <path clip-path="url(#p988a3c75da)" d="M 540.329394 329.78632 
L 549.76697 329.78632 
L 549.76697 329.78632 
L 540.329394 329.78632 
z
" style="fill:#43406b;opacity:0.6;stroke:#000000;stroke-linejoin:miter;stroke-width:0.5;"/>
   </g>
   <g id="patch_11">
    <path clip-path="url(#p988a3c75da)" d="M 549.76697 329.78632 
L 559.204545 329.78632 
L 559.204545 329.78632 
L 549.76697 329.78632 
z
" style="fill:#43406b;opacity:0.6;stroke:#000000;stroke-linejoin:miter;stroke-width:0.5;"/>
   </g>
   <g id="patch_12">
    <path clip-path="url(#p988a3c75da)" d="M 559.204545 329.78632 
L 568.642121 329.78632 
L 568.642121 329.78632 
L 559.204545 329.78632 
z
" style="fill:#43406b;opacity:0.6;stroke:#000000;stroke-linejoin:miter;stroke-width:0.5;"/>
   </g>
   <g id="patch_13">
    <path clip-path="url(#p988a3c75da)" d="M 568.642121 329.78632 
L 578.079697 329.78632 
L 578.079697 329.78632 
L 568.642121 329.78632 
z
" style="fill:#43406b;opacity:0.6;stroke:#000000;stroke-linejoin:miter;stroke-width:0.5;"/>
   </g>
   <g id="patch_14">
    <path clip-path="url(#p988a3c75da)" d="M 578.079697 329.78632 
L 587.517273 329.78632 
L 587.517273 329.78632 
L 578.079697 329.78632 
z
" style="fill:#43406b;opacity:0.6;stroke:#000000;stroke-linejoin:miter;stroke-width:0.5;"/>
   </g>
   <g id="patch_15">
    <path clip-path="url(#p988a3c75da)" d="M 587.517273 329.78632 
L 596.954848 329.78632 
L 596.954848 329.78632 
L 587.517273 329.78632 
z
" style="fill:#43406b;opacity:0.6;stroke:#000000;stroke-linejoin:miter;stroke-width:0.5;"/>
   </g>
   <g id="patch_16">
    <path clip-path="url(#p988a3c75da)" d="M 596.954848 329.78632 
L 606.392424 329.78632 
L 606.392424 329.78632 
L 596.954848 329.78632 
z
" style="fill:#43406b;opacity:0.6;stroke:#000000;stroke-linejoin:miter;stroke-width:0.5;"/>
   </g>
   <g id="patch_17">
    <path clip-path="url(#p988a3c75da)" d="M 606.392424 329.78632 
L 615.83 329.78632 
L 615.83 329.78632 
L 606.392424 329.78632 
z
" style="fill:#43406b;opacity:0.6;stroke:#000000;stroke-linejoin:miter;stroke-width:0.5;"/>
   </g>
   <g id="patch_18">
    <path clip-path="url(#p988a3c75da)" d="M 615.83 329.78632 
L 625.267576 329.78632 
L 625.267576 302.821818 
L 615.83 302.821818 
z
" style="fill:#43406b;opacity:0.6;stroke:#000000;stroke-linejoin:miter;stroke-width:0.5;"/>
   </g>
   <g id="patch_19">
    <path clip-path="url(#p988a3c75da)" d="M 625.267576 329.78632 
L 634.705152 329.78632 
L 634.705152 275.857316 
L 625.267576 275.857316 
z
" style="fill:#43406b;opacity:0.6;stroke:#000000;stroke-linejoin:miter;stroke-width:0.5;"/>
   </g>
   <g id="patch_20">
    <path clip-path="url(#p988a3c75da)" d="M 634.705152 329.78632 
L 644.142727 329.78632 
L 644.142727 194.96381 
L 634.705152 194.96381 
z
" style="fill:#43406b;opacity:0.6;stroke:#000000;stroke-linejoin:miter;stroke-width:0.5;"/>
   </g>
   <g id="patch_21">
    <path clip-path="url(#p988a3c75da)" d="M 644.142727 329.78632 
L 653.580303 329.78632 
L 653.580303 194.96381 
L 644.142727 194.96381 
z
" style="fill:#43406b;opacity:0.6;stroke:#000000;stroke-linejoin:miter;stroke-width:0.5;"/>
   </g>
   <g id="patch_22">
    <path clip-path="url(#p988a3c75da)" d="M 653.580303 329.78632 
L 663.017879 329.78632 
L 663.017879 221.928312 
L 653.580303 221.928312 
z
" style="fill:#43406b;opacity:0.6;stroke:#000000;stroke-linejoin:miter;stroke-width:0.5;"/>
   </g>
   <g id="patch_23">
    <path clip-path="url(#p988a3c75da)" d="M 663.017879 329.78632 
L 672.455455 329.78632 
L 672.455455 167.999307 
L 663.017879 167.999307 
z
" style="fill:#43406b;opacity:0.6;stroke:#000000;stroke-linejoin:miter;stroke-width:0.5;"/>
   </g>
   <g id="patch_24">
    <path clip-path="url(#p988a3c75da)" d="M 672.455455 329.78632 
L 681.89303 329.78632 
L 681.89303 221.928312 
L 672.455455 221.928312 
z
" style="fill:#43406b;opacity:0.6;stroke:#000000;stroke-linejoin:miter;stroke-width:0.5;"/>
   </g>
   <g id="patch_25">
    <path clip-path="url(#p988a3c75da)" d="M 681.89303 329.78632 
L 691.330606 329.78632 
L 691.330606 33.176797 
L 681.89303 33.176797 
z
" style="fill:#43406b;opacity:0.6;stroke:#000000;stroke-linejoin:miter;stroke-width:0.5;"/>
   </g>
   <g id="patch_26">
    <path clip-path="url(#p988a3c75da)" d="M 691.330606 329.78632 
L 700.768182 329.78632 
L 700.768182 141.034805 
L 691.330606 141.034805 
z
" style="fill:#43406b;opacity:0.6;stroke:#000000;stroke-linejoin:miter;stroke-width:0.5;"/>
   </g>
   <g id="patch_27">
    <path clip-path="url(#p988a3c75da)" d="M 700.768182 329.78632 
L 710.205758 329.78632 
L 710.205758 275.857316 
L 700.768182 275.857316 
z
" style="fill:#43406b;opacity:0.6;stroke:#000000;stroke-linejoin:miter;stroke-width:0.5;"/>
   </g>
   <g id="patch_28">
    <path clip-path="url(#p988a3c75da)" d="M 710.205758 329.78632 
L 719.643333 329.78632 
L 719.643333 329.78632 
L 710.205758 329.78632 
z
" style="fill:#43406b;opacity:0.6;stroke:#000000;stroke-linejoin:miter;stroke-width:0.5;"/>
   </g>
   <g id="patch_29">
    <path clip-path="url(#p988a3c75da)" d="M 719.643333 329.78632 
L 729.080909 329.78632 
L 729.080909 329.78632 
L 719.643333 329.78632 
z
" style="fill:#43406b;opacity:0.6;stroke:#000000;stroke-linejoin:miter;stroke-width:0.5;"/>
   </g>
   <g id="patch_30">
    <path clip-path="url(#p988a3c75da)" d="M 729.080909 329.78632 
L 738.518485 329.78632 
L 738.518485 329.78632 
L 729.080909 329.78632 
z
" style="fill:#43406b;opacity:0.6;stroke:#000000;stroke-linejoin:miter;stroke-width:0.5;"/>
   </g>
   <g id="patch_31">
    <path clip-path="url(#p988a3c75da)" d="M 738.518485 329.78632 
L 747.956061 329.78632 
L 747.956061 329.78632 
L 738.518485 329.78632 
z
" style="fill:#43406b;opacity:0.6;stroke:#000000;stroke-linejoin:miter;stroke-width:0.5;"/>
   </g>
   <g id="patch_32">
    <path clip-path="url(#p988a3c75da)" d="M 747.956061 329.78632 
L 757.393636 329.78632 
L 757.393636 329.78632 
L 747.956061 329.78632 
z
" style="fill:#43406b;opacity:0.6;stroke:#000000;stroke-linejoin:miter;stroke-width:0.5;"/>
   </g>
   <g id="patch_33">
    <path clip-path="url(#p988a3c75da)" d="M 474.266364 329.78632 
L 483.703939 329.78632 
L 483.703939 329.78632 
L 474.266364 329.78632 
z
" style="fill:#d15a00;opacity:0.6;stroke:#000000;stroke-linejoin:miter;stroke-width:0.5;"/>
   </g>
   <g id="patch_34">
    <path clip-path="url(#p988a3c75da)" d="M 483.703939 329.78632 
L 493.141515 329.78632 
L 493.141515 329.78632 
L 483.703939 329.78632 
z
" style="fill:#d15a00;opacity:0.6;stroke:#000000;stroke-linejoin:miter;stroke-width:0.5;"/>
   </g>
   <g id="patch_35">
    <path clip-path="url(#p988a3c75da)" d="M 493.141515 329.78632 
L 502.579091 329.78632 
L 502.579091 329.78632 
L 493.141515 329.78632 
z
" style="fill:#d15a00;opacity:0.6;stroke:#000000;stroke-linejoin:miter;stroke-width:0.5;"/>
   </g>
   <g id="patch_36">
    <path clip-path="url(#p988a3c75da)" d="M 502.579091 329.78632 
L 512.016667 329.78632 
L 512.016667 329.78632 
L 502.579091 329.78632 
z
" style="fill:#d15a00;opacity:0.6;stroke:#000000;stroke-linejoin:miter;stroke-width:0.5;"/>
   </g>
   <g id="patch_37">
    <path clip-path="url(#p988a3c75da)" d="M 512.016667 329.78632 
L 521.454242 329.78632 
L 521.454242 329.78632 
L 512.016667 329.78632 
z
" style="fill:#d15a00;opacity:0.6;stroke:#000000;stroke-linejoin:miter;stroke-width:0.5;"/>
   </g>
   <g id="patch_38">
    <path clip-path="url(#p988a3c75da)" d="M 521.454242 329.78632 
L 530.891818 329.78632 
L 530.891818 329.78632 
L 521.454242 329.78632 
z
" style="fill:#d15a00;opacity:0.6;stroke:#000000;stroke-linejoin:miter;stroke-width:0.5;"/>
   </g>
   <g id="patch_39">
    <path clip-path="url(#p988a3c75da)" d="M 530.891818 329.78632 
L 540.329394 329.78632 
L 540.329394 329.78632 
L 530.891818 329.78632 
z
" style="fill:#d15a00;opacity:0.6;stroke:#000000;stroke-linejoin:miter;stroke-width:0.5;"/>
   </g>
   <g id="patch_40">
    <path clip-path="url(#p988a3c75da)" d="M 540.329394 329.78632 
L 549.76697 329.78632 
L 549.76697 329.78632 
L 540.329394 329.78632 
z
" style="fill:#d15a00;opacity:0.6;stroke:#000000;stroke-linejoin:miter;stroke-width:0.5;"/>
   </g>
   <g id="patch_41">
    <path clip-path="url(#p988a3c75da)" d="M 549.76697 329.78632 
L 559.204545 329.78632 
L 559.204545 329.78632 
L 549.76697 329.78632 
z
" style="fill:#d15a00;opacity:0.6;stroke:#000000;stroke-linejoin:miter;stroke-width:0.5;"/>
   </g>
   <g id="patch_42">
    <path clip-path="url(#p988a3c75da)" d="M 559.204545 329.78632 
L 568.642121 329.78632 
L 568.642121 329.78632 
L 559.204545 329.78632 
z
" style="fill:#d15a00;opacity:0.6;stroke:#000000;stroke-linejoin:miter;stroke-width:0.5;"/>
   </g>
   <g id="patch_43">
    <path clip-path="url(#p988a3c75da)" d="M 568.642121 329.78632 
L 578.079697 329.78632 
L 578.079697 329.78632 
L 568.642121 329.78632 
z
" style="fill:#d15a00;opacity:0.6;stroke:#000000;stroke-linejoin:miter;stroke-width:0.5;"/>
   </g>
   <g id="patch_44">
    <path clip-path="url(#p988a3c75da)" d="M 578.079697 329.78632 
L 587.517273 329.78632 
L 587.517273 329.78632 
L 578.079697 329.78632 
z
" style="fill:#d15a00;opacity:0.6;stroke:#000000;stroke-linejoin:miter;stroke-width:0.5;"/>
   </g>
   <g id="patch_45">
    <path clip-path="url(#p988a3c75da)" d="M 587.517273 329.78632 
L 596.954848 329.78632 
L 596.954848 329.78632 
L 587.517273 329.78632 
z
" style="fill:#d15a00;opacity:0.6;stroke:#000000;stroke-linejoin:miter;stroke-width:0.5;"/>
   </g>
   <g id="patch_46">
    <path clip-path="url(#p988a3c75da)" d="M 596.954848 329.78632 
L 606.392424 329.78632 
L 606.392424 329.78632 
L 596.954848 329.78632 
z
" style="fill:#d15a00;opacity:0.6;stroke:#000000;stroke-linejoin:miter;stroke-width:0.5;"/>
   </g>
   <g id="patch_47">
    <path clip-path="url(#p988a3c75da)" d="M 606.392424 329.78632 
L 615.83 329.78632 
L 615.83 329.78632 
L 606.392424 329.78632 
z
" style="fill:#d15a00;opacity:0.6;stroke:#000000;stroke-linejoin:miter;stroke-width:0.5;"/>
   </g>
   <g id="patch_48">
    <path clip-path="url(#p988a3c75da)" d="M 615.83 329.78632 
L 625.267576 329.78632 
L 625.267576 305.874403 
L 615.83 305.874403 
z
" style="fill:#d15a00;opacity:0.6;stroke:#000000;stroke-linejoin:miter;stroke-width:0.5;"/>
   </g>
   <g id="patch_49">
    <path clip-path="url(#p988a3c75da)" d="M 625.267576 329.78632 
L 634.705152 329.78632 
L 634.705152 281.962486 
L 625.267576 281.962486 
z
" style="fill:#d15a00;opacity:0.6;stroke:#000000;stroke-linejoin:miter;stroke-width:0.5;"/>
   </g>
   <g id="patch_50">
    <path clip-path="url(#p988a3c75da)" d="M 634.705152 329.78632 
L 644.142727 329.78632 
L 644.142727 186.314818 
L 634.705152 186.314818 
z
" style="fill:#d15a00;opacity:0.6;stroke:#000000;stroke-linejoin:miter;stroke-width:0.5;"/>
   </g>
   <g id="patch_51">
    <path clip-path="url(#p988a3c75da)" d="M 644.142727 329.78632 
L 653.580303 329.78632 
L 653.580303 162.402901 
L 644.142727 162.402901 
z
" style="fill:#d15a00;opacity:0.6;stroke:#000000;stroke-linejoin:miter;stroke-width:0.5;"/>
   </g>
   <g id="patch_52">
    <path clip-path="url(#p988a3c75da)" d="M 653.580303 329.78632 
L 663.017879 329.78632 
L 663.017879 186.314818 
L 653.580303 186.314818 
z
" style="fill:#d15a00;opacity:0.6;stroke:#000000;stroke-linejoin:miter;stroke-width:0.5;"/>
   </g>
   <g id="patch_53">
    <path clip-path="url(#p988a3c75da)" d="M 663.017879 329.78632 
L 672.455455 329.78632 
L 672.455455 138.490984 
L 663.017879 138.490984 
z
" style="fill:#d15a00;opacity:0.6;stroke:#000000;stroke-linejoin:miter;stroke-width:0.5;"/>
   </g>
   <g id="patch_54">
    <path clip-path="url(#p988a3c75da)" d="M 672.455455 329.78632 
L 681.89303 329.78632 
L 681.89303 42.843316 
L 672.455455 42.843316 
z
" style="fill:#d15a00;opacity:0.6;stroke:#000000;stroke-linejoin:miter;stroke-width:0.5;"/>
   </g>
   <g id="patch_55">
    <path clip-path="url(#p988a3c75da)" d="M 681.89303 329.78632 
L 691.330606 329.78632 
L 691.330606 162.402901 
L 681.89303 162.402901 
z
" style="fill:#d15a00;opacity:0.6;stroke:#000000;stroke-linejoin:miter;stroke-width:0.5;"/>
   </g>
   <g id="patch_56">
    <path clip-path="url(#p988a3c75da)" d="M 691.330606 329.78632 
L 700.768182 329.78632 
L 700.768182 281.962486 
L 691.330606 281.962486 
z
" style="fill:#d15a00;opacity:0.6;stroke:#000000;stroke-linejoin:miter;stroke-width:0.5;"/>
   </g>
   <g id="patch_57">
    <path clip-path="url(#p988a3c75da)" d="M 700.768182 329.78632 
L 710.205758 329.78632 
L 710.205758 305.874403 
L 700.768182 305.874403 
z
" style="fill:#d15a00;opacity:0.6;stroke:#000000;stroke-linejoin:miter;stroke-width:0.5;"/>
   </g>
   <g id="patch_58">
    <path clip-path="url(#p988a3c75da)" d="M 710.205758 329.78632 
L 719.643333 329.78632 
L 719.643333 305.874403 
L 710.205758 305.874403 
z
" style="fill:#d15a00;opacity:0.6;stroke:#000000;stroke-linejoin:miter;stroke-width:0.5;"/>
   </g>
   <g id="patch_59">
    <path clip-path="url(#p988a3c75da)" d="M 719.643333 329.78632 
L 729.080909 329.78632 
L 729.080909 329.78632 
L 719.643333 329.78632 
z
" style="fill:#d15a00;opacity:0.6;stroke:#000000;stroke-linejoin:miter;stroke-width:0.5;"/>
   </g>
   <g id="patch_60">
    <path clip-path="url(#p988a3c75da)" d="M 729.080909 329.78632 
L 738.518485 329.78632 
L 738.518485 329.78632 
L 729.080909 329.78632 
z
" style="fill:#d15a00;opacity:0.6;stroke:#000000;stroke-linejoin:miter;stroke-width:0.5;"/>
   </g>
   <g id="patch_61">
    <path clip-path="url(#p988a3c75da)" d="M 738.518485 329.78632 
L 747.956061 329.78632 
L 747.956061 329.78632 
L 738.518485 329.78632 
z
" style="fill:#d15a00;opacity:0.6;stroke:#000000;stroke-linejoin:miter;stroke-width:0.5;"/>
   </g>
   <g id="patch_62">
    <path clip-path="url(#p988a3c75da)" d="M 747.956061 329.78632 
L 757.393636 329.78632 
L 757.393636 329.78632 
L 747.956061 329.78632 
z
" style="fill:#d15a00;opacity:0.6;stroke:#000000;stroke-linejoin:miter;stroke-width:0.5;"/>
   </g>
   <g id="matplotlib.axis_1">
    <g id="xtick_1">
     <g id="line2d_1">
      <defs>
       <path d="M 0 0 
L 0 3.5 
" id="m0ac973b1ee" style="stroke:#000000;stroke-width:1.6;"/>
      </defs>
      <g>
       <use style="stroke:#000000;stroke-width:1.6;" x="474.266364" xlink:href="#m0ac973b1ee" y="329.78632"/>
      </g>
     </g>
     <g id="text_1">
      <!-- −1.0 -->
      <defs>
       <path d="M 10.59375 35.5 
L 73.1875 35.5 
L 73.1875 27.203125 
L 10.59375 27.203125 
z
" id="DejaVuSans-8722"/>
       <path d="M 12.40625 8.296875 
L 28.515625 8.296875 
L 28.515625 63.921875 
L 10.984375 60.40625 
L 10.984375 69.390625 
L 28.421875 72.90625 
L 38.28125 72.90625 
L 38.28125 8.296875 
L 54.390625 8.296875 
L 54.390625 0 
L 12.40625 0 
z
" id="DejaVuSans-49"/>
       <path d="M 10.6875 12.40625 
L 21 12.40625 
L 21 0 
L 10.6875 0 
z
" id="DejaVuSans-46"/>
       <path d="M 31.78125 66.40625 
Q 24.171875 66.40625 20.328125 58.90625 
Q 16.5 51.421875 16.5 36.375 
Q 16.5 21.390625 20.328125 13.890625 
Q 24.171875 6.390625 31.78125 6.390625 
Q 39.453125 6.390625 43.28125 13.890625 
Q 47.125 21.390625 47.125 36.375 
Q 47.125 51.421875 43.28125 58.90625 
Q 39.453125 66.40625 31.78125 66.40625 
z
M 31.78125 74.21875 
Q 44.046875 74.21875 50.515625 64.515625 
Q 56.984375 54.828125 56.984375 36.375 
Q 56.984375 17.96875 50.515625 8.265625 
Q 44.046875 -1.421875 31.78125 -1.421875 
Q 19.53125 -1.421875 13.0625 8.265625 
Q 6.59375 17.96875 6.59375 36.375 
Q 6.59375 54.828125 13.0625 64.515625 
Q 19.53125 74.21875 31.78125 74.21875 
z
" id="DejaVuSans-48"/>
      </defs>
      <g transform="translate(449.983551 359.683195)scale(0.2 -0.2)">
       <use xlink:href="#DejaVuSans-8722"/>
       <use x="83.789062" xlink:href="#DejaVuSans-49"/>
       <use x="147.412109" xlink:href="#DejaVuSans-46"/>
       <use x="179.199219" xlink:href="#DejaVuSans-48"/>
      </g>
     </g>
    </g>
    <g id="xtick_2">
     <g id="line2d_2">
      <g>
       <use style="stroke:#000000;stroke-width:1.6;" x="545.048182" xlink:href="#m0ac973b1ee" y="329.78632"/>
      </g>
     </g>
     <g id="text_2">
      <!-- −0.5 -->
      <defs>
       <path d="M 10.796875 72.90625 
L 49.515625 72.90625 
L 49.515625 64.59375 
L 19.828125 64.59375 
L 19.828125 46.734375 
Q 21.96875 47.46875 24.109375 47.828125 
Q 26.265625 48.1875 28.421875 48.1875 
Q 40.625 48.1875 47.75 41.5 
Q 54.890625 34.8125 54.890625 23.390625 
Q 54.890625 11.625 47.5625 5.09375 
Q 40.234375 -1.421875 26.90625 -1.421875 
Q 22.3125 -1.421875 17.546875 -0.640625 
Q 12.796875 0.140625 7.71875 1.703125 
L 7.71875 11.625 
Q 12.109375 9.234375 16.796875 8.0625 
Q 21.484375 6.890625 26.703125 6.890625 
Q 35.15625 6.890625 40.078125 11.328125 
Q 45.015625 15.765625 45.015625 23.390625 
Q 45.015625 31 40.078125 35.4375 
Q 35.15625 39.890625 26.703125 39.890625 
Q 22.75 39.890625 18.8125 39.015625 
Q 14.890625 38.140625 10.796875 36.28125 
z
" id="DejaVuSans-53"/>
      </defs>
      <g transform="translate(520.765369 359.683195)scale(0.2 -0.2)">
       <use xlink:href="#DejaVuSans-8722"/>
       <use x="83.789062" xlink:href="#DejaVuSans-48"/>
       <use x="147.412109" xlink:href="#DejaVuSans-46"/>
       <use x="179.199219" xlink:href="#DejaVuSans-53"/>
      </g>
     </g>
    </g>
    <g id="xtick_3">
     <g id="line2d_3">
      <g>
       <use style="stroke:#000000;stroke-width:1.6;" x="615.83" xlink:href="#m0ac973b1ee" y="329.78632"/>
      </g>
     </g>
     <g id="text_3">
      <!-- 0.0 -->
      <g transform="translate(599.926875 359.683195)scale(0.2 -0.2)">
       <use xlink:href="#DejaVuSans-48"/>
       <use x="63.623047" xlink:href="#DejaVuSans-46"/>
       <use x="95.410156" xlink:href="#DejaVuSans-48"/>
      </g>
     </g>
    </g>
    <g id="xtick_4">
     <g id="line2d_4">
      <g>
       <use style="stroke:#000000;stroke-width:1.6;" x="686.611818" xlink:href="#m0ac973b1ee" y="329.78632"/>
      </g>
     </g>
     <g id="text_4">
      <!-- 0.5 -->
      <g transform="translate(670.708693 359.683195)scale(0.2 -0.2)">
       <use xlink:href="#DejaVuSans-48"/>
       <use x="63.623047" xlink:href="#DejaVuSans-46"/>
       <use x="95.410156" xlink:href="#DejaVuSans-53"/>
      </g>
     </g>
    </g>
    <g id="xtick_5">
     <g id="line2d_5">
      <g>
       <use style="stroke:#000000;stroke-width:1.6;" x="757.393636" xlink:href="#m0ac973b1ee" y="329.78632"/>
      </g>
     </g>
     <g id="text_5">
      <!-- 1.0 -->
      <g transform="translate(741.490511 359.683195)scale(0.2 -0.2)">
       <use xlink:href="#DejaVuSans-49"/>
       <use x="63.623047" xlink:href="#DejaVuSans-46"/>
       <use x="95.410156" xlink:href="#DejaVuSans-48"/>
      </g>
     </g>
    </g>
   </g>
   <g id="matplotlib.axis_2">
    <g id="ytick_1">
     <g id="line2d_6">
      <defs>
       <path d="M 0 0 
L -3.5 0 
" id="m9f1fee46fc" style="stroke:#000000;stroke-width:1.6;"/>
      </defs>
      <g>
       <use style="stroke:#000000;stroke-width:1.6;" x="460.11" xlink:href="#m9f1fee46fc" y="329.78632"/>
      </g>
     </g>
     <g id="text_6">
      <!-- 0.00 -->
      <g transform="translate(400.87875 337.384758)scale(0.2 -0.2)">
       <use xlink:href="#DejaVuSans-48"/>
       <use x="63.623047" xlink:href="#DejaVuSans-46"/>
       <use x="95.410156" xlink:href="#DejaVuSans-48"/>
       <use x="159.033203" xlink:href="#DejaVuSans-48"/>
      </g>
     </g>
    </g>
    <g id="ytick_2">
     <g id="line2d_7">
      <g>
       <use style="stroke:#000000;stroke-width:1.6;" x="460.11" xlink:href="#m9f1fee46fc" y="266.41974"/>
      </g>
     </g>
     <g id="text_7">
      <!-- 0.05 -->
      <g transform="translate(400.87875 274.018178)scale(0.2 -0.2)">
       <use xlink:href="#DejaVuSans-48"/>
       <use x="63.623047" xlink:href="#DejaVuSans-46"/>
       <use x="95.410156" xlink:href="#DejaVuSans-48"/>
       <use x="159.033203" xlink:href="#DejaVuSans-53"/>
      </g>
     </g>
    </g>
    <g id="ytick_3">
     <g id="line2d_8">
      <g>
       <use style="stroke:#000000;stroke-width:1.6;" x="460.11" xlink:href="#m9f1fee46fc" y="203.05316"/>
      </g>
     </g>
     <g id="text_8">
      <!-- 0.10 -->
      <g transform="translate(400.87875 210.651598)scale(0.2 -0.2)">
       <use xlink:href="#DejaVuSans-48"/>
       <use x="63.623047" xlink:href="#DejaVuSans-46"/>
       <use x="95.410156" xlink:href="#DejaVuSans-49"/>
       <use x="159.033203" xlink:href="#DejaVuSans-48"/>
      </g>
     </g>
    </g>
    <g id="ytick_4">
     <g id="line2d_9">
      <g>
       <use style="stroke:#000000;stroke-width:1.6;" x="460.11" xlink:href="#m9f1fee46fc" y="139.68658"/>
      </g>
     </g>
     <g id="text_9">
      <!-- 0.15 -->
      <g transform="translate(400.87875 147.285018)scale(0.2 -0.2)">
       <use xlink:href="#DejaVuSans-48"/>
       <use x="63.623047" xlink:href="#DejaVuSans-46"/>
       <use x="95.410156" xlink:href="#DejaVuSans-49"/>
       <use x="159.033203" xlink:href="#DejaVuSans-53"/>
      </g>
     </g>
    </g>
    <g id="ytick_5">
     <g id="line2d_10">
      <g>
       <use style="stroke:#000000;stroke-width:1.6;" x="460.11" xlink:href="#m9f1fee46fc" y="76.32"/>
      </g>
     </g>
     <g id="text_10">
      <!-- 0.20 -->
      <defs>
       <path d="M 19.1875 8.296875 
L 53.609375 8.296875 
L 53.609375 0 
L 7.328125 0 
L 7.328125 8.296875 
Q 12.9375 14.109375 22.625 23.890625 
Q 32.328125 33.6875 34.8125 36.53125 
Q 39.546875 41.84375 41.421875 45.53125 
Q 43.3125 49.21875 43.3125 52.78125 
Q 43.3125 58.59375 39.234375 62.25 
Q 35.15625 65.921875 28.609375 65.921875 
Q 23.96875 65.921875 18.8125 64.3125 
Q 13.671875 62.703125 7.8125 59.421875 
L 7.8125 69.390625 
Q 13.765625 71.78125 18.9375 73 
Q 24.125 74.21875 28.421875 74.21875 
Q 39.75 74.21875 46.484375 68.546875 
Q 53.21875 62.890625 53.21875 53.421875 
Q 53.21875 48.921875 51.53125 44.890625 
Q 49.859375 40.875 45.40625 35.40625 
Q 44.1875 33.984375 37.640625 27.21875 
Q 31.109375 20.453125 19.1875 8.296875 
z
" id="DejaVuSans-50"/>
      </defs>
      <g transform="translate(400.87875 83.918438)scale(0.2 -0.2)">
       <use xlink:href="#DejaVuSans-48"/>
       <use x="63.623047" xlink:href="#DejaVuSans-46"/>
       <use x="95.410156" xlink:href="#DejaVuSans-50"/>
       <use x="159.033203" xlink:href="#DejaVuSans-48"/>
      </g>
     </g>
    </g>
   </g>
   <g id="patch_63">
    <path d="M 460.11 329.78632 
L 460.11 18.34632 
" style="fill:none;stroke:#000000;stroke-linecap:square;stroke-linejoin:miter;stroke-width:0.8;"/>
   </g>
   <g id="patch_64">
    <path d="M 460.11 329.78632 
L 771.55 329.78632 
" style="fill:none;stroke:#000000;stroke-linecap:square;stroke-linejoin:miter;stroke-width:0.8;"/>
   </g>
  </g>
 </g>
 <defs>
  <clipPath id="p988a3c75da">
   <rect height="311.44" width="311.44" x="460.11" y="18.34632"/>
  </clipPath>
 </defs>
</svg>
