<?xml version="1.0" encoding="utf-8" standalone="no"?>
<!DOCTYPE svg PUBLIC "-//W3C//DTD SVG 1.1//EN"
  "http://www.w3.org/Graphics/SVG/1.1/DTD/svg11.dtd">
<!-- Created with matplotlib (https://matplotlib.org/) -->
<svg height="1389.42pt" version="1.1" viewBox="0 0 2587.7025 1389.42" width="2587.7025pt" xmlns="http://www.w3.org/2000/svg" xmlns:xlink="http://www.w3.org/1999/xlink">
 <defs>
  <style type="text/css">
*{stroke-linecap:butt;stroke-linejoin:round;}
  </style>
 </defs>
 <g id="figure_1">
  <g id="patch_1">
   <path d="M -0 1389.42 
L 2587.7025 1389.42 
L 2587.7025 0 
L -0 0 
z
" style="fill:#ffffff;"/>
  </g>
  <g id="axes_1">
   <g id="patch_2">
    <path d="M 1146.184583 842.376667 
L 1441.517917 842.376667 
L 1441.517917 547.043333 
L 1146.184583 547.043333 
z
" style="fill:#ffffff;"/>
   </g>
   <g id="PolyCollection_1">
    <defs>
     <path d="M 1170.892984 -820.118812 
L 1170.892984 -820.334522 
L 1173.188449 -820.365325 
L 1175.483915 -820.40308 
L 1177.77938 -820.450447 
L 1180.074846 -820.510115 
L 1182.370312 -820.584099 
L 1184.665777 -820.673358 
L 1186.961243 -820.777806 
L 1189.256708 -820.896542 
L 1191.552174 -821.028004 
L 1193.84764 -821.169997 
L 1196.143105 -821.319813 
L 1198.438571 -821.474761 
L 1200.734036 -821.63303 
L 1203.029502 -821.794412 
L 1205.324967 -821.960229 
L 1207.620433 -822.132247 
L 1209.915899 -822.311097 
L 1212.211364 -822.49517 
L 1214.50683 -822.680805 
L 1216.802295 -822.863786 
L 1219.097761 -823.041356 
L 1221.393226 -823.213596 
L 1223.688692 -823.383308 
L 1225.984158 -823.554306 
L 1228.279623 -823.728873 
L 1230.575089 -823.905686 
L 1232.870554 -824.079426 
L 1235.16602 -824.242501 
L 1237.461486 -824.388262 
L 1239.756951 -824.514218 
L 1242.052417 -824.623726 
L 1244.347882 -824.725333 
L 1246.643348 -824.830021 
L 1248.938813 -824.947422 
L 1251.234279 -825.082318 
L 1253.529745 -825.232609 
L 1255.82521 -825.389468 
L 1258.120676 -825.539803 
L 1260.416141 -825.670303 
L 1262.711607 -825.771568 
L 1265.007072 -825.840547 
L 1267.302538 -825.880183 
L 1269.598004 -825.896581 
L 1271.893469 -825.895352 
L 1274.188935 -825.879172 
L 1276.4844 -825.847691 
L 1278.779866 -825.7993 
L 1281.075332 -825.733132 
L 1283.370797 -825.649715 
L 1285.666263 -825.54987 
L 1287.961728 -825.43271 
L 1290.257194 -825.294295 
L 1292.552659 -825.128097 
L 1294.848125 -824.927507 
L 1297.143591 -824.689532 
L 1299.439056 -824.418032 
L 1301.734522 -824.124783 
L 1304.029987 -823.827321 
L 1306.325453 -823.543998 
L 1308.620919 -823.288264 
L 1310.916384 -823.064785 
L 1313.21185 -822.869277 
L 1315.507315 -822.691964 
L 1317.802781 -822.52274 
L 1320.098246 -822.355443 
L 1322.393712 -822.189437 
L 1324.689178 -822.028316 
L 1326.984643 -821.876912 
L 1329.280109 -821.73829 
L 1331.575574 -821.612049 
L 1333.87104 -821.494457 
L 1336.166505 -821.380106 
L 1338.461971 -821.264241 
L 1340.757437 -821.144742 
L 1343.052902 -821.022973 
L 1345.348368 -820.903234 
L 1347.643833 -820.791193 
L 1349.939299 -820.692022 
L 1352.234765 -820.609 
L 1354.53023 -820.54297 
L 1356.825696 -820.492591 
L 1359.121161 -820.455003 
L 1361.416627 -820.426586 
L 1363.712092 -820.403615 
L 1366.007558 -820.382837 
L 1368.303024 -820.361968 
L 1370.598489 -820.340031 
L 1372.893955 -820.317385 
L 1375.18942 -820.295362 
L 1377.484886 -820.275643 
L 1379.780351 -820.259615 
L 1382.075817 -820.247971 
L 1384.371283 -820.240646 
L 1386.666748 -820.236993 
L 1388.962214 -820.236046 
L 1391.257679 -820.236741 
L 1393.553145 -820.23807 
L 1395.848611 -820.239193 
L 1398.144076 -820.239537 
L 1398.144076 -820.213796 
L 1398.144076 -820.213796 
L 1395.848611 -820.21414 
L 1393.553145 -820.215263 
L 1391.257679 -820.216592 
L 1388.962214 -820.217287 
L 1386.666748 -820.21634 
L 1384.371283 -820.212687 
L 1382.075817 -820.205362 
L 1379.780351 -820.193718 
L 1377.484886 -820.17769 
L 1375.18942 -820.157971 
L 1372.893955 -820.135949 
L 1370.598489 -820.113302 
L 1368.303024 -820.091366 
L 1366.007558 -820.070496 
L 1363.712092 -820.049718 
L 1361.416627 -820.026747 
L 1359.121161 -819.99833 
L 1356.825696 -819.960742 
L 1354.53023 -819.910363 
L 1352.234765 -819.844334 
L 1349.939299 -819.761311 
L 1347.643833 -819.66214 
L 1345.348368 -819.5501 
L 1343.052902 -819.430361 
L 1340.757437 -819.308591 
L 1338.461971 -819.189093 
L 1336.166505 -819.073228 
L 1333.87104 -818.958876 
L 1331.575574 -818.841284 
L 1329.280109 -818.715043 
L 1326.984643 -818.576421 
L 1324.689178 -818.425018 
L 1322.393712 -818.263897 
L 1320.098246 -818.09789 
L 1317.802781 -817.930594 
L 1315.507315 -817.76137 
L 1313.21185 -817.584056 
L 1310.916384 -817.388548 
L 1308.620919 -817.16507 
L 1306.325453 -816.909335 
L 1304.029987 -816.626013 
L 1301.734522 -816.32855 
L 1299.439056 -816.035302 
L 1297.143591 -815.763802 
L 1294.848125 -815.525826 
L 1292.552659 -815.325237 
L 1290.257194 -815.159038 
L 1287.961728 -815.020623 
L 1285.666263 -814.903463 
L 1283.370797 -814.803618 
L 1281.075332 -814.720202 
L 1278.779866 -814.654033 
L 1276.4844 -814.605643 
L 1274.188935 -814.574162 
L 1271.893469 -814.557981 
L 1269.598004 -814.556752 
L 1267.302538 -814.57315 
L 1265.007072 -814.612787 
L 1262.711607 -814.681765 
L 1260.416141 -814.78303 
L 1258.120676 -814.91353 
L 1255.82521 -815.063865 
L 1253.529745 -815.220724 
L 1251.234279 -815.371016 
L 1248.938813 -815.505911 
L 1246.643348 -815.623312 
L 1244.347882 -815.728 
L 1242.052417 -815.829607 
L 1239.756951 -815.939115 
L 1237.461486 -816.065072 
L 1235.16602 -816.210832 
L 1232.870554 -816.373907 
L 1230.575089 -816.547647 
L 1228.279623 -816.72446 
L 1225.984158 -816.899027 
L 1223.688692 -817.070025 
L 1221.393226 -817.239738 
L 1219.097761 -817.411977 
L 1216.802295 -817.589547 
L 1214.50683 -817.772528 
L 1212.211364 -817.958164 
L 1209.915899 -818.142236 
L 1207.620433 -818.321086 
L 1205.324967 -818.493105 
L 1203.029502 -818.658921 
L 1200.734036 -818.820303 
L 1198.438571 -818.978572 
L 1196.143105 -819.13352 
L 1193.84764 -819.283337 
L 1191.552174 -819.425329 
L 1189.256708 -819.556792 
L 1186.961243 -819.675528 
L 1184.665777 -819.779976 
L 1182.370312 -819.869235 
L 1180.074846 -819.943219 
L 1177.77938 -820.002886 
L 1175.483915 -820.050254 
L 1173.188449 -820.088009 
L 1170.892984 -820.118812 
z
" id="mfc256fb164" style="stroke:#333333;"/>
    </defs>
    <g clip-path="url(#pb1cef2255a)">
     <use style="fill:#484566;stroke:#333333;" x="0" xlink:href="#mfc256fb164" y="1389.42"/>
    </g>
   </g>
   <g id="PolyCollection_2">
    <defs>
     <path d="M 1161.127703 -789.591919 
L 1161.127703 -791.794748 
L 1162.534821 -792.357588 
L 1163.941939 -793.054115 
L 1165.349057 -793.868918 
L 1166.756175 -794.783947 
L 1168.163293 -795.784164 
L 1169.570411 -796.858528 
L 1170.977529 -797.99651 
L 1172.384647 -799.182176 
L 1173.791765 -800.38832 
L 1175.198884 -801.573455 
L 1176.606002 -802.684237 
L 1178.01312 -803.663288 
L 1179.420238 -804.458854 
L 1180.827356 -805.032626 
L 1182.234474 -805.365235 
L 1183.641592 -805.46 
L 1185.04871 -805.342638 
L 1186.455828 -805.054041 
L 1187.862946 -804.63891 
L 1189.270064 -804.137558 
L 1190.677182 -803.583791 
L 1192.0843 -803.004337 
L 1193.491418 -802.415851 
L 1194.898536 -801.822919 
L 1196.305654 -801.222847 
L 1197.712773 -800.615932 
L 1199.119891 -800.012476 
L 1200.527009 -799.429539 
L 1201.934127 -798.880072 
L 1203.341245 -798.364505 
L 1204.748363 -797.872353 
L 1206.155481 -797.391784 
L 1207.562599 -796.918168 
L 1208.969717 -796.454733 
L 1210.376835 -796.006183 
L 1211.783953 -795.571785 
L 1213.191071 -795.144217 
L 1214.598189 -794.715934 
L 1216.005307 -794.289114 
L 1217.412425 -793.881445 
L 1218.819543 -793.521501 
L 1220.226661 -793.234602 
L 1221.63378 -793.027818 
L 1223.040898 -792.884416 
L 1224.448016 -792.771715 
L 1225.855134 -792.657182 
L 1227.262252 -792.522421 
L 1228.66937 -792.367146 
L 1230.076488 -792.202694 
L 1231.483606 -792.041432 
L 1232.890724 -791.889732 
L 1234.297842 -791.748047 
L 1235.70496 -791.615714 
L 1237.112078 -791.495155 
L 1238.519196 -791.391697 
L 1239.926314 -791.30965 
L 1241.333432 -791.248466 
L 1242.74055 -791.202336 
L 1244.147669 -791.1633 
L 1245.554787 -791.125238 
L 1246.961905 -791.08603 
L 1248.369023 -791.047081 
L 1249.776141 -791.01121 
L 1251.183259 -790.980593 
L 1252.590377 -790.955916 
L 1253.997495 -790.936702 
L 1255.404613 -790.921916 
L 1256.811731 -790.910236 
L 1258.218849 -790.900092 
L 1259.625967 -790.889759 
L 1261.033085 -790.877594 
L 1262.440203 -790.862314 
L 1263.847321 -790.843332 
L 1265.254439 -790.821029 
L 1266.661557 -790.796845 
L 1268.068676 -790.773075 
L 1269.475794 -790.752395 
L 1270.882912 -790.737179 
L 1272.29003 -790.728757 
L 1273.697148 -790.726974 
L 1275.104266 -790.730419 
L 1276.511384 -790.73725 
L 1277.918502 -790.745959 
L 1279.32562 -790.755402 
L 1280.732738 -790.764162 
L 1282.139856 -790.770121 
L 1283.546974 -790.770969 
L 1284.954092 -790.765436 
L 1286.36121 -790.754203 
L 1287.768328 -790.739758 
L 1289.175446 -790.725314 
L 1290.582565 -790.713583 
L 1291.989683 -790.706097 
L 1293.396801 -790.703221 
L 1294.803919 -790.704461 
L 1296.211037 -790.708654 
L 1297.618155 -790.714017 
L 1299.025273 -790.718395 
L 1300.432391 -790.719944 
L 1300.432391 -790.666723 
L 1300.432391 -790.666723 
L 1299.025273 -790.668271 
L 1297.618155 -790.672649 
L 1296.211037 -790.678013 
L 1294.803919 -790.682206 
L 1293.396801 -790.683446 
L 1291.989683 -790.68057 
L 1290.582565 -790.673084 
L 1289.175446 -790.661352 
L 1287.768328 -790.646908 
L 1286.36121 -790.632464 
L 1284.954092 -790.621231 
L 1283.546974 -790.615698 
L 1282.139856 -790.616546 
L 1280.732738 -790.622504 
L 1279.32562 -790.631265 
L 1277.918502 -790.640708 
L 1276.511384 -790.649417 
L 1275.104266 -790.656247 
L 1273.697148 -790.659692 
L 1272.29003 -790.657909 
L 1270.882912 -790.649487 
L 1269.475794 -790.634272 
L 1268.068676 -790.613592 
L 1266.661557 -790.589822 
L 1265.254439 -790.565638 
L 1263.847321 -790.543335 
L 1262.440203 -790.524352 
L 1261.033085 -790.509073 
L 1259.625967 -790.496907 
L 1258.218849 -790.486575 
L 1256.811731 -790.476431 
L 1255.404613 -790.464751 
L 1253.997495 -790.449964 
L 1252.590377 -790.43075 
L 1251.183259 -790.406074 
L 1249.776141 -790.375456 
L 1248.369023 -790.339586 
L 1246.961905 -790.300637 
L 1245.554787 -790.261429 
L 1244.147669 -790.223367 
L 1242.74055 -790.184331 
L 1241.333432 -790.138201 
L 1239.926314 -790.077017 
L 1238.519196 -789.99497 
L 1237.112078 -789.891512 
L 1235.70496 -789.770952 
L 1234.297842 -789.63862 
L 1232.890724 -789.496934 
L 1231.483606 -789.345235 
L 1230.076488 -789.183973 
L 1228.66937 -789.019521 
L 1227.262252 -788.864246 
L 1225.855134 -788.729484 
L 1224.448016 -788.614951 
L 1223.040898 -788.502251 
L 1221.63378 -788.358848 
L 1220.226661 -788.152065 
L 1218.819543 -787.865165 
L 1217.412425 -787.505222 
L 1216.005307 -787.097552 
L 1214.598189 -786.670732 
L 1213.191071 -786.24245 
L 1211.783953 -785.814882 
L 1210.376835 -785.380484 
L 1208.969717 -784.931933 
L 1207.562599 -784.468499 
L 1206.155481 -783.994883 
L 1204.748363 -783.514314 
L 1203.341245 -783.022161 
L 1201.934127 -782.506594 
L 1200.527009 -781.957128 
L 1199.119891 -781.37419 
L 1197.712773 -780.770735 
L 1196.305654 -780.16382 
L 1194.898536 -779.563748 
L 1193.491418 -778.970816 
L 1192.0843 -778.382329 
L 1190.677182 -777.802876 
L 1189.270064 -777.249109 
L 1187.862946 -776.747757 
L 1186.455828 -776.332626 
L 1185.04871 -776.044028 
L 1183.641592 -775.926667 
L 1182.234474 -776.021432 
L 1180.827356 -776.35404 
L 1179.420238 -776.927813 
L 1178.01312 -777.723378 
L 1176.606002 -778.702429 
L 1175.198884 -779.813212 
L 1173.791765 -780.998346 
L 1172.384647 -782.204491 
L 1170.977529 -783.390157 
L 1169.570411 -784.528139 
L 1168.163293 -785.602503 
L 1166.756175 -786.602719 
L 1165.349057 -787.517749 
L 1163.941939 -788.332551 
L 1162.534821 -789.029078 
L 1161.127703 -789.591919 
z
" id="m667d43af04" style="stroke:#333333;"/>
    </defs>
    <g clip-path="url(#pb1cef2255a)">
     <use style="fill:#b75e1a;stroke:#333333;" x="0" xlink:href="#m667d43af04" y="1389.42"/>
    </g>
   </g>
   <g id="PolyCollection_3">
    <defs>
     <path d="M 1176.613104 -736.098225 
L 1176.613104 -756.688441 
L 1177.040796 -756.749053 
L 1177.468488 -756.808367 
L 1177.896179 -756.866377 
L 1178.323871 -756.923078 
L 1178.751563 -756.978465 
L 1179.179255 -757.032537 
L 1179.606947 -757.08529 
L 1180.034639 -757.136724 
L 1180.46233 -757.186837 
L 1180.890022 -757.235629 
L 1181.317714 -757.283102 
L 1181.745406 -757.329257 
L 1182.173098 -757.374095 
L 1182.60079 -757.41762 
L 1183.028481 -757.459835 
L 1183.456173 -757.500744 
L 1183.883865 -757.540351 
L 1184.311557 -757.57866 
L 1184.739249 -757.615678 
L 1185.16694 -757.651409 
L 1185.594632 -757.68586 
L 1186.022324 -757.719037 
L 1186.450016 -757.750946 
L 1186.877708 -757.781593 
L 1187.3054 -757.810987 
L 1187.733091 -757.839133 
L 1188.160783 -757.866039 
L 1188.588475 -757.891711 
L 1189.016167 -757.916158 
L 1189.443859 -757.939385 
L 1189.871551 -757.961401 
L 1190.299242 -757.982211 
L 1190.726934 -758.001823 
L 1191.154626 -758.020244 
L 1191.582318 -758.037479 
L 1192.01001 -758.053535 
L 1192.437701 -758.068418 
L 1192.865393 -758.082133 
L 1193.293085 -758.094685 
L 1193.720777 -758.106081 
L 1194.148469 -758.116323 
L 1194.576161 -758.125416 
L 1195.003852 -758.133364 
L 1195.431544 -758.140171 
L 1195.859236 -758.145839 
L 1196.286928 -758.15037 
L 1196.71462 -758.153766 
L 1197.142311 -758.15603 
L 1197.570003 -758.157162 
L 1197.997695 -758.157162 
L 1198.425387 -758.15603 
L 1198.853079 -758.153766 
L 1199.280771 -758.15037 
L 1199.708462 -758.145839 
L 1200.136154 -758.140171 
L 1200.563846 -758.133364 
L 1200.991538 -758.125416 
L 1201.41923 -758.116323 
L 1201.846922 -758.106081 
L 1202.274613 -758.094685 
L 1202.702305 -758.082133 
L 1203.129997 -758.068418 
L 1203.557689 -758.053535 
L 1203.985381 -758.037479 
L 1204.413072 -758.020244 
L 1204.840764 -758.001823 
L 1205.268456 -757.982211 
L 1205.696148 -757.961401 
L 1206.12384 -757.939385 
L 1206.551532 -757.916158 
L 1206.979223 -757.891711 
L 1207.406915 -757.866039 
L 1207.834607 -757.839133 
L 1208.262299 -757.810987 
L 1208.689991 -757.781593 
L 1209.117683 -757.750946 
L 1209.545374 -757.719037 
L 1209.973066 -757.68586 
L 1210.400758 -757.651409 
L 1210.82845 -757.615678 
L 1211.256142 -757.57866 
L 1211.683833 -757.540351 
L 1212.111525 -757.500744 
L 1212.539217 -757.459835 
L 1212.966909 -757.41762 
L 1213.394601 -757.374095 
L 1213.822293 -757.329257 
L 1214.249984 -757.283102 
L 1214.677676 -757.235629 
L 1215.105368 -757.186837 
L 1215.53306 -757.136724 
L 1215.960752 -757.08529 
L 1216.388443 -757.032537 
L 1216.816135 -756.978465 
L 1217.243827 -756.923078 
L 1217.671519 -756.866377 
L 1218.099211 -756.808367 
L 1218.526903 -756.749053 
L 1218.954594 -756.688441 
L 1218.954594 -736.098225 
L 1218.954594 -736.098225 
L 1218.526903 -736.037613 
L 1218.099211 -735.9783 
L 1217.671519 -735.92029 
L 1217.243827 -735.863589 
L 1216.816135 -735.808201 
L 1216.388443 -735.75413 
L 1215.960752 -735.701376 
L 1215.53306 -735.649943 
L 1215.105368 -735.59983 
L 1214.677676 -735.551037 
L 1214.249984 -735.503565 
L 1213.822293 -735.45741 
L 1213.394601 -735.412572 
L 1212.966909 -735.369046 
L 1212.539217 -735.326831 
L 1212.111525 -735.285923 
L 1211.683833 -735.246316 
L 1211.256142 -735.208006 
L 1210.82845 -735.170989 
L 1210.400758 -735.135257 
L 1209.973066 -735.100806 
L 1209.545374 -735.06763 
L 1209.117683 -735.035721 
L 1208.689991 -735.005073 
L 1208.262299 -734.97568 
L 1207.834607 -734.947534 
L 1207.406915 -734.920628 
L 1206.979223 -734.894955 
L 1206.551532 -734.870509 
L 1206.12384 -734.847281 
L 1205.696148 -734.825266 
L 1205.268456 -734.804455 
L 1204.840764 -734.784843 
L 1204.413072 -734.766423 
L 1203.985381 -734.749188 
L 1203.557689 -734.733132 
L 1203.129997 -734.718249 
L 1202.702305 -734.704534 
L 1202.274613 -734.691981 
L 1201.846922 -734.680586 
L 1201.41923 -734.670344 
L 1200.991538 -734.661251 
L 1200.563846 -734.653302 
L 1200.136154 -734.646496 
L 1199.708462 -734.640828 
L 1199.280771 -734.636297 
L 1198.853079 -734.6329 
L 1198.425387 -734.630637 
L 1197.997695 -734.629505 
L 1197.570003 -734.629505 
L 1197.142311 -734.630637 
L 1196.71462 -734.6329 
L 1196.286928 -734.636297 
L 1195.859236 -734.640828 
L 1195.431544 -734.646496 
L 1195.003852 -734.653302 
L 1194.576161 -734.661251 
L 1194.148469 -734.670344 
L 1193.720777 -734.680586 
L 1193.293085 -734.691981 
L 1192.865393 -734.704534 
L 1192.437701 -734.718249 
L 1192.01001 -734.733132 
L 1191.582318 -734.749188 
L 1191.154626 -734.766423 
L 1190.726934 -734.784843 
L 1190.299242 -734.804455 
L 1189.871551 -734.825266 
L 1189.443859 -734.847281 
L 1189.016167 -734.870509 
L 1188.588475 -734.894955 
L 1188.160783 -734.920628 
L 1187.733091 -734.947534 
L 1187.3054 -734.97568 
L 1186.877708 -735.005073 
L 1186.450016 -735.035721 
L 1186.022324 -735.06763 
L 1185.594632 -735.100806 
L 1185.16694 -735.135257 
L 1184.739249 -735.170989 
L 1184.311557 -735.208006 
L 1183.883865 -735.246316 
L 1183.456173 -735.285923 
L 1183.028481 -735.326831 
L 1182.60079 -735.369046 
L 1182.173098 -735.412572 
L 1181.745406 -735.45741 
L 1181.317714 -735.503565 
L 1180.890022 -735.551037 
L 1180.46233 -735.59983 
L 1180.034639 -735.649943 
L 1179.606947 -735.701376 
L 1179.179255 -735.75413 
L 1178.751563 -735.808201 
L 1178.323871 -735.863589 
L 1177.896179 -735.92029 
L 1177.468488 -735.9783 
L 1177.040796 -736.037613 
L 1176.613104 -736.098225 
z
" id="mbf2dfb0d49" style="stroke:#333333;"/>
    </defs>
    <g clip-path="url(#pb1cef2255a)">
     <use style="fill:#484566;stroke:#333333;" x="0" xlink:href="#mbf2dfb0d49" y="1389.42"/>
    </g>
   </g>
   <g id="PolyCollection_4">
    <defs>
     <path d="M 1159.629676 -704.952348 
L 1159.629676 -728.767652 
L 1160.610997 -729.10015 
L 1161.592318 -729.417861 
L 1162.573639 -729.719263 
L 1163.55496 -730.002891 
L 1164.536281 -730.267361 
L 1165.517601 -730.511368 
L 1166.498922 -730.733708 
L 1167.480243 -730.933281 
L 1168.461564 -731.109104 
L 1169.442885 -731.260317 
L 1170.424206 -731.386192 
L 1171.405527 -731.486139 
L 1172.386848 -731.55971 
L 1173.368169 -731.606603 
L 1174.34949 -731.626667 
L 1175.330811 -731.619899 
L 1176.312132 -731.586449 
L 1177.293453 -731.526616 
L 1178.274774 -731.440844 
L 1179.256094 -731.329724 
L 1180.237415 -731.193982 
L 1181.218736 -731.034479 
L 1182.200057 -730.852202 
L 1183.181378 -730.648256 
L 1184.162699 -730.423853 
L 1185.14402 -730.180308 
L 1186.125341 -729.919022 
L 1187.106662 -729.641478 
L 1188.087983 -729.349224 
L 1189.069304 -729.043862 
L 1190.050625 -728.72704 
L 1191.031946 -728.400436 
L 1192.013267 -728.065746 
L 1192.994587 -727.724673 
L 1193.975908 -727.378915 
L 1194.957229 -727.030152 
L 1195.93855 -726.680035 
L 1196.919871 -726.330177 
L 1197.901192 -725.982139 
L 1198.882513 -725.637421 
L 1199.863834 -725.297458 
L 1200.845155 -724.963604 
L 1201.826476 -724.63713 
L 1202.807797 -724.319214 
L 1203.789118 -724.010937 
L 1204.770439 -723.71328 
L 1205.75176 -723.427116 
L 1206.73308 -723.15321 
L 1207.714401 -722.892217 
L 1208.695722 -722.64468 
L 1209.677043 -722.411032 
L 1210.658364 -722.191593 
L 1211.639685 -721.986578 
L 1212.621006 -721.796092 
L 1213.602327 -721.620141 
L 1214.583648 -721.458632 
L 1215.564969 -721.311376 
L 1216.54629 -721.178099 
L 1217.527611 -721.058444 
L 1218.508932 -720.951976 
L 1219.490253 -720.858194 
L 1220.471573 -720.776532 
L 1221.452894 -720.706369 
L 1222.434215 -720.647039 
L 1223.415536 -720.597831 
L 1224.396857 -720.558003 
L 1225.378178 -720.526787 
L 1226.359499 -720.503394 
L 1227.34082 -720.487025 
L 1228.322141 -720.476873 
L 1229.303462 -720.472132 
L 1230.284783 -720.472001 
L 1231.266104 -720.475693 
L 1232.247425 -720.482435 
L 1233.228746 -720.491476 
L 1234.210067 -720.502092 
L 1235.191387 -720.513587 
L 1236.172708 -720.525298 
L 1237.154029 -720.536596 
L 1238.13535 -720.546893 
L 1239.116671 -720.55564 
L 1240.097992 -720.562327 
L 1241.079313 -720.566491 
L 1242.060634 -720.567711 
L 1243.041955 -720.565611 
L 1244.023276 -720.559861 
L 1245.004597 -720.550173 
L 1245.985918 -720.536308 
L 1246.967239 -720.518067 
L 1247.94856 -720.495298 
L 1248.92988 -720.467889 
L 1249.911201 -720.435772 
L 1250.892522 -720.398917 
L 1251.873843 -720.357333 
L 1252.855164 -720.311066 
L 1253.836485 -720.2602 
L 1254.817806 -720.204849 
L 1255.799127 -720.145159 
L 1256.780448 -720.081308 
L 1256.780448 -713.638692 
L 1256.780448 -713.638692 
L 1255.799127 -713.574841 
L 1254.817806 -713.515151 
L 1253.836485 -713.4598 
L 1252.855164 -713.408934 
L 1251.873843 -713.362667 
L 1250.892522 -713.321083 
L 1249.911201 -713.284228 
L 1248.92988 -713.252111 
L 1247.94856 -713.224702 
L 1246.967239 -713.201933 
L 1245.985918 -713.183692 
L 1245.004597 -713.169827 
L 1244.023276 -713.160139 
L 1243.041955 -713.154389 
L 1242.060634 -713.152289 
L 1241.079313 -713.153509 
L 1240.097992 -713.157673 
L 1239.116671 -713.16436 
L 1238.13535 -713.173107 
L 1237.154029 -713.183404 
L 1236.172708 -713.194702 
L 1235.191387 -713.206413 
L 1234.210067 -713.217908 
L 1233.228746 -713.228524 
L 1232.247425 -713.237565 
L 1231.266104 -713.244307 
L 1230.284783 -713.247999 
L 1229.303462 -713.247868 
L 1228.322141 -713.243127 
L 1227.34082 -713.232975 
L 1226.359499 -713.216606 
L 1225.378178 -713.193213 
L 1224.396857 -713.161997 
L 1223.415536 -713.122169 
L 1222.434215 -713.072961 
L 1221.452894 -713.013631 
L 1220.471573 -712.943468 
L 1219.490253 -712.861806 
L 1218.508932 -712.768024 
L 1217.527611 -712.661556 
L 1216.54629 -712.541901 
L 1215.564969 -712.408624 
L 1214.583648 -712.261368 
L 1213.602327 -712.099859 
L 1212.621006 -711.923908 
L 1211.639685 -711.733422 
L 1210.658364 -711.528407 
L 1209.677043 -711.308968 
L 1208.695722 -711.07532 
L 1207.714401 -710.827783 
L 1206.73308 -710.56679 
L 1205.75176 -710.292884 
L 1204.770439 -710.00672 
L 1203.789118 -709.709063 
L 1202.807797 -709.400786 
L 1201.826476 -709.08287 
L 1200.845155 -708.756396 
L 1199.863834 -708.422542 
L 1198.882513 -708.082579 
L 1197.901192 -707.737861 
L 1196.919871 -707.389823 
L 1195.93855 -707.039965 
L 1194.957229 -706.689848 
L 1193.975908 -706.341085 
L 1192.994587 -705.995327 
L 1192.013267 -705.654254 
L 1191.031946 -705.319564 
L 1190.050625 -704.99296 
L 1189.069304 -704.676138 
L 1188.087983 -704.370776 
L 1187.106662 -704.078522 
L 1186.125341 -703.800978 
L 1185.14402 -703.539692 
L 1184.162699 -703.296147 
L 1183.181378 -703.071744 
L 1182.200057 -702.867798 
L 1181.218736 -702.685521 
L 1180.237415 -702.526018 
L 1179.256094 -702.390276 
L 1178.274774 -702.279156 
L 1177.293453 -702.193384 
L 1176.312132 -702.133551 
L 1175.330811 -702.100101 
L 1174.34949 -702.093333 
L 1173.368169 -702.113397 
L 1172.386848 -702.16029 
L 1171.405527 -702.233861 
L 1170.424206 -702.333808 
L 1169.442885 -702.459683 
L 1168.461564 -702.610896 
L 1167.480243 -702.786719 
L 1166.498922 -702.986292 
L 1165.517601 -703.208632 
L 1164.536281 -703.452639 
L 1163.55496 -703.717109 
L 1162.573639 -704.000737 
L 1161.592318 -704.302139 
L 1160.610997 -704.61985 
L 1159.629676 -704.952348 
z
" id="m12abf5db3e" style="stroke:#333333;"/>
    </defs>
    <g clip-path="url(#pb1cef2255a)">
     <use style="fill:#b75e1a;stroke:#333333;" x="0" xlink:href="#m12abf5db3e" y="1389.42"/>
    </g>
   </g>
   <g id="patch_3">
    <path clip-path="url(#pb1cef2255a)" d="M 1159.608826 583.96 
L 1159.608826 583.96 
L 1159.608826 583.96 
L 1159.608826 583.96 
z
" style="fill:#484566;stroke:#333333;stroke-linejoin:miter;stroke-width:0.5;"/>
   </g>
   <g id="patch_4">
    <path clip-path="url(#pb1cef2255a)" d="M 1159.608826 583.96 
L 1159.608826 583.96 
L 1159.608826 583.96 
L 1159.608826 583.96 
z
" style="fill:#b75e1a;stroke:#333333;stroke-linejoin:miter;stroke-width:0.5;"/>
   </g>
   <g id="matplotlib.axis_1">
    <g id="xtick_1">
     <g id="line2d_1">
      <defs>
       <path d="M 0 0 
L 0 3.5 
" id="m85851b8f3c" style="stroke:#000000;stroke-width:1.6;"/>
      </defs>
      <g>
       <use style="stroke:#000000;stroke-width:1.6;" x="1159.608826" xlink:href="#m85851b8f3c" y="842.376667"/>
      </g>
     </g>
     <g id="text_1">
      <!-- 0.0 -->
      <defs>
       <path d="M 31.78125 66.40625 
Q 24.171875 66.40625 20.328125 58.90625 
Q 16.5 51.421875 16.5 36.375 
Q 16.5 21.390625 20.328125 13.890625 
Q 24.171875 6.390625 31.78125 6.390625 
Q 39.453125 6.390625 43.28125 13.890625 
Q 47.125 21.390625 47.125 36.375 
Q 47.125 51.421875 43.28125 58.90625 
Q 39.453125 66.40625 31.78125 66.40625 
z
M 31.78125 74.21875 
Q 44.046875 74.21875 50.515625 64.515625 
Q 56.984375 54.828125 56.984375 36.375 
Q 56.984375 17.96875 50.515625 8.265625 
Q 44.046875 -1.421875 31.78125 -1.421875 
Q 19.53125 -1.421875 13.0625 8.265625 
Q 6.59375 17.96875 6.59375 36.375 
Q 6.59375 54.828125 13.0625 64.515625 
Q 19.53125 74.21875 31.78125 74.21875 
z
" id="DejaVuSans-48"/>
       <path d="M 10.6875 12.40625 
L 21 12.40625 
L 21 0 
L 10.6875 0 
z
" id="DejaVuSans-46"/>
      </defs>
      <g transform="translate(1143.705701 872.273542)scale(0.2 -0.2)">
       <use xlink:href="#DejaVuSans-48"/>
       <use x="63.623047" xlink:href="#DejaVuSans-46"/>
       <use x="95.410156" xlink:href="#DejaVuSans-48"/>
      </g>
     </g>
    </g>
    <g id="xtick_2">
     <g id="line2d_2">
      <g>
       <use style="stroke:#000000;stroke-width:1.6;" x="1293.85125" xlink:href="#m85851b8f3c" y="842.376667"/>
      </g>
     </g>
     <g id="text_2">
      <!-- 0.5 -->
      <defs>
       <path d="M 10.796875 72.90625 
L 49.515625 72.90625 
L 49.515625 64.59375 
L 19.828125 64.59375 
L 19.828125 46.734375 
Q 21.96875 47.46875 24.109375 47.828125 
Q 26.265625 48.1875 28.421875 48.1875 
Q 40.625 48.1875 47.75 41.5 
Q 54.890625 34.8125 54.890625 23.390625 
Q 54.890625 11.625 47.5625 5.09375 
Q 40.234375 -1.421875 26.90625 -1.421875 
Q 22.3125 -1.421875 17.546875 -0.640625 
Q 12.796875 0.140625 7.71875 1.703125 
L 7.71875 11.625 
Q 12.109375 9.234375 16.796875 8.0625 
Q 21.484375 6.890625 26.703125 6.890625 
Q 35.15625 6.890625 40.078125 11.328125 
Q 45.015625 15.765625 45.015625 23.390625 
Q 45.015625 31 40.078125 35.4375 
Q 35.15625 39.890625 26.703125 39.890625 
Q 22.75 39.890625 18.8125 39.015625 
Q 14.890625 38.140625 10.796875 36.28125 
z
" id="DejaVuSans-53"/>
      </defs>
      <g transform="translate(1277.948125 872.273542)scale(0.2 -0.2)">
       <use xlink:href="#DejaVuSans-48"/>
       <use x="63.623047" xlink:href="#DejaVuSans-46"/>
       <use x="95.410156" xlink:href="#DejaVuSans-53"/>
      </g>
     </g>
    </g>
    <g id="xtick_3">
     <g id="line2d_3">
      <g>
       <use style="stroke:#000000;stroke-width:1.6;" x="1428.093674" xlink:href="#m85851b8f3c" y="842.376667"/>
      </g>
     </g>
     <g id="text_3">
      <!-- 1.0 -->
      <defs>
       <path d="M 12.40625 8.296875 
L 28.515625 8.296875 
L 28.515625 63.921875 
L 10.984375 60.40625 
L 10.984375 69.390625 
L 28.421875 72.90625 
L 38.28125 72.90625 
L 38.28125 8.296875 
L 54.390625 8.296875 
L 54.390625 0 
L 12.40625 0 
z
" id="DejaVuSans-49"/>
      </defs>
      <g transform="translate(1412.190549 872.273542)scale(0.2 -0.2)">
       <use xlink:href="#DejaVuSans-49"/>
       <use x="63.623047" xlink:href="#DejaVuSans-46"/>
       <use x="95.410156" xlink:href="#DejaVuSans-48"/>
      </g>
     </g>
    </g>
    <g id="text_4">
     <!-- Median Output Difference -->
     <defs>
      <path d="M 9.8125 72.90625 
L 24.515625 72.90625 
L 43.109375 23.296875 
L 61.8125 72.90625 
L 76.515625 72.90625 
L 76.515625 0 
L 66.890625 0 
L 66.890625 64.015625 
L 48.09375 14.015625 
L 38.1875 14.015625 
L 19.390625 64.015625 
L 19.390625 0 
L 9.8125 0 
z
" id="DejaVuSans-77"/>
      <path d="M 56.203125 29.59375 
L 56.203125 25.203125 
L 14.890625 25.203125 
Q 15.484375 15.921875 20.484375 11.0625 
Q 25.484375 6.203125 34.421875 6.203125 
Q 39.59375 6.203125 44.453125 7.46875 
Q 49.3125 8.734375 54.109375 11.28125 
L 54.109375 2.78125 
Q 49.265625 0.734375 44.1875 -0.34375 
Q 39.109375 -1.421875 33.890625 -1.421875 
Q 20.796875 -1.421875 13.15625 6.1875 
Q 5.515625 13.8125 5.515625 26.8125 
Q 5.515625 40.234375 12.765625 48.109375 
Q 20.015625 56 32.328125 56 
Q 43.359375 56 49.78125 48.890625 
Q 56.203125 41.796875 56.203125 29.59375 
z
M 47.21875 32.234375 
Q 47.125 39.59375 43.09375 43.984375 
Q 39.0625 48.390625 32.421875 48.390625 
Q 24.90625 48.390625 20.390625 44.140625 
Q 15.875 39.890625 15.1875 32.171875 
z
" id="DejaVuSans-101"/>
      <path d="M 45.40625 46.390625 
L 45.40625 75.984375 
L 54.390625 75.984375 
L 54.390625 0 
L 45.40625 0 
L 45.40625 8.203125 
Q 42.578125 3.328125 38.25 0.953125 
Q 33.9375 -1.421875 27.875 -1.421875 
Q 17.96875 -1.421875 11.734375 6.484375 
Q 5.515625 14.40625 5.515625 27.296875 
Q 5.515625 40.1875 11.734375 48.09375 
Q 17.96875 56 27.875 56 
Q 33.9375 56 38.25 53.625 
Q 42.578125 51.265625 45.40625 46.390625 
z
M 14.796875 27.296875 
Q 14.796875 17.390625 18.875 11.75 
Q 22.953125 6.109375 30.078125 6.109375 
Q 37.203125 6.109375 41.296875 11.75 
Q 45.40625 17.390625 45.40625 27.296875 
Q 45.40625 37.203125 41.296875 42.84375 
Q 37.203125 48.484375 30.078125 48.484375 
Q 22.953125 48.484375 18.875 42.84375 
Q 14.796875 37.203125 14.796875 27.296875 
z
" id="DejaVuSans-100"/>
      <path d="M 9.421875 54.6875 
L 18.40625 54.6875 
L 18.40625 0 
L 9.421875 0 
z
M 9.421875 75.984375 
L 18.40625 75.984375 
L 18.40625 64.59375 
L 9.421875 64.59375 
z
" id="DejaVuSans-105"/>
      <path d="M 34.28125 27.484375 
Q 23.390625 27.484375 19.1875 25 
Q 14.984375 22.515625 14.984375 16.5 
Q 14.984375 11.71875 18.140625 8.90625 
Q 21.296875 6.109375 26.703125 6.109375 
Q 34.1875 6.109375 38.703125 11.40625 
Q 43.21875 16.703125 43.21875 25.484375 
L 43.21875 27.484375 
z
M 52.203125 31.203125 
L 52.203125 0 
L 43.21875 0 
L 43.21875 8.296875 
Q 40.140625 3.328125 35.546875 0.953125 
Q 30.953125 -1.421875 24.3125 -1.421875 
Q 15.921875 -1.421875 10.953125 3.296875 
Q 6 8.015625 6 15.921875 
Q 6 25.140625 12.171875 29.828125 
Q 18.359375 34.515625 30.609375 34.515625 
L 43.21875 34.515625 
L 43.21875 35.40625 
Q 43.21875 41.609375 39.140625 45 
Q 35.0625 48.390625 27.6875 48.390625 
Q 23 48.390625 18.546875 47.265625 
Q 14.109375 46.140625 10.015625 43.890625 
L 10.015625 52.203125 
Q 14.9375 54.109375 19.578125 55.046875 
Q 24.21875 56 28.609375 56 
Q 40.484375 56 46.34375 49.84375 
Q 52.203125 43.703125 52.203125 31.203125 
z
" id="DejaVuSans-97"/>
      <path d="M 54.890625 33.015625 
L 54.890625 0 
L 45.90625 0 
L 45.90625 32.71875 
Q 45.90625 40.484375 42.875 44.328125 
Q 39.84375 48.1875 33.796875 48.1875 
Q 26.515625 48.1875 22.3125 43.546875 
Q 18.109375 38.921875 18.109375 30.90625 
L 18.109375 0 
L 9.078125 0 
L 9.078125 54.6875 
L 18.109375 54.6875 
L 18.109375 46.1875 
Q 21.34375 51.125 25.703125 53.5625 
Q 30.078125 56 35.796875 56 
Q 45.21875 56 50.046875 50.171875 
Q 54.890625 44.34375 54.890625 33.015625 
z
" id="DejaVuSans-110"/>
      <path id="DejaVuSans-32"/>
      <path d="M 39.40625 66.21875 
Q 28.65625 66.21875 22.328125 58.203125 
Q 16.015625 50.203125 16.015625 36.375 
Q 16.015625 22.609375 22.328125 14.59375 
Q 28.65625 6.59375 39.40625 6.59375 
Q 50.140625 6.59375 56.421875 14.59375 
Q 62.703125 22.609375 62.703125 36.375 
Q 62.703125 50.203125 56.421875 58.203125 
Q 50.140625 66.21875 39.40625 66.21875 
z
M 39.40625 74.21875 
Q 54.734375 74.21875 63.90625 63.9375 
Q 73.09375 53.65625 73.09375 36.375 
Q 73.09375 19.140625 63.90625 8.859375 
Q 54.734375 -1.421875 39.40625 -1.421875 
Q 24.03125 -1.421875 14.8125 8.828125 
Q 5.609375 19.09375 5.609375 36.375 
Q 5.609375 53.65625 14.8125 63.9375 
Q 24.03125 74.21875 39.40625 74.21875 
z
" id="DejaVuSans-79"/>
      <path d="M 8.5 21.578125 
L 8.5 54.6875 
L 17.484375 54.6875 
L 17.484375 21.921875 
Q 17.484375 14.15625 20.5 10.265625 
Q 23.53125 6.390625 29.59375 6.390625 
Q 36.859375 6.390625 41.078125 11.03125 
Q 45.3125 15.671875 45.3125 23.6875 
L 45.3125 54.6875 
L 54.296875 54.6875 
L 54.296875 0 
L 45.3125 0 
L 45.3125 8.40625 
Q 42.046875 3.421875 37.71875 1 
Q 33.40625 -1.421875 27.6875 -1.421875 
Q 18.265625 -1.421875 13.375 4.4375 
Q 8.5 10.296875 8.5 21.578125 
z
M 31.109375 56 
z
" id="DejaVuSans-117"/>
      <path d="M 18.3125 70.21875 
L 18.3125 54.6875 
L 36.8125 54.6875 
L 36.8125 47.703125 
L 18.3125 47.703125 
L 18.3125 18.015625 
Q 18.3125 11.328125 20.140625 9.421875 
Q 21.96875 7.515625 27.59375 7.515625 
L 36.8125 7.515625 
L 36.8125 0 
L 27.59375 0 
Q 17.1875 0 13.234375 3.875 
Q 9.28125 7.765625 9.28125 18.015625 
L 9.28125 47.703125 
L 2.6875 47.703125 
L 2.6875 54.6875 
L 9.28125 54.6875 
L 9.28125 70.21875 
z
" id="DejaVuSans-116"/>
      <path d="M 18.109375 8.203125 
L 18.109375 -20.796875 
L 9.078125 -20.796875 
L 9.078125 54.6875 
L 18.109375 54.6875 
L 18.109375 46.390625 
Q 20.953125 51.265625 25.265625 53.625 
Q 29.59375 56 35.59375 56 
Q 45.5625 56 51.78125 48.09375 
Q 58.015625 40.1875 58.015625 27.296875 
Q 58.015625 14.40625 51.78125 6.484375 
Q 45.5625 -1.421875 35.59375 -1.421875 
Q 29.59375 -1.421875 25.265625 0.953125 
Q 20.953125 3.328125 18.109375 8.203125 
z
M 48.6875 27.296875 
Q 48.6875 37.203125 44.609375 42.84375 
Q 40.53125 48.484375 33.40625 48.484375 
Q 26.265625 48.484375 22.1875 42.84375 
Q 18.109375 37.203125 18.109375 27.296875 
Q 18.109375 17.390625 22.1875 11.75 
Q 26.265625 6.109375 33.40625 6.109375 
Q 40.53125 6.109375 44.609375 11.75 
Q 48.6875 17.390625 48.6875 27.296875 
z
" id="DejaVuSans-112"/>
      <path d="M 19.671875 64.796875 
L 19.671875 8.109375 
L 31.59375 8.109375 
Q 46.6875 8.109375 53.6875 14.9375 
Q 60.6875 21.78125 60.6875 36.53125 
Q 60.6875 51.171875 53.6875 57.984375 
Q 46.6875 64.796875 31.59375 64.796875 
z
M 9.8125 72.90625 
L 30.078125 72.90625 
Q 51.265625 72.90625 61.171875 64.09375 
Q 71.09375 55.28125 71.09375 36.53125 
Q 71.09375 17.671875 61.125 8.828125 
Q 51.171875 0 30.078125 0 
L 9.8125 0 
z
" id="DejaVuSans-68"/>
      <path d="M 37.109375 75.984375 
L 37.109375 68.5 
L 28.515625 68.5 
Q 23.6875 68.5 21.796875 66.546875 
Q 19.921875 64.59375 19.921875 59.515625 
L 19.921875 54.6875 
L 34.71875 54.6875 
L 34.71875 47.703125 
L 19.921875 47.703125 
L 19.921875 0 
L 10.890625 0 
L 10.890625 47.703125 
L 2.296875 47.703125 
L 2.296875 54.6875 
L 10.890625 54.6875 
L 10.890625 58.5 
Q 10.890625 67.625 15.140625 71.796875 
Q 19.390625 75.984375 28.609375 75.984375 
z
" id="DejaVuSans-102"/>
      <path d="M 41.109375 46.296875 
Q 39.59375 47.171875 37.8125 47.578125 
Q 36.03125 48 33.890625 48 
Q 26.265625 48 22.1875 43.046875 
Q 18.109375 38.09375 18.109375 28.8125 
L 18.109375 0 
L 9.078125 0 
L 9.078125 54.6875 
L 18.109375 54.6875 
L 18.109375 46.1875 
Q 20.953125 51.171875 25.484375 53.578125 
Q 30.03125 56 36.53125 56 
Q 37.453125 56 38.578125 55.875 
Q 39.703125 55.765625 41.0625 55.515625 
z
" id="DejaVuSans-114"/>
      <path d="M 48.78125 52.59375 
L 48.78125 44.1875 
Q 44.96875 46.296875 41.140625 47.34375 
Q 37.3125 48.390625 33.40625 48.390625 
Q 24.65625 48.390625 19.8125 42.84375 
Q 14.984375 37.3125 14.984375 27.296875 
Q 14.984375 17.28125 19.8125 11.734375 
Q 24.65625 6.203125 33.40625 6.203125 
Q 37.3125 6.203125 41.140625 7.25 
Q 44.96875 8.296875 48.78125 10.40625 
L 48.78125 2.09375 
Q 45.015625 0.34375 40.984375 -0.53125 
Q 36.96875 -1.421875 32.421875 -1.421875 
Q 20.0625 -1.421875 12.78125 6.34375 
Q 5.515625 14.109375 5.515625 27.296875 
Q 5.515625 40.671875 12.859375 48.328125 
Q 20.21875 56 33.015625 56 
Q 37.15625 56 41.109375 55.140625 
Q 45.0625 54.296875 48.78125 52.59375 
z
" id="DejaVuSans-99"/>
     </defs>
     <g transform="translate(1164.46375 895.629792)scale(0.2 -0.2)">
      <use xlink:href="#DejaVuSans-77"/>
      <use x="86.279297" xlink:href="#DejaVuSans-101"/>
      <use x="147.802734" xlink:href="#DejaVuSans-100"/>
      <use x="211.279297" xlink:href="#DejaVuSans-105"/>
      <use x="239.0625" xlink:href="#DejaVuSans-97"/>
      <use x="300.341797" xlink:href="#DejaVuSans-110"/>
      <use x="363.720703" xlink:href="#DejaVuSans-32"/>
      <use x="395.507812" xlink:href="#DejaVuSans-79"/>
      <use x="474.21875" xlink:href="#DejaVuSans-117"/>
      <use x="537.597656" xlink:href="#DejaVuSans-116"/>
      <use x="576.806641" xlink:href="#DejaVuSans-112"/>
      <use x="640.283203" xlink:href="#DejaVuSans-117"/>
      <use x="703.662109" xlink:href="#DejaVuSans-116"/>
      <use x="742.871094" xlink:href="#DejaVuSans-32"/>
      <use x="774.658203" xlink:href="#DejaVuSans-68"/>
      <use x="851.660156" xlink:href="#DejaVuSans-105"/>
      <use x="879.443359" xlink:href="#DejaVuSans-102"/>
      <use x="914.648438" xlink:href="#DejaVuSans-102"/>
      <use x="949.853516" xlink:href="#DejaVuSans-101"/>
      <use x="1011.376953" xlink:href="#DejaVuSans-114"/>
      <use x="1052.458984" xlink:href="#DejaVuSans-101"/>
      <use x="1113.982422" xlink:href="#DejaVuSans-110"/>
      <use x="1177.361328" xlink:href="#DejaVuSans-99"/>
      <use x="1232.341797" xlink:href="#DejaVuSans-101"/>
     </g>
    </g>
   </g>
   <g id="matplotlib.axis_2">
    <g id="ytick_1">
     <g id="line2d_4">
      <defs>
       <path d="M 0 0 
L -3.5 0 
" id="m1b17a77736" style="stroke:#000000;stroke-width:1.6;"/>
      </defs>
      <g>
       <use style="stroke:#000000;stroke-width:1.6;" x="1146.184583" xlink:href="#m1b17a77736" y="583.96"/>
      </g>
     </g>
     <g id="text_5">
      <!-- [0.00, -->
      <defs>
       <path d="M 8.59375 75.984375 
L 29.296875 75.984375 
L 29.296875 69 
L 17.578125 69 
L 17.578125 -6.203125 
L 29.296875 -6.203125 
L 29.296875 -13.1875 
L 8.59375 -13.1875 
z
" id="DejaVuSans-91"/>
       <path d="M 11.71875 12.40625 
L 22.015625 12.40625 
L 22.015625 4 
L 14.015625 -11.625 
L 7.71875 -11.625 
L 11.71875 4 
z
" id="DejaVuSans-44"/>
      </defs>
      <g transform="translate(1072.793958 580.360625)scale(0.2 -0.2)">
       <use xlink:href="#DejaVuSans-91"/>
       <use x="39.013672" xlink:href="#DejaVuSans-48"/>
       <use x="102.636719" xlink:href="#DejaVuSans-46"/>
       <use x="134.423828" xlink:href="#DejaVuSans-48"/>
       <use x="198.046875" xlink:href="#DejaVuSans-48"/>
       <use x="261.669922" xlink:href="#DejaVuSans-44"/>
      </g>
      <!-- 0.25) -->
      <defs>
       <path d="M 19.1875 8.296875 
L 53.609375 8.296875 
L 53.609375 0 
L 7.328125 0 
L 7.328125 8.296875 
Q 12.9375 14.109375 22.625 23.890625 
Q 32.328125 33.6875 34.8125 36.53125 
Q 39.546875 41.84375 41.421875 45.53125 
Q 43.3125 49.21875 43.3125 52.78125 
Q 43.3125 58.59375 39.234375 62.25 
Q 35.15625 65.921875 28.609375 65.921875 
Q 23.96875 65.921875 18.8125 64.3125 
Q 13.671875 62.703125 7.8125 59.421875 
L 7.8125 69.390625 
Q 13.765625 71.78125 18.9375 73 
Q 24.125 74.21875 28.421875 74.21875 
Q 39.75 74.21875 46.484375 68.546875 
Q 53.21875 62.890625 53.21875 53.421875 
Q 53.21875 48.921875 51.53125 44.890625 
Q 49.859375 40.875 45.40625 35.40625 
Q 44.1875 33.984375 37.640625 27.21875 
Q 31.109375 20.453125 19.1875 8.296875 
z
" id="DejaVuSans-50"/>
       <path d="M 8.015625 75.875 
L 15.828125 75.875 
Q 23.140625 64.359375 26.78125 53.3125 
Q 30.421875 42.28125 30.421875 31.390625 
Q 30.421875 20.453125 26.78125 9.375 
Q 23.140625 -1.703125 15.828125 -13.1875 
L 8.015625 -13.1875 
Q 14.5 -2 17.703125 9.0625 
Q 20.90625 20.125 20.90625 31.390625 
Q 20.90625 42.671875 17.703125 53.65625 
Q 14.5 64.65625 8.015625 75.875 
z
" id="DejaVuSans-41"/>
      </defs>
      <g transform="translate(1079.150208 602.75625)scale(0.2 -0.2)">
       <use xlink:href="#DejaVuSans-48"/>
       <use x="63.623047" xlink:href="#DejaVuSans-46"/>
       <use x="95.410156" xlink:href="#DejaVuSans-50"/>
       <use x="159.033203" xlink:href="#DejaVuSans-53"/>
       <use x="222.65625" xlink:href="#DejaVuSans-41"/>
      </g>
     </g>
    </g>
    <g id="ytick_2">
     <g id="line2d_5">
      <g>
       <use style="stroke:#000000;stroke-width:1.6;" x="1146.184583" xlink:href="#m1b17a77736" y="657.793333"/>
      </g>
     </g>
     <g id="text_6">
      <!-- [0.25, -->
      <g transform="translate(1072.793958 654.193958)scale(0.2 -0.2)">
       <use xlink:href="#DejaVuSans-91"/>
       <use x="39.013672" xlink:href="#DejaVuSans-48"/>
       <use x="102.636719" xlink:href="#DejaVuSans-46"/>
       <use x="134.423828" xlink:href="#DejaVuSans-50"/>
       <use x="198.046875" xlink:href="#DejaVuSans-53"/>
       <use x="261.669922" xlink:href="#DejaVuSans-44"/>
      </g>
      <!-- 0.50) -->
      <g transform="translate(1079.150208 676.589583)scale(0.2 -0.2)">
       <use xlink:href="#DejaVuSans-48"/>
       <use x="63.623047" xlink:href="#DejaVuSans-46"/>
       <use x="95.410156" xlink:href="#DejaVuSans-53"/>
       <use x="159.033203" xlink:href="#DejaVuSans-48"/>
       <use x="222.65625" xlink:href="#DejaVuSans-41"/>
      </g>
     </g>
    </g>
    <g id="ytick_3">
     <g id="line2d_6">
      <g>
       <use style="stroke:#000000;stroke-width:1.6;" x="1146.184583" xlink:href="#m1b17a77736" y="731.626667"/>
      </g>
     </g>
     <g id="text_7">
      <!-- [0.50, -->
      <g transform="translate(1072.793958 728.027292)scale(0.2 -0.2)">
       <use xlink:href="#DejaVuSans-91"/>
       <use x="39.013672" xlink:href="#DejaVuSans-48"/>
       <use x="102.636719" xlink:href="#DejaVuSans-46"/>
       <use x="134.423828" xlink:href="#DejaVuSans-53"/>
       <use x="198.046875" xlink:href="#DejaVuSans-48"/>
       <use x="261.669922" xlink:href="#DejaVuSans-44"/>
      </g>
      <!-- 0.75) -->
      <defs>
       <path d="M 8.203125 72.90625 
L 55.078125 72.90625 
L 55.078125 68.703125 
L 28.609375 0 
L 18.3125 0 
L 43.21875 64.59375 
L 8.203125 64.59375 
z
" id="DejaVuSans-55"/>
      </defs>
      <g transform="translate(1079.150208 750.422917)scale(0.2 -0.2)">
       <use xlink:href="#DejaVuSans-48"/>
       <use x="63.623047" xlink:href="#DejaVuSans-46"/>
       <use x="95.410156" xlink:href="#DejaVuSans-55"/>
       <use x="159.033203" xlink:href="#DejaVuSans-53"/>
       <use x="222.65625" xlink:href="#DejaVuSans-41"/>
      </g>
     </g>
    </g>
    <g id="ytick_4">
     <g id="line2d_7">
      <g>
       <use style="stroke:#000000;stroke-width:1.6;" x="1146.184583" xlink:href="#m1b17a77736" y="805.46"/>
      </g>
     </g>
     <g id="text_8">
      <!-- [0.75, -->
      <g transform="translate(1072.793958 801.860625)scale(0.2 -0.2)">
       <use xlink:href="#DejaVuSans-91"/>
       <use x="39.013672" xlink:href="#DejaVuSans-48"/>
       <use x="102.636719" xlink:href="#DejaVuSans-46"/>
       <use x="134.423828" xlink:href="#DejaVuSans-55"/>
       <use x="198.046875" xlink:href="#DejaVuSans-53"/>
       <use x="261.669922" xlink:href="#DejaVuSans-44"/>
      </g>
      <!-- 1.00) -->
      <g transform="translate(1079.150208 824.25625)scale(0.2 -0.2)">
       <use xlink:href="#DejaVuSans-49"/>
       <use x="63.623047" xlink:href="#DejaVuSans-46"/>
       <use x="95.410156" xlink:href="#DejaVuSans-48"/>
       <use x="159.033203" xlink:href="#DejaVuSans-48"/>
       <use x="222.65625" xlink:href="#DejaVuSans-41"/>
      </g>
     </g>
    </g>
    <g id="text_9">
     <!-- Max attention -->
     <defs>
      <path d="M 54.890625 54.6875 
L 35.109375 28.078125 
L 55.90625 0 
L 45.3125 0 
L 29.390625 21.484375 
L 13.484375 0 
L 2.875 0 
L 24.125 28.609375 
L 4.6875 54.6875 
L 15.28125 54.6875 
L 29.78125 35.203125 
L 44.28125 54.6875 
z
" id="DejaVuSans-120"/>
      <path d="M 30.609375 48.390625 
Q 23.390625 48.390625 19.1875 42.75 
Q 14.984375 37.109375 14.984375 27.296875 
Q 14.984375 17.484375 19.15625 11.84375 
Q 23.34375 6.203125 30.609375 6.203125 
Q 37.796875 6.203125 41.984375 11.859375 
Q 46.1875 17.53125 46.1875 27.296875 
Q 46.1875 37.015625 41.984375 42.703125 
Q 37.796875 48.390625 30.609375 48.390625 
z
M 30.609375 56 
Q 42.328125 56 49.015625 48.375 
Q 55.71875 40.765625 55.71875 27.296875 
Q 55.71875 13.875 49.015625 6.21875 
Q 42.328125 -1.421875 30.609375 -1.421875 
Q 18.84375 -1.421875 12.171875 6.21875 
Q 5.515625 13.875 5.515625 27.296875 
Q 5.515625 40.765625 12.171875 48.375 
Q 18.84375 56 30.609375 56 
z
" id="DejaVuSans-111"/>
     </defs>
     <g transform="translate(1064.634583 764.177188)rotate(-90)scale(0.2 -0.2)">
      <use xlink:href="#DejaVuSans-77"/>
      <use x="86.279297" xlink:href="#DejaVuSans-97"/>
      <use x="147.558594" xlink:href="#DejaVuSans-120"/>
      <use x="206.738281" xlink:href="#DejaVuSans-32"/>
      <use x="238.525391" xlink:href="#DejaVuSans-97"/>
      <use x="299.804688" xlink:href="#DejaVuSans-116"/>
      <use x="339.013672" xlink:href="#DejaVuSans-116"/>
      <use x="378.222656" xlink:href="#DejaVuSans-101"/>
      <use x="439.746094" xlink:href="#DejaVuSans-110"/>
      <use x="503.125" xlink:href="#DejaVuSans-116"/>
      <use x="542.333984" xlink:href="#DejaVuSans-105"/>
      <use x="570.117188" xlink:href="#DejaVuSans-111"/>
      <use x="631.298828" xlink:href="#DejaVuSans-110"/>
     </g>
    </g>
   </g>
   <g id="line2d_8">
    <path clip-path="url(#pb1cef2255a)" d="M 1241.233594 564.840244 
L 1241.233594 573.546422 
" style="fill:none;stroke:#333333;stroke-dasharray:1.5,1.5;stroke-dashoffset:0;"/>
   </g>
   <g id="line2d_9">
    <path clip-path="url(#pb1cef2255a)" d="M 1267.56616 563.596352 
L 1267.56616 574.790314 
" style="fill:none;stroke:#333333;stroke-dasharray:3,3;stroke-dashoffset:0;"/>
   </g>
   <g id="line2d_10">
    <path clip-path="url(#pb1cef2255a)" d="M 1292.362111 564.340918 
L 1292.362111 574.045749 
" style="fill:none;stroke:#333333;stroke-dasharray:1.5,1.5;stroke-dashoffset:0;"/>
   </g>
   <g id="line2d_11">
    <path clip-path="url(#pb1cef2255a)" d="M 1179.982784 585.098801 
L 1179.982784 612.354532 
" style="fill:none;stroke:#333333;stroke-dasharray:1.5,1.5;stroke-dashoffset:0;"/>
   </g>
   <g id="line2d_12">
    <path clip-path="url(#pb1cef2255a)" d="M 1188.951264 585.416885 
L 1188.951264 612.036449 
" style="fill:none;stroke:#333333;stroke-dasharray:3,3;stroke-dashoffset:0;"/>
   </g>
   <g id="line2d_13">
    <path clip-path="url(#pb1cef2255a)" d="M 1201.448421 590.621795 
L 1201.448421 606.831538 
" style="fill:none;stroke:#333333;stroke-dasharray:1.5,1.5;stroke-dashoffset:0;"/>
   </g>
   <g id="line2d_14">
    <path clip-path="url(#pb1cef2255a)" d="M 1187.452856 631.72319 
L 1187.452856 654.330144 
" style="fill:none;stroke:#333333;stroke-dasharray:1.5,1.5;stroke-dashoffset:0;"/>
   </g>
   <g id="line2d_15">
    <path clip-path="url(#pb1cef2255a)" d="M 1197.783849 631.380477 
L 1197.783849 654.672857 
" style="fill:none;stroke:#333333;stroke-dasharray:3,3;stroke-dashoffset:0;"/>
   </g>
   <g id="line2d_16">
    <path clip-path="url(#pb1cef2255a)" d="M 1208.114843 631.72319 
L 1208.114843 654.330144 
" style="fill:none;stroke:#333333;stroke-dasharray:1.5,1.5;stroke-dashoffset:0;"/>
   </g>
   <g id="line2d_17">
    <path clip-path="url(#pb1cef2255a)" d="M 1168.105877 658.453387 
L 1168.105877 686.666613 
" style="fill:none;stroke:#333333;stroke-dasharray:1.5,1.5;stroke-dashoffset:0;"/>
   </g>
   <g id="line2d_18">
    <path clip-path="url(#pb1cef2255a)" d="M 1179.380635 658.234974 
L 1179.380635 686.885026 
" style="fill:none;stroke:#333333;stroke-dasharray:3,3;stroke-dashoffset:0;"/>
   </g>
   <g id="line2d_19">
    <path clip-path="url(#pb1cef2255a)" d="M 1189.653225 660.81163 
L 1189.653225 684.30837 
" style="fill:none;stroke:#333333;stroke-dasharray:1.5,1.5;stroke-dashoffset:0;"/>
   </g>
   <g id="patch_5">
    <path d="M 1146.184583 842.376667 
L 1146.184583 547.043333 
" style="fill:none;stroke:#000000;stroke-linecap:square;stroke-linejoin:miter;stroke-width:0.8;"/>
   </g>
   <g id="patch_6">
    <path d="M 1146.184583 842.376667 
L 1441.517917 842.376667 
" style="fill:none;stroke:#000000;stroke-linecap:square;stroke-linejoin:miter;stroke-width:0.8;"/>
   </g>
  </g>
 </g>
 <defs>
  <clipPath id="pb1cef2255a">
   <rect height="295.333333" width="295.333333" x="1146.184583" y="547.043333"/>
  </clipPath>
 </defs>
</svg>
