<?xml version="1.0" encoding="utf-8" standalone="no"?>
<!DOCTYPE svg PUBLIC "-//W3C//DTD SVG 1.1//EN"
  "http://www.w3.org/Graphics/SVG/1.1/DTD/svg11.dtd">
<!-- Created with matplotlib (https://matplotlib.org/) -->
<svg height="689.685053pt" version="1.1" viewBox="0 0 2705.56998 689.685053" width="2705.56998pt" xmlns="http://www.w3.org/2000/svg" xmlns:xlink="http://www.w3.org/1999/xlink">
 <defs>
  <style type="text/css">
*{stroke-linecap:butt;stroke-linejoin:round;}
  </style>
 </defs>
 <g id="figure_1">
  <g id="patch_1">
   <path d="M 0 689.685053 
L 2705.56998 689.685053 
L 2705.56998 0 
L 0 0 
z
" style="fill:#ffffff;"/>
  </g>
  <g id="axes_1">
   <g id="patch_2">
    <path d="M 1227.623324 279.305053 
L 1477.946657 279.305053 
L 1477.946657 28.98172 
L 1227.623324 28.98172 
z
" style="fill:#ffffff;"/>
   </g>
   <g id="patch_3">
    <path clip-path="url(#p5e73431bf4)" d="M 1239.001657 279.305053 
L 1244.690824 279.305053 
L 1244.690824 279.305053 
L 1239.001657 279.305053 
z
" style="fill:#43406b;opacity:0.6;stroke:#000000;stroke-linejoin:miter;stroke-width:0.5;"/>
   </g>
   <g id="patch_4">
    <path clip-path="url(#p5e73431bf4)" d="M 1244.690824 279.305053 
L 1250.37999 279.305053 
L 1250.37999 279.305053 
L 1244.690824 279.305053 
z
" style="fill:#43406b;opacity:0.6;stroke:#000000;stroke-linejoin:miter;stroke-width:0.5;"/>
   </g>
   <g id="patch_5">
    <path clip-path="url(#p5e73431bf4)" d="M 1250.37999 279.305053 
L 1256.069157 279.305053 
L 1256.069157 279.305053 
L 1250.37999 279.305053 
z
" style="fill:#43406b;opacity:0.6;stroke:#000000;stroke-linejoin:miter;stroke-width:0.5;"/>
   </g>
   <g id="patch_6">
    <path clip-path="url(#p5e73431bf4)" d="M 1256.069157 279.305053 
L 1261.758324 279.305053 
L 1261.758324 279.305053 
L 1256.069157 279.305053 
z
" style="fill:#43406b;opacity:0.6;stroke:#000000;stroke-linejoin:miter;stroke-width:0.5;"/>
   </g>
   <g id="patch_7">
    <path clip-path="url(#p5e73431bf4)" d="M 1261.758324 279.305053 
L 1267.44749 279.305053 
L 1267.44749 279.305053 
L 1261.758324 279.305053 
z
" style="fill:#43406b;opacity:0.6;stroke:#000000;stroke-linejoin:miter;stroke-width:0.5;"/>
   </g>
   <g id="patch_8">
    <path clip-path="url(#p5e73431bf4)" d="M 1267.44749 279.305053 
L 1273.136657 279.305053 
L 1273.136657 279.305053 
L 1267.44749 279.305053 
z
" style="fill:#43406b;opacity:0.6;stroke:#000000;stroke-linejoin:miter;stroke-width:0.5;"/>
   </g>
   <g id="patch_9">
    <path clip-path="url(#p5e73431bf4)" d="M 1273.136657 279.305053 
L 1278.825824 279.305053 
L 1278.825824 279.305053 
L 1273.136657 279.305053 
z
" style="fill:#43406b;opacity:0.6;stroke:#000000;stroke-linejoin:miter;stroke-width:0.5;"/>
   </g>
   <g id="patch_10">
    <path clip-path="url(#p5e73431bf4)" d="M 1278.825824 279.305053 
L 1284.51499 279.305053 
L 1284.51499 279.305053 
L 1278.825824 279.305053 
z
" style="fill:#43406b;opacity:0.6;stroke:#000000;stroke-linejoin:miter;stroke-width:0.5;"/>
   </g>
   <g id="patch_11">
    <path clip-path="url(#p5e73431bf4)" d="M 1284.51499 279.305053 
L 1290.204157 279.305053 
L 1290.204157 279.305053 
L 1284.51499 279.305053 
z
" style="fill:#43406b;opacity:0.6;stroke:#000000;stroke-linejoin:miter;stroke-width:0.5;"/>
   </g>
   <g id="patch_12">
    <path clip-path="url(#p5e73431bf4)" d="M 1290.204157 279.305053 
L 1295.893324 279.305053 
L 1295.893324 279.305053 
L 1290.204157 279.305053 
z
" style="fill:#43406b;opacity:0.6;stroke:#000000;stroke-linejoin:miter;stroke-width:0.5;"/>
   </g>
   <g id="patch_13">
    <path clip-path="url(#p5e73431bf4)" d="M 1295.893324 279.305053 
L 1301.58249 279.305053 
L 1301.58249 279.305053 
L 1295.893324 279.305053 
z
" style="fill:#43406b;opacity:0.6;stroke:#000000;stroke-linejoin:miter;stroke-width:0.5;"/>
   </g>
   <g id="patch_14">
    <path clip-path="url(#p5e73431bf4)" d="M 1301.58249 279.305053 
L 1307.271657 279.305053 
L 1307.271657 279.305053 
L 1301.58249 279.305053 
z
" style="fill:#43406b;opacity:0.6;stroke:#000000;stroke-linejoin:miter;stroke-width:0.5;"/>
   </g>
   <g id="patch_15">
    <path clip-path="url(#p5e73431bf4)" d="M 1307.271657 279.305053 
L 1312.960824 279.305053 
L 1312.960824 279.305053 
L 1307.271657 279.305053 
z
" style="fill:#43406b;opacity:0.6;stroke:#000000;stroke-linejoin:miter;stroke-width:0.5;"/>
   </g>
   <g id="patch_16">
    <path clip-path="url(#p5e73431bf4)" d="M 1312.960824 279.305053 
L 1318.64999 279.305053 
L 1318.64999 279.305053 
L 1312.960824 279.305053 
z
" style="fill:#43406b;opacity:0.6;stroke:#000000;stroke-linejoin:miter;stroke-width:0.5;"/>
   </g>
   <g id="patch_17">
    <path clip-path="url(#p5e73431bf4)" d="M 1318.64999 279.305053 
L 1324.339157 279.305053 
L 1324.339157 279.305053 
L 1318.64999 279.305053 
z
" style="fill:#43406b;opacity:0.6;stroke:#000000;stroke-linejoin:miter;stroke-width:0.5;"/>
   </g>
   <g id="patch_18">
    <path clip-path="url(#p5e73431bf4)" d="M 1324.339157 279.305053 
L 1330.028324 279.305053 
L 1330.028324 279.305053 
L 1324.339157 279.305053 
z
" style="fill:#43406b;opacity:0.6;stroke:#000000;stroke-linejoin:miter;stroke-width:0.5;"/>
   </g>
   <g id="patch_19">
    <path clip-path="url(#p5e73431bf4)" d="M 1330.028324 279.305053 
L 1335.71749 279.305053 
L 1335.71749 279.305053 
L 1330.028324 279.305053 
z
" style="fill:#43406b;opacity:0.6;stroke:#000000;stroke-linejoin:miter;stroke-width:0.5;"/>
   </g>
   <g id="patch_20">
    <path clip-path="url(#p5e73431bf4)" d="M 1335.71749 279.305053 
L 1341.406657 279.305053 
L 1341.406657 279.305053 
L 1335.71749 279.305053 
z
" style="fill:#43406b;opacity:0.6;stroke:#000000;stroke-linejoin:miter;stroke-width:0.5;"/>
   </g>
   <g id="patch_21">
    <path clip-path="url(#p5e73431bf4)" d="M 1341.406657 279.305053 
L 1347.095824 279.305053 
L 1347.095824 279.305053 
L 1341.406657 279.305053 
z
" style="fill:#43406b;opacity:0.6;stroke:#000000;stroke-linejoin:miter;stroke-width:0.5;"/>
   </g>
   <g id="patch_22">
    <path clip-path="url(#p5e73431bf4)" d="M 1347.095824 279.305053 
L 1352.78499 279.305053 
L 1352.78499 279.305053 
L 1347.095824 279.305053 
z
" style="fill:#43406b;opacity:0.6;stroke:#000000;stroke-linejoin:miter;stroke-width:0.5;"/>
   </g>
   <g id="patch_23">
    <path clip-path="url(#p5e73431bf4)" d="M 1352.78499 279.305053 
L 1358.474157 279.305053 
L 1358.474157 279.305053 
L 1352.78499 279.305053 
z
" style="fill:#43406b;opacity:0.6;stroke:#000000;stroke-linejoin:miter;stroke-width:0.5;"/>
   </g>
   <g id="patch_24">
    <path clip-path="url(#p5e73431bf4)" d="M 1358.474157 279.305053 
L 1364.163324 279.305053 
L 1364.163324 279.305053 
L 1358.474157 279.305053 
z
" style="fill:#43406b;opacity:0.6;stroke:#000000;stroke-linejoin:miter;stroke-width:0.5;"/>
   </g>
   <g id="patch_25">
    <path clip-path="url(#p5e73431bf4)" d="M 1364.163324 279.305053 
L 1369.85249 279.305053 
L 1369.85249 279.305053 
L 1364.163324 279.305053 
z
" style="fill:#43406b;opacity:0.6;stroke:#000000;stroke-linejoin:miter;stroke-width:0.5;"/>
   </g>
   <g id="patch_26">
    <path clip-path="url(#p5e73431bf4)" d="M 1369.85249 279.305053 
L 1375.541657 279.305053 
L 1375.541657 279.305053 
L 1369.85249 279.305053 
z
" style="fill:#43406b;opacity:0.6;stroke:#000000;stroke-linejoin:miter;stroke-width:0.5;"/>
   </g>
   <g id="patch_27">
    <path clip-path="url(#p5e73431bf4)" d="M 1375.541657 279.305053 
L 1381.230824 279.305053 
L 1381.230824 279.305053 
L 1375.541657 279.305053 
z
" style="fill:#43406b;opacity:0.6;stroke:#000000;stroke-linejoin:miter;stroke-width:0.5;"/>
   </g>
   <g id="patch_28">
    <path clip-path="url(#p5e73431bf4)" d="M 1381.230824 279.305053 
L 1386.91999 279.305053 
L 1386.91999 278.064692 
L 1381.230824 278.064692 
z
" style="fill:#43406b;opacity:0.6;stroke:#000000;stroke-linejoin:miter;stroke-width:0.5;"/>
   </g>
   <g id="patch_29">
    <path clip-path="url(#p5e73431bf4)" d="M 1386.91999 279.305053 
L 1392.609157 279.305053 
L 1392.609157 273.103249 
L 1386.91999 273.103249 
z
" style="fill:#43406b;opacity:0.6;stroke:#000000;stroke-linejoin:miter;stroke-width:0.5;"/>
   </g>
   <g id="patch_30">
    <path clip-path="url(#p5e73431bf4)" d="M 1392.609157 279.305053 
L 1398.298324 279.305053 
L 1398.298324 272.483068 
L 1392.609157 272.483068 
z
" style="fill:#43406b;opacity:0.6;stroke:#000000;stroke-linejoin:miter;stroke-width:0.5;"/>
   </g>
   <g id="patch_31">
    <path clip-path="url(#p5e73431bf4)" d="M 1398.298324 279.305053 
L 1403.98749 279.305053 
L 1403.98749 255.738197 
L 1398.298324 255.738197 
z
" style="fill:#43406b;opacity:0.6;stroke:#000000;stroke-linejoin:miter;stroke-width:0.5;"/>
   </g>
   <g id="patch_32">
    <path clip-path="url(#p5e73431bf4)" d="M 1403.98749 279.305053 
L 1409.676657 279.305053 
L 1409.676657 240.233686 
L 1403.98749 240.233686 
z
" style="fill:#43406b;opacity:0.6;stroke:#000000;stroke-linejoin:miter;stroke-width:0.5;"/>
   </g>
   <g id="patch_33">
    <path clip-path="url(#p5e73431bf4)" d="M 1409.676657 279.305053 
L 1415.365824 279.305053 
L 1415.365824 194.960515 
L 1409.676657 194.960515 
z
" style="fill:#43406b;opacity:0.6;stroke:#000000;stroke-linejoin:miter;stroke-width:0.5;"/>
   </g>
   <g id="patch_34">
    <path clip-path="url(#p5e73431bf4)" d="M 1415.365824 279.305053 
L 1421.05499 279.305053 
L 1421.05499 121.779225 
L 1415.365824 121.779225 
z
" style="fill:#43406b;opacity:0.6;stroke:#000000;stroke-linejoin:miter;stroke-width:0.5;"/>
   </g>
   <g id="patch_35">
    <path clip-path="url(#p5e73431bf4)" d="M 1421.05499 279.305053 
L 1426.744157 279.305053 
L 1426.744157 62.241904 
L 1421.05499 62.241904 
z
" style="fill:#43406b;opacity:0.6;stroke:#000000;stroke-linejoin:miter;stroke-width:0.5;"/>
   </g>
   <g id="patch_36">
    <path clip-path="url(#p5e73431bf4)" d="M 1426.744157 279.305053 
L 1432.433324 279.305053 
L 1432.433324 43.016311 
L 1426.744157 43.016311 
z
" style="fill:#43406b;opacity:0.6;stroke:#000000;stroke-linejoin:miter;stroke-width:0.5;"/>
   </g>
   <g id="patch_37">
    <path clip-path="url(#p5e73431bf4)" d="M 1432.433324 279.305053 
L 1438.12249 279.305053 
L 1438.12249 43.016311 
L 1432.433324 43.016311 
z
" style="fill:#43406b;opacity:0.6;stroke:#000000;stroke-linejoin:miter;stroke-width:0.5;"/>
   </g>
   <g id="patch_38">
    <path clip-path="url(#p5e73431bf4)" d="M 1438.12249 279.305053 
L 1443.811657 279.305053 
L 1443.811657 130.461751 
L 1438.12249 130.461751 
z
" style="fill:#43406b;opacity:0.6;stroke:#000000;stroke-linejoin:miter;stroke-width:0.5;"/>
   </g>
   <g id="patch_39">
    <path clip-path="url(#p5e73431bf4)" d="M 1443.811657 279.305053 
L 1449.500824 279.305053 
L 1449.500824 194.340335 
L 1443.811657 194.340335 
z
" style="fill:#43406b;opacity:0.6;stroke:#000000;stroke-linejoin:miter;stroke-width:0.5;"/>
   </g>
   <g id="patch_40">
    <path clip-path="url(#p5e73431bf4)" d="M 1449.500824 279.305053 
L 1455.18999 279.305053 
L 1455.18999 234.652062 
L 1449.500824 234.652062 
z
" style="fill:#43406b;opacity:0.6;stroke:#000000;stroke-linejoin:miter;stroke-width:0.5;"/>
   </g>
   <g id="patch_41">
    <path clip-path="url(#p5e73431bf4)" d="M 1455.18999 279.305053 
L 1460.879157 279.305053 
L 1460.879157 235.272243 
L 1455.18999 235.272243 
z
" style="fill:#43406b;opacity:0.6;stroke:#000000;stroke-linejoin:miter;stroke-width:0.5;"/>
   </g>
   <g id="patch_42">
    <path clip-path="url(#p5e73431bf4)" d="M 1460.879157 279.305053 
L 1466.568324 279.305053 
L 1466.568324 256.978558 
L 1460.879157 256.978558 
z
" style="fill:#43406b;opacity:0.6;stroke:#000000;stroke-linejoin:miter;stroke-width:0.5;"/>
   </g>
   <g id="patch_43">
    <path clip-path="url(#p5e73431bf4)" d="M 1239.001657 279.305053 
L 1244.690824 279.305053 
L 1244.690824 279.305053 
L 1239.001657 279.305053 
z
" style="fill:#d15a00;opacity:0.6;stroke:#000000;stroke-linejoin:miter;stroke-width:0.5;"/>
   </g>
   <g id="patch_44">
    <path clip-path="url(#p5e73431bf4)" d="M 1244.690824 279.305053 
L 1250.37999 279.305053 
L 1250.37999 279.305053 
L 1244.690824 279.305053 
z
" style="fill:#d15a00;opacity:0.6;stroke:#000000;stroke-linejoin:miter;stroke-width:0.5;"/>
   </g>
   <g id="patch_45">
    <path clip-path="url(#p5e73431bf4)" d="M 1250.37999 279.305053 
L 1256.069157 279.305053 
L 1256.069157 279.305053 
L 1250.37999 279.305053 
z
" style="fill:#d15a00;opacity:0.6;stroke:#000000;stroke-linejoin:miter;stroke-width:0.5;"/>
   </g>
   <g id="patch_46">
    <path clip-path="url(#p5e73431bf4)" d="M 1256.069157 279.305053 
L 1261.758324 279.305053 
L 1261.758324 279.305053 
L 1256.069157 279.305053 
z
" style="fill:#d15a00;opacity:0.6;stroke:#000000;stroke-linejoin:miter;stroke-width:0.5;"/>
   </g>
   <g id="patch_47">
    <path clip-path="url(#p5e73431bf4)" d="M 1261.758324 279.305053 
L 1267.44749 279.305053 
L 1267.44749 279.305053 
L 1261.758324 279.305053 
z
" style="fill:#d15a00;opacity:0.6;stroke:#000000;stroke-linejoin:miter;stroke-width:0.5;"/>
   </g>
   <g id="patch_48">
    <path clip-path="url(#p5e73431bf4)" d="M 1267.44749 279.305053 
L 1273.136657 279.305053 
L 1273.136657 279.305053 
L 1267.44749 279.305053 
z
" style="fill:#d15a00;opacity:0.6;stroke:#000000;stroke-linejoin:miter;stroke-width:0.5;"/>
   </g>
   <g id="patch_49">
    <path clip-path="url(#p5e73431bf4)" d="M 1273.136657 279.305053 
L 1278.825824 279.305053 
L 1278.825824 279.305053 
L 1273.136657 279.305053 
z
" style="fill:#d15a00;opacity:0.6;stroke:#000000;stroke-linejoin:miter;stroke-width:0.5;"/>
   </g>
   <g id="patch_50">
    <path clip-path="url(#p5e73431bf4)" d="M 1278.825824 279.305053 
L 1284.51499 279.305053 
L 1284.51499 279.305053 
L 1278.825824 279.305053 
z
" style="fill:#d15a00;opacity:0.6;stroke:#000000;stroke-linejoin:miter;stroke-width:0.5;"/>
   </g>
   <g id="patch_51">
    <path clip-path="url(#p5e73431bf4)" d="M 1284.51499 279.305053 
L 1290.204157 279.305053 
L 1290.204157 279.305053 
L 1284.51499 279.305053 
z
" style="fill:#d15a00;opacity:0.6;stroke:#000000;stroke-linejoin:miter;stroke-width:0.5;"/>
   </g>
   <g id="patch_52">
    <path clip-path="url(#p5e73431bf4)" d="M 1290.204157 279.305053 
L 1295.893324 279.305053 
L 1295.893324 279.305053 
L 1290.204157 279.305053 
z
" style="fill:#d15a00;opacity:0.6;stroke:#000000;stroke-linejoin:miter;stroke-width:0.5;"/>
   </g>
   <g id="patch_53">
    <path clip-path="url(#p5e73431bf4)" d="M 1295.893324 279.305053 
L 1301.58249 279.305053 
L 1301.58249 279.305053 
L 1295.893324 279.305053 
z
" style="fill:#d15a00;opacity:0.6;stroke:#000000;stroke-linejoin:miter;stroke-width:0.5;"/>
   </g>
   <g id="patch_54">
    <path clip-path="url(#p5e73431bf4)" d="M 1301.58249 279.305053 
L 1307.271657 279.305053 
L 1307.271657 279.305053 
L 1301.58249 279.305053 
z
" style="fill:#d15a00;opacity:0.6;stroke:#000000;stroke-linejoin:miter;stroke-width:0.5;"/>
   </g>
   <g id="patch_55">
    <path clip-path="url(#p5e73431bf4)" d="M 1307.271657 279.305053 
L 1312.960824 279.305053 
L 1312.960824 279.305053 
L 1307.271657 279.305053 
z
" style="fill:#d15a00;opacity:0.6;stroke:#000000;stroke-linejoin:miter;stroke-width:0.5;"/>
   </g>
   <g id="patch_56">
    <path clip-path="url(#p5e73431bf4)" d="M 1312.960824 279.305053 
L 1318.64999 279.305053 
L 1318.64999 279.305053 
L 1312.960824 279.305053 
z
" style="fill:#d15a00;opacity:0.6;stroke:#000000;stroke-linejoin:miter;stroke-width:0.5;"/>
   </g>
   <g id="patch_57">
    <path clip-path="url(#p5e73431bf4)" d="M 1318.64999 279.305053 
L 1324.339157 279.305053 
L 1324.339157 279.305053 
L 1318.64999 279.305053 
z
" style="fill:#d15a00;opacity:0.6;stroke:#000000;stroke-linejoin:miter;stroke-width:0.5;"/>
   </g>
   <g id="patch_58">
    <path clip-path="url(#p5e73431bf4)" d="M 1324.339157 279.305053 
L 1330.028324 279.305053 
L 1330.028324 279.305053 
L 1324.339157 279.305053 
z
" style="fill:#d15a00;opacity:0.6;stroke:#000000;stroke-linejoin:miter;stroke-width:0.5;"/>
   </g>
   <g id="patch_59">
    <path clip-path="url(#p5e73431bf4)" d="M 1330.028324 279.305053 
L 1335.71749 279.305053 
L 1335.71749 279.305053 
L 1330.028324 279.305053 
z
" style="fill:#d15a00;opacity:0.6;stroke:#000000;stroke-linejoin:miter;stroke-width:0.5;"/>
   </g>
   <g id="patch_60">
    <path clip-path="url(#p5e73431bf4)" d="M 1335.71749 279.305053 
L 1341.406657 279.305053 
L 1341.406657 279.305053 
L 1335.71749 279.305053 
z
" style="fill:#d15a00;opacity:0.6;stroke:#000000;stroke-linejoin:miter;stroke-width:0.5;"/>
   </g>
   <g id="patch_61">
    <path clip-path="url(#p5e73431bf4)" d="M 1341.406657 279.305053 
L 1347.095824 279.305053 
L 1347.095824 279.305053 
L 1341.406657 279.305053 
z
" style="fill:#d15a00;opacity:0.6;stroke:#000000;stroke-linejoin:miter;stroke-width:0.5;"/>
   </g>
   <g id="patch_62">
    <path clip-path="url(#p5e73431bf4)" d="M 1347.095824 279.305053 
L 1352.78499 279.305053 
L 1352.78499 279.305053 
L 1347.095824 279.305053 
z
" style="fill:#d15a00;opacity:0.6;stroke:#000000;stroke-linejoin:miter;stroke-width:0.5;"/>
   </g>
   <g id="patch_63">
    <path clip-path="url(#p5e73431bf4)" d="M 1352.78499 279.305053 
L 1358.474157 279.305053 
L 1358.474157 279.305053 
L 1352.78499 279.305053 
z
" style="fill:#d15a00;opacity:0.6;stroke:#000000;stroke-linejoin:miter;stroke-width:0.5;"/>
   </g>
   <g id="patch_64">
    <path clip-path="url(#p5e73431bf4)" d="M 1358.474157 279.305053 
L 1364.163324 279.305053 
L 1364.163324 279.305053 
L 1358.474157 279.305053 
z
" style="fill:#d15a00;opacity:0.6;stroke:#000000;stroke-linejoin:miter;stroke-width:0.5;"/>
   </g>
   <g id="patch_65">
    <path clip-path="url(#p5e73431bf4)" d="M 1364.163324 279.305053 
L 1369.85249 279.305053 
L 1369.85249 279.305053 
L 1364.163324 279.305053 
z
" style="fill:#d15a00;opacity:0.6;stroke:#000000;stroke-linejoin:miter;stroke-width:0.5;"/>
   </g>
   <g id="patch_66">
    <path clip-path="url(#p5e73431bf4)" d="M 1369.85249 279.305053 
L 1375.541657 279.305053 
L 1375.541657 279.305053 
L 1369.85249 279.305053 
z
" style="fill:#d15a00;opacity:0.6;stroke:#000000;stroke-linejoin:miter;stroke-width:0.5;"/>
   </g>
   <g id="patch_67">
    <path clip-path="url(#p5e73431bf4)" d="M 1375.541657 279.305053 
L 1381.230824 279.305053 
L 1381.230824 279.305053 
L 1375.541657 279.305053 
z
" style="fill:#d15a00;opacity:0.6;stroke:#000000;stroke-linejoin:miter;stroke-width:0.5;"/>
   </g>
   <g id="patch_68">
    <path clip-path="url(#p5e73431bf4)" d="M 1381.230824 279.305053 
L 1386.91999 279.305053 
L 1386.91999 279.305053 
L 1381.230824 279.305053 
z
" style="fill:#d15a00;opacity:0.6;stroke:#000000;stroke-linejoin:miter;stroke-width:0.5;"/>
   </g>
   <g id="patch_69">
    <path clip-path="url(#p5e73431bf4)" d="M 1386.91999 279.305053 
L 1392.609157 279.305053 
L 1392.609157 279.305053 
L 1386.91999 279.305053 
z
" style="fill:#d15a00;opacity:0.6;stroke:#000000;stroke-linejoin:miter;stroke-width:0.5;"/>
   </g>
   <g id="patch_70">
    <path clip-path="url(#p5e73431bf4)" d="M 1392.609157 279.305053 
L 1398.298324 279.305053 
L 1398.298324 278.68259 
L 1392.609157 278.68259 
z
" style="fill:#d15a00;opacity:0.6;stroke:#000000;stroke-linejoin:miter;stroke-width:0.5;"/>
   </g>
   <g id="patch_71">
    <path clip-path="url(#p5e73431bf4)" d="M 1398.298324 279.305053 
L 1403.98749 279.305053 
L 1403.98749 273.702889 
L 1398.298324 273.702889 
z
" style="fill:#d15a00;opacity:0.6;stroke:#000000;stroke-linejoin:miter;stroke-width:0.5;"/>
   </g>
   <g id="patch_72">
    <path clip-path="url(#p5e73431bf4)" d="M 1403.98749 279.305053 
L 1409.676657 279.305053 
L 1409.676657 264.365951 
L 1403.98749 264.365951 
z
" style="fill:#d15a00;opacity:0.6;stroke:#000000;stroke-linejoin:miter;stroke-width:0.5;"/>
   </g>
   <g id="patch_73">
    <path clip-path="url(#p5e73431bf4)" d="M 1409.676657 279.305053 
L 1415.365824 279.305053 
L 1415.365824 236.977596 
L 1409.676657 236.977596 
z
" style="fill:#d15a00;opacity:0.6;stroke:#000000;stroke-linejoin:miter;stroke-width:0.5;"/>
   </g>
   <g id="patch_74">
    <path clip-path="url(#p5e73431bf4)" d="M 1415.365824 279.305053 
L 1421.05499 279.305053 
L 1421.05499 184.068276 
L 1415.365824 184.068276 
z
" style="fill:#d15a00;opacity:0.6;stroke:#000000;stroke-linejoin:miter;stroke-width:0.5;"/>
   </g>
   <g id="patch_75">
    <path clip-path="url(#p5e73431bf4)" d="M 1421.05499 279.305053 
L 1426.744157 279.305053 
L 1426.744157 101.28075 
L 1421.05499 101.28075 
z
" style="fill:#d15a00;opacity:0.6;stroke:#000000;stroke-linejoin:miter;stroke-width:0.5;"/>
   </g>
   <g id="patch_76">
    <path clip-path="url(#p5e73431bf4)" d="M 1426.744157 279.305053 
L 1432.433324 279.305053 
L 1432.433324 40.901878 
L 1426.744157 40.901878 
z
" style="fill:#d15a00;opacity:0.6;stroke:#000000;stroke-linejoin:miter;stroke-width:0.5;"/>
   </g>
   <g id="patch_77">
    <path clip-path="url(#p5e73431bf4)" d="M 1432.433324 279.305053 
L 1438.12249 279.305053 
L 1438.12249 58.330831 
L 1432.433324 58.330831 
z
" style="fill:#d15a00;opacity:0.6;stroke:#000000;stroke-linejoin:miter;stroke-width:0.5;"/>
   </g>
   <g id="patch_78">
    <path clip-path="url(#p5e73431bf4)" d="M 1438.12249 279.305053 
L 1443.811657 279.305053 
L 1443.811657 116.842315 
L 1438.12249 116.842315 
z
" style="fill:#d15a00;opacity:0.6;stroke:#000000;stroke-linejoin:miter;stroke-width:0.5;"/>
   </g>
   <g id="patch_79">
    <path clip-path="url(#p5e73431bf4)" d="M 1443.811657 279.305053 
L 1449.500824 279.305053 
L 1449.500824 186.558126 
L 1443.811657 186.558126 
z
" style="fill:#d15a00;opacity:0.6;stroke:#000000;stroke-linejoin:miter;stroke-width:0.5;"/>
   </g>
   <g id="patch_80">
    <path clip-path="url(#p5e73431bf4)" d="M 1449.500824 279.305053 
L 1455.18999 279.305053 
L 1455.18999 195.895065 
L 1449.500824 195.895065 
z
" style="fill:#d15a00;opacity:0.6;stroke:#000000;stroke-linejoin:miter;stroke-width:0.5;"/>
   </g>
   <g id="patch_81">
    <path clip-path="url(#p5e73431bf4)" d="M 1455.18999 279.305053 
L 1460.879157 279.305053 
L 1460.879157 121.822016 
L 1455.18999 121.822016 
z
" style="fill:#d15a00;opacity:0.6;stroke:#000000;stroke-linejoin:miter;stroke-width:0.5;"/>
   </g>
   <g id="patch_82">
    <path clip-path="url(#p5e73431bf4)" d="M 1460.879157 279.305053 
L 1466.568324 279.305053 
L 1466.568324 218.303718 
L 1460.879157 218.303718 
z
" style="fill:#d15a00;opacity:0.6;stroke:#000000;stroke-linejoin:miter;stroke-width:0.5;"/>
   </g>
   <g id="matplotlib.axis_1">
    <g id="xtick_1">
     <g id="line2d_1">
      <defs>
       <path d="M 0 0 
L 0 3.5 
" id="m31ffe25e61" style="stroke:#000000;stroke-width:1.6;"/>
      </defs>
      <g>
       <use style="stroke:#000000;stroke-width:1.6;" x="1239.001657" xlink:href="#m31ffe25e61" y="279.305053"/>
      </g>
     </g>
     <g id="text_1">
      <!-- 0.0 -->
      <defs>
       <path d="M 31.78125 66.40625 
Q 24.171875 66.40625 20.328125 58.90625 
Q 16.5 51.421875 16.5 36.375 
Q 16.5 21.390625 20.328125 13.890625 
Q 24.171875 6.390625 31.78125 6.390625 
Q 39.453125 6.390625 43.28125 13.890625 
Q 47.125 21.390625 47.125 36.375 
Q 47.125 51.421875 43.28125 58.90625 
Q 39.453125 66.40625 31.78125 66.40625 
z
M 31.78125 74.21875 
Q 44.046875 74.21875 50.515625 64.515625 
Q 56.984375 54.828125 56.984375 36.375 
Q 56.984375 17.96875 50.515625 8.265625 
Q 44.046875 -1.421875 31.78125 -1.421875 
Q 19.53125 -1.421875 13.0625 8.265625 
Q 6.59375 17.96875 6.59375 36.375 
Q 6.59375 54.828125 13.0625 64.515625 
Q 19.53125 74.21875 31.78125 74.21875 
z
" id="DejaVuSans-48"/>
       <path d="M 10.6875 12.40625 
L 21 12.40625 
L 21 0 
L 10.6875 0 
z
" id="DejaVuSans-46"/>
      </defs>
      <g transform="translate(1223.098532 309.201928)scale(0.2 -0.2)">
       <use xlink:href="#DejaVuSans-48"/>
       <use x="63.623047" xlink:href="#DejaVuSans-46"/>
       <use x="95.410156" xlink:href="#DejaVuSans-48"/>
      </g>
     </g>
    </g>
    <g id="xtick_2">
     <g id="line2d_2">
      <g>
       <use style="stroke:#000000;stroke-width:1.6;" x="1304.020705" xlink:href="#m31ffe25e61" y="279.305053"/>
      </g>
     </g>
     <g id="text_2">
      <!-- 0.2 -->
      <defs>
       <path d="M 19.1875 8.296875 
L 53.609375 8.296875 
L 53.609375 0 
L 7.328125 0 
L 7.328125 8.296875 
Q 12.9375 14.109375 22.625 23.890625 
Q 32.328125 33.6875 34.8125 36.53125 
Q 39.546875 41.84375 41.421875 45.53125 
Q 43.3125 49.21875 43.3125 52.78125 
Q 43.3125 58.59375 39.234375 62.25 
Q 35.15625 65.921875 28.609375 65.921875 
Q 23.96875 65.921875 18.8125 64.3125 
Q 13.671875 62.703125 7.8125 59.421875 
L 7.8125 69.390625 
Q 13.765625 71.78125 18.9375 73 
Q 24.125 74.21875 28.421875 74.21875 
Q 39.75 74.21875 46.484375 68.546875 
Q 53.21875 62.890625 53.21875 53.421875 
Q 53.21875 48.921875 51.53125 44.890625 
Q 49.859375 40.875 45.40625 35.40625 
Q 44.1875 33.984375 37.640625 27.21875 
Q 31.109375 20.453125 19.1875 8.296875 
z
" id="DejaVuSans-50"/>
      </defs>
      <g transform="translate(1288.11758 309.201928)scale(0.2 -0.2)">
       <use xlink:href="#DejaVuSans-48"/>
       <use x="63.623047" xlink:href="#DejaVuSans-46"/>
       <use x="95.410156" xlink:href="#DejaVuSans-50"/>
      </g>
     </g>
    </g>
    <g id="xtick_3">
     <g id="line2d_3">
      <g>
       <use style="stroke:#000000;stroke-width:1.6;" x="1369.039752" xlink:href="#m31ffe25e61" y="279.305053"/>
      </g>
     </g>
     <g id="text_3">
      <!-- 0.4 -->
      <defs>
       <path d="M 37.796875 64.3125 
L 12.890625 25.390625 
L 37.796875 25.390625 
z
M 35.203125 72.90625 
L 47.609375 72.90625 
L 47.609375 25.390625 
L 58.015625 25.390625 
L 58.015625 17.1875 
L 47.609375 17.1875 
L 47.609375 0 
L 37.796875 0 
L 37.796875 17.1875 
L 4.890625 17.1875 
L 4.890625 26.703125 
z
" id="DejaVuSans-52"/>
      </defs>
      <g transform="translate(1353.136627 309.201928)scale(0.2 -0.2)">
       <use xlink:href="#DejaVuSans-48"/>
       <use x="63.623047" xlink:href="#DejaVuSans-46"/>
       <use x="95.410156" xlink:href="#DejaVuSans-52"/>
      </g>
     </g>
    </g>
    <g id="xtick_4">
     <g id="line2d_4">
      <g>
       <use style="stroke:#000000;stroke-width:1.6;" x="1434.0588" xlink:href="#m31ffe25e61" y="279.305053"/>
      </g>
     </g>
     <g id="text_4">
      <!-- 0.6 -->
      <defs>
       <path d="M 33.015625 40.375 
Q 26.375 40.375 22.484375 35.828125 
Q 18.609375 31.296875 18.609375 23.390625 
Q 18.609375 15.53125 22.484375 10.953125 
Q 26.375 6.390625 33.015625 6.390625 
Q 39.65625 6.390625 43.53125 10.953125 
Q 47.40625 15.53125 47.40625 23.390625 
Q 47.40625 31.296875 43.53125 35.828125 
Q 39.65625 40.375 33.015625 40.375 
z
M 52.59375 71.296875 
L 52.59375 62.3125 
Q 48.875 64.0625 45.09375 64.984375 
Q 41.3125 65.921875 37.59375 65.921875 
Q 27.828125 65.921875 22.671875 59.328125 
Q 17.53125 52.734375 16.796875 39.40625 
Q 19.671875 43.65625 24.015625 45.921875 
Q 28.375 48.1875 33.59375 48.1875 
Q 44.578125 48.1875 50.953125 41.515625 
Q 57.328125 34.859375 57.328125 23.390625 
Q 57.328125 12.15625 50.6875 5.359375 
Q 44.046875 -1.421875 33.015625 -1.421875 
Q 20.359375 -1.421875 13.671875 8.265625 
Q 6.984375 17.96875 6.984375 36.375 
Q 6.984375 53.65625 15.1875 63.9375 
Q 23.390625 74.21875 37.203125 74.21875 
Q 40.921875 74.21875 44.703125 73.484375 
Q 48.484375 72.75 52.59375 71.296875 
z
" id="DejaVuSans-54"/>
      </defs>
      <g transform="translate(1418.155675 309.201928)scale(0.2 -0.2)">
       <use xlink:href="#DejaVuSans-48"/>
       <use x="63.623047" xlink:href="#DejaVuSans-46"/>
       <use x="95.410156" xlink:href="#DejaVuSans-54"/>
      </g>
     </g>
    </g>
    <g id="text_5">
     <!-- Max JS Divergence within $\epsilon$ -->
     <defs>
      <path d="M 9.8125 72.90625 
L 24.515625 72.90625 
L 43.109375 23.296875 
L 61.8125 72.90625 
L 76.515625 72.90625 
L 76.515625 0 
L 66.890625 0 
L 66.890625 64.015625 
L 48.09375 14.015625 
L 38.1875 14.015625 
L 19.390625 64.015625 
L 19.390625 0 
L 9.8125 0 
z
" id="DejaVuSans-77"/>
      <path d="M 34.28125 27.484375 
Q 23.390625 27.484375 19.1875 25 
Q 14.984375 22.515625 14.984375 16.5 
Q 14.984375 11.71875 18.140625 8.90625 
Q 21.296875 6.109375 26.703125 6.109375 
Q 34.1875 6.109375 38.703125 11.40625 
Q 43.21875 16.703125 43.21875 25.484375 
L 43.21875 27.484375 
z
M 52.203125 31.203125 
L 52.203125 0 
L 43.21875 0 
L 43.21875 8.296875 
Q 40.140625 3.328125 35.546875 0.953125 
Q 30.953125 -1.421875 24.3125 -1.421875 
Q 15.921875 -1.421875 10.953125 3.296875 
Q 6 8.015625 6 15.921875 
Q 6 25.140625 12.171875 29.828125 
Q 18.359375 34.515625 30.609375 34.515625 
L 43.21875 34.515625 
L 43.21875 35.40625 
Q 43.21875 41.609375 39.140625 45 
Q 35.0625 48.390625 27.6875 48.390625 
Q 23 48.390625 18.546875 47.265625 
Q 14.109375 46.140625 10.015625 43.890625 
L 10.015625 52.203125 
Q 14.9375 54.109375 19.578125 55.046875 
Q 24.21875 56 28.609375 56 
Q 40.484375 56 46.34375 49.84375 
Q 52.203125 43.703125 52.203125 31.203125 
z
" id="DejaVuSans-97"/>
      <path d="M 54.890625 54.6875 
L 35.109375 28.078125 
L 55.90625 0 
L 45.3125 0 
L 29.390625 21.484375 
L 13.484375 0 
L 2.875 0 
L 24.125 28.609375 
L 4.6875 54.6875 
L 15.28125 54.6875 
L 29.78125 35.203125 
L 44.28125 54.6875 
z
" id="DejaVuSans-120"/>
      <path id="DejaVuSans-32"/>
      <path d="M 9.8125 72.90625 
L 19.671875 72.90625 
L 19.671875 5.078125 
Q 19.671875 -8.109375 14.671875 -14.0625 
Q 9.671875 -20.015625 -1.421875 -20.015625 
L -5.171875 -20.015625 
L -5.171875 -11.71875 
L -2.09375 -11.71875 
Q 4.4375 -11.71875 7.125 -8.046875 
Q 9.8125 -4.390625 9.8125 5.078125 
z
" id="DejaVuSans-74"/>
      <path d="M 53.515625 70.515625 
L 53.515625 60.890625 
Q 47.90625 63.578125 42.921875 64.890625 
Q 37.9375 66.21875 33.296875 66.21875 
Q 25.25 66.21875 20.875 63.09375 
Q 16.5 59.96875 16.5 54.203125 
Q 16.5 49.359375 19.40625 46.890625 
Q 22.3125 44.4375 30.421875 42.921875 
L 36.375 41.703125 
Q 47.40625 39.59375 52.65625 34.296875 
Q 57.90625 29 57.90625 20.125 
Q 57.90625 9.515625 50.796875 4.046875 
Q 43.703125 -1.421875 29.984375 -1.421875 
Q 24.8125 -1.421875 18.96875 -0.25 
Q 13.140625 0.921875 6.890625 3.21875 
L 6.890625 13.375 
Q 12.890625 10.015625 18.65625 8.296875 
Q 24.421875 6.59375 29.984375 6.59375 
Q 38.421875 6.59375 43.015625 9.90625 
Q 47.609375 13.234375 47.609375 19.390625 
Q 47.609375 24.75 44.3125 27.78125 
Q 41.015625 30.8125 33.5 32.328125 
L 27.484375 33.5 
Q 16.453125 35.6875 11.515625 40.375 
Q 6.59375 45.0625 6.59375 53.421875 
Q 6.59375 63.09375 13.40625 68.65625 
Q 20.21875 74.21875 32.171875 74.21875 
Q 37.3125 74.21875 42.625 73.28125 
Q 47.953125 72.359375 53.515625 70.515625 
z
" id="DejaVuSans-83"/>
      <path d="M 19.671875 64.796875 
L 19.671875 8.109375 
L 31.59375 8.109375 
Q 46.6875 8.109375 53.6875 14.9375 
Q 60.6875 21.78125 60.6875 36.53125 
Q 60.6875 51.171875 53.6875 57.984375 
Q 46.6875 64.796875 31.59375 64.796875 
z
M 9.8125 72.90625 
L 30.078125 72.90625 
Q 51.265625 72.90625 61.171875 64.09375 
Q 71.09375 55.28125 71.09375 36.53125 
Q 71.09375 17.671875 61.125 8.828125 
Q 51.171875 0 30.078125 0 
L 9.8125 0 
z
" id="DejaVuSans-68"/>
      <path d="M 9.421875 54.6875 
L 18.40625 54.6875 
L 18.40625 0 
L 9.421875 0 
z
M 9.421875 75.984375 
L 18.40625 75.984375 
L 18.40625 64.59375 
L 9.421875 64.59375 
z
" id="DejaVuSans-105"/>
      <path d="M 2.984375 54.6875 
L 12.5 54.6875 
L 29.59375 8.796875 
L 46.6875 54.6875 
L 56.203125 54.6875 
L 35.6875 0 
L 23.484375 0 
z
" id="DejaVuSans-118"/>
      <path d="M 56.203125 29.59375 
L 56.203125 25.203125 
L 14.890625 25.203125 
Q 15.484375 15.921875 20.484375 11.0625 
Q 25.484375 6.203125 34.421875 6.203125 
Q 39.59375 6.203125 44.453125 7.46875 
Q 49.3125 8.734375 54.109375 11.28125 
L 54.109375 2.78125 
Q 49.265625 0.734375 44.1875 -0.34375 
Q 39.109375 -1.421875 33.890625 -1.421875 
Q 20.796875 -1.421875 13.15625 6.1875 
Q 5.515625 13.8125 5.515625 26.8125 
Q 5.515625 40.234375 12.765625 48.109375 
Q 20.015625 56 32.328125 56 
Q 43.359375 56 49.78125 48.890625 
Q 56.203125 41.796875 56.203125 29.59375 
z
M 47.21875 32.234375 
Q 47.125 39.59375 43.09375 43.984375 
Q 39.0625 48.390625 32.421875 48.390625 
Q 24.90625 48.390625 20.390625 44.140625 
Q 15.875 39.890625 15.1875 32.171875 
z
" id="DejaVuSans-101"/>
      <path d="M 41.109375 46.296875 
Q 39.59375 47.171875 37.8125 47.578125 
Q 36.03125 48 33.890625 48 
Q 26.265625 48 22.1875 43.046875 
Q 18.109375 38.09375 18.109375 28.8125 
L 18.109375 0 
L 9.078125 0 
L 9.078125 54.6875 
L 18.109375 54.6875 
L 18.109375 46.1875 
Q 20.953125 51.171875 25.484375 53.578125 
Q 30.03125 56 36.53125 56 
Q 37.453125 56 38.578125 55.875 
Q 39.703125 55.765625 41.0625 55.515625 
z
" id="DejaVuSans-114"/>
      <path d="M 45.40625 27.984375 
Q 45.40625 37.75 41.375 43.109375 
Q 37.359375 48.484375 30.078125 48.484375 
Q 22.859375 48.484375 18.828125 43.109375 
Q 14.796875 37.75 14.796875 27.984375 
Q 14.796875 18.265625 18.828125 12.890625 
Q 22.859375 7.515625 30.078125 7.515625 
Q 37.359375 7.515625 41.375 12.890625 
Q 45.40625 18.265625 45.40625 27.984375 
z
M 54.390625 6.78125 
Q 54.390625 -7.171875 48.1875 -13.984375 
Q 42 -20.796875 29.203125 -20.796875 
Q 24.46875 -20.796875 20.265625 -20.09375 
Q 16.0625 -19.390625 12.109375 -17.921875 
L 12.109375 -9.1875 
Q 16.0625 -11.328125 19.921875 -12.34375 
Q 23.78125 -13.375 27.78125 -13.375 
Q 36.625 -13.375 41.015625 -8.765625 
Q 45.40625 -4.15625 45.40625 5.171875 
L 45.40625 9.625 
Q 42.625 4.78125 38.28125 2.390625 
Q 33.9375 0 27.875 0 
Q 17.828125 0 11.671875 7.65625 
Q 5.515625 15.328125 5.515625 27.984375 
Q 5.515625 40.671875 11.671875 48.328125 
Q 17.828125 56 27.875 56 
Q 33.9375 56 38.28125 53.609375 
Q 42.625 51.21875 45.40625 46.390625 
L 45.40625 54.6875 
L 54.390625 54.6875 
z
" id="DejaVuSans-103"/>
      <path d="M 54.890625 33.015625 
L 54.890625 0 
L 45.90625 0 
L 45.90625 32.71875 
Q 45.90625 40.484375 42.875 44.328125 
Q 39.84375 48.1875 33.796875 48.1875 
Q 26.515625 48.1875 22.3125 43.546875 
Q 18.109375 38.921875 18.109375 30.90625 
L 18.109375 0 
L 9.078125 0 
L 9.078125 54.6875 
L 18.109375 54.6875 
L 18.109375 46.1875 
Q 21.34375 51.125 25.703125 53.5625 
Q 30.078125 56 35.796875 56 
Q 45.21875 56 50.046875 50.171875 
Q 54.890625 44.34375 54.890625 33.015625 
z
" id="DejaVuSans-110"/>
      <path d="M 48.78125 52.59375 
L 48.78125 44.1875 
Q 44.96875 46.296875 41.140625 47.34375 
Q 37.3125 48.390625 33.40625 48.390625 
Q 24.65625 48.390625 19.8125 42.84375 
Q 14.984375 37.3125 14.984375 27.296875 
Q 14.984375 17.28125 19.8125 11.734375 
Q 24.65625 6.203125 33.40625 6.203125 
Q 37.3125 6.203125 41.140625 7.25 
Q 44.96875 8.296875 48.78125 10.40625 
L 48.78125 2.09375 
Q 45.015625 0.34375 40.984375 -0.53125 
Q 36.96875 -1.421875 32.421875 -1.421875 
Q 20.0625 -1.421875 12.78125 6.34375 
Q 5.515625 14.109375 5.515625 27.296875 
Q 5.515625 40.671875 12.859375 48.328125 
Q 20.21875 56 33.015625 56 
Q 37.15625 56 41.109375 55.140625 
Q 45.0625 54.296875 48.78125 52.59375 
z
" id="DejaVuSans-99"/>
      <path d="M 4.203125 54.6875 
L 13.1875 54.6875 
L 24.421875 12.015625 
L 35.59375 54.6875 
L 46.1875 54.6875 
L 57.421875 12.015625 
L 68.609375 54.6875 
L 77.59375 54.6875 
L 63.28125 0 
L 52.6875 0 
L 40.921875 44.828125 
L 29.109375 0 
L 18.5 0 
z
" id="DejaVuSans-119"/>
      <path d="M 18.3125 70.21875 
L 18.3125 54.6875 
L 36.8125 54.6875 
L 36.8125 47.703125 
L 18.3125 47.703125 
L 18.3125 18.015625 
Q 18.3125 11.328125 20.140625 9.421875 
Q 21.96875 7.515625 27.59375 7.515625 
L 36.8125 7.515625 
L 36.8125 0 
L 27.59375 0 
Q 17.1875 0 13.234375 3.875 
Q 9.28125 7.765625 9.28125 18.015625 
L 9.28125 47.703125 
L 2.6875 47.703125 
L 2.6875 54.6875 
L 9.28125 54.6875 
L 9.28125 70.21875 
z
" id="DejaVuSans-116"/>
      <path d="M 54.890625 33.015625 
L 54.890625 0 
L 45.90625 0 
L 45.90625 32.71875 
Q 45.90625 40.484375 42.875 44.328125 
Q 39.84375 48.1875 33.796875 48.1875 
Q 26.515625 48.1875 22.3125 43.546875 
Q 18.109375 38.921875 18.109375 30.90625 
L 18.109375 0 
L 9.078125 0 
L 9.078125 75.984375 
L 18.109375 75.984375 
L 18.109375 46.1875 
Q 21.34375 51.125 25.703125 53.5625 
Q 30.078125 56 35.796875 56 
Q 45.21875 56 50.046875 50.171875 
Q 54.890625 44.34375 54.890625 33.015625 
z
" id="DejaVuSans-104"/>
      <path d="M 19.734375 29.5 
Q 14.453125 30.671875 12.15625 33.84375 
Q 10.453125 36.078125 10.453125 39.109375 
Q 10.453125 47.40625 18.359375 52.25 
Q 24.609375 56.0625 34.1875 56.0625 
Q 37.890625 56.0625 41.9375 55.46875 
Q 46 54.890625 50.53125 53.71875 
L 48.96875 45.5625 
Q 44.484375 46.96875 40.71875 47.609375 
Q 36.859375 48.25 33.40625 48.25 
Q 27.59375 48.25 23.78125 46 
Q 19.1875 43.3125 19.1875 39.40625 
Q 19.1875 36.8125 21.578125 35.015625 
Q 24.421875 32.859375 30.078125 32.859375 
L 37.640625 32.859375 
L 36.234375 25.4375 
L 29 25.4375 
Q 22.265625 25.4375 18.3125 22.953125 
Q 12.9375 19.578125 12.9375 14.3125 
Q 12.9375 10.984375 15.828125 8.796875 
Q 19.4375 6.0625 26.8125 6.0625 
Q 31.34375 6.0625 35.6875 6.9375 
Q 40.046875 7.859375 43.84375 9.671875 
L 42.1875 1.3125 
Q 37.546875 -0.046875 33.296875 -0.734375 
Q 29.046875 -1.421875 25.140625 -1.421875 
Q 13.53125 -1.421875 8.0625 3.03125 
Q 3.90625 6.453125 3.90625 12.203125 
Q 3.90625 19.96875 9.375 24.75 
Q 13.421875 28.328125 19.734375 29.5 
z
" id="DejaVuSans-Oblique-949"/>
     </defs>
     <g transform="translate(1217.18499 332.561303)scale(0.2 -0.2)">
      <use transform="translate(0 0.015625)" xlink:href="#DejaVuSans-77"/>
      <use transform="translate(86.279297 0.015625)" xlink:href="#DejaVuSans-97"/>
      <use transform="translate(147.558594 0.015625)" xlink:href="#DejaVuSans-120"/>
      <use transform="translate(206.738281 0.015625)" xlink:href="#DejaVuSans-32"/>
      <use transform="translate(238.525391 0.015625)" xlink:href="#DejaVuSans-74"/>
      <use transform="translate(268.017578 0.015625)" xlink:href="#DejaVuSans-83"/>
      <use transform="translate(331.494141 0.015625)" xlink:href="#DejaVuSans-32"/>
      <use transform="translate(363.28125 0.015625)" xlink:href="#DejaVuSans-68"/>
      <use transform="translate(440.283203 0.015625)" xlink:href="#DejaVuSans-105"/>
      <use transform="translate(468.066406 0.015625)" xlink:href="#DejaVuSans-118"/>
      <use transform="translate(527.246094 0.015625)" xlink:href="#DejaVuSans-101"/>
      <use transform="translate(588.769531 0.015625)" xlink:href="#DejaVuSans-114"/>
      <use transform="translate(629.882812 0.015625)" xlink:href="#DejaVuSans-103"/>
      <use transform="translate(693.359375 0.015625)" xlink:href="#DejaVuSans-101"/>
      <use transform="translate(754.882812 0.015625)" xlink:href="#DejaVuSans-110"/>
      <use transform="translate(818.261719 0.015625)" xlink:href="#DejaVuSans-99"/>
      <use transform="translate(873.242188 0.015625)" xlink:href="#DejaVuSans-101"/>
      <use transform="translate(934.765625 0.015625)" xlink:href="#DejaVuSans-32"/>
      <use transform="translate(966.552734 0.015625)" xlink:href="#DejaVuSans-119"/>
      <use transform="translate(1048.339844 0.015625)" xlink:href="#DejaVuSans-105"/>
      <use transform="translate(1076.123047 0.015625)" xlink:href="#DejaVuSans-116"/>
      <use transform="translate(1115.332031 0.015625)" xlink:href="#DejaVuSans-104"/>
      <use transform="translate(1178.710938 0.015625)" xlink:href="#DejaVuSans-105"/>
      <use transform="translate(1206.494141 0.015625)" xlink:href="#DejaVuSans-110"/>
      <use transform="translate(1269.873047 0.015625)" xlink:href="#DejaVuSans-32"/>
      <use transform="translate(1301.660156 0.015625)" xlink:href="#DejaVuSans-Oblique-949"/>
     </g>
    </g>
   </g>
   <g id="matplotlib.axis_2">
    <g id="ytick_1">
     <g id="line2d_5">
      <defs>
       <path d="M 0 0 
L -3.5 0 
" id="mb62f55141f" style="stroke:#000000;stroke-width:1.6;"/>
      </defs>
      <g>
       <use style="stroke:#000000;stroke-width:1.6;" x="1227.623324" xlink:href="#mb62f55141f" y="279.305053"/>
      </g>
     </g>
     <g id="text_6">
      <!-- 0.00 -->
      <g transform="translate(1168.392074 286.90349)scale(0.2 -0.2)">
       <use xlink:href="#DejaVuSans-48"/>
       <use x="63.623047" xlink:href="#DejaVuSans-46"/>
       <use x="95.410156" xlink:href="#DejaVuSans-48"/>
       <use x="159.033203" xlink:href="#DejaVuSans-48"/>
      </g>
     </g>
    </g>
    <g id="ytick_2">
     <g id="line2d_6">
      <g>
       <use style="stroke:#000000;stroke-width:1.6;" x="1227.623324" xlink:href="#mb62f55141f" y="211.643369"/>
      </g>
     </g>
     <g id="text_7">
      <!-- 0.05 -->
      <defs>
       <path d="M 10.796875 72.90625 
L 49.515625 72.90625 
L 49.515625 64.59375 
L 19.828125 64.59375 
L 19.828125 46.734375 
Q 21.96875 47.46875 24.109375 47.828125 
Q 26.265625 48.1875 28.421875 48.1875 
Q 40.625 48.1875 47.75 41.5 
Q 54.890625 34.8125 54.890625 23.390625 
Q 54.890625 11.625 47.5625 5.09375 
Q 40.234375 -1.421875 26.90625 -1.421875 
Q 22.3125 -1.421875 17.546875 -0.640625 
Q 12.796875 0.140625 7.71875 1.703125 
L 7.71875 11.625 
Q 12.109375 9.234375 16.796875 8.0625 
Q 21.484375 6.890625 26.703125 6.890625 
Q 35.15625 6.890625 40.078125 11.328125 
Q 45.015625 15.765625 45.015625 23.390625 
Q 45.015625 31 40.078125 35.4375 
Q 35.15625 39.890625 26.703125 39.890625 
Q 22.75 39.890625 18.8125 39.015625 
Q 14.890625 38.140625 10.796875 36.28125 
z
" id="DejaVuSans-53"/>
      </defs>
      <g transform="translate(1168.392074 219.241806)scale(0.2 -0.2)">
       <use xlink:href="#DejaVuSans-48"/>
       <use x="63.623047" xlink:href="#DejaVuSans-46"/>
       <use x="95.410156" xlink:href="#DejaVuSans-48"/>
       <use x="159.033203" xlink:href="#DejaVuSans-53"/>
      </g>
     </g>
    </g>
    <g id="ytick_3">
     <g id="line2d_7">
      <g>
       <use style="stroke:#000000;stroke-width:1.6;" x="1227.623324" xlink:href="#mb62f55141f" y="143.981684"/>
      </g>
     </g>
     <g id="text_8">
      <!-- 0.10 -->
      <defs>
       <path d="M 12.40625 8.296875 
L 28.515625 8.296875 
L 28.515625 63.921875 
L 10.984375 60.40625 
L 10.984375 69.390625 
L 28.421875 72.90625 
L 38.28125 72.90625 
L 38.28125 8.296875 
L 54.390625 8.296875 
L 54.390625 0 
L 12.40625 0 
z
" id="DejaVuSans-49"/>
      </defs>
      <g transform="translate(1168.392074 151.580122)scale(0.2 -0.2)">
       <use xlink:href="#DejaVuSans-48"/>
       <use x="63.623047" xlink:href="#DejaVuSans-46"/>
       <use x="95.410156" xlink:href="#DejaVuSans-49"/>
       <use x="159.033203" xlink:href="#DejaVuSans-48"/>
      </g>
     </g>
    </g>
    <g id="ytick_4">
     <g id="line2d_8">
      <g>
       <use style="stroke:#000000;stroke-width:1.6;" x="1227.623324" xlink:href="#mb62f55141f" y="76.32"/>
      </g>
     </g>
     <g id="text_9">
      <!-- 0.15 -->
      <g transform="translate(1168.392074 83.918437)scale(0.2 -0.2)">
       <use xlink:href="#DejaVuSans-48"/>
       <use x="63.623047" xlink:href="#DejaVuSans-46"/>
       <use x="95.410156" xlink:href="#DejaVuSans-49"/>
       <use x="159.033203" xlink:href="#DejaVuSans-53"/>
      </g>
     </g>
    </g>
   </g>
   <g id="patch_83">
    <path d="M 1227.623324 279.305053 
L 1227.623324 28.98172 
" style="fill:none;stroke:#000000;stroke-linecap:square;stroke-linejoin:miter;stroke-width:0.8;"/>
   </g>
   <g id="patch_84">
    <path d="M 1227.623324 279.305053 
L 1477.946657 279.305053 
" style="fill:none;stroke:#000000;stroke-linecap:square;stroke-linejoin:miter;stroke-width:0.8;"/>
   </g>
  </g>
  <g id="axes_2">
   <g id="patch_85">
    <path d="M 1594.836657 279.305053 
L 1845.15999 279.305053 
L 1845.15999 28.98172 
L 1594.836657 28.98172 
z
" style="fill:#ffffff;"/>
   </g>
   <g id="PolyCollection_1">
    <defs>
     <path d="M 1759.079034 -641.863105 
L 1759.079034 -641.995061 
L 1759.915932 -642.012094 
L 1760.75283 -642.031546 
L 1761.589727 -642.053676 
L 1762.426625 -642.078444 
L 1763.263523 -642.105229 
L 1764.10042 -642.132742 
L 1764.937318 -642.159216 
L 1765.774215 -642.182916 
L 1766.611113 -642.202809 
L 1767.448011 -642.219153 
L 1768.284908 -642.233713 
L 1769.121806 -642.249477 
L 1769.958704 -642.269954 
L 1770.795601 -642.298406 
L 1771.632499 -642.337337 
L 1772.469396 -642.388413 
L 1773.306294 -642.452657 
L 1774.143192 -642.530624 
L 1774.980089 -642.622303 
L 1775.816987 -642.72679 
L 1776.653885 -642.841994 
L 1777.490782 -642.964715 
L 1778.32768 -643.091329 
L 1779.164577 -643.218981 
L 1780.001475 -643.346932 
L 1780.838373 -643.477547 
L 1781.67527 -643.616471 
L 1782.512168 -643.771824 
L 1783.349065 -643.952586 
L 1784.185963 -644.166625 
L 1785.022861 -644.41892 
L 1785.859758 -644.710495 
L 1786.696656 -645.038465 
L 1787.533554 -645.397295 
L 1788.370451 -645.780885 
L 1789.207349 -646.184572 
L 1790.044246 -646.605998 
L 1790.881144 -647.044257 
L 1791.718042 -647.497836 
L 1792.554939 -647.962734 
L 1793.391837 -648.432227 
L 1794.228735 -648.898788 
L 1795.065632 -649.357231 
L 1795.90253 -649.807172 
L 1796.739427 -650.253017 
L 1797.576325 -650.70086 
L 1798.413223 -651.153392 
L 1799.25012 -651.605273 
L 1800.087018 -652.041738 
L 1800.923916 -652.441982 
L 1801.760813 -652.786606 
L 1802.597711 -653.066045 
L 1803.434608 -653.285851 
L 1804.271506 -653.465759 
L 1805.108404 -653.632232 
L 1805.945301 -653.807229 
L 1806.782199 -653.997734 
L 1807.619097 -654.190376 
L 1808.455994 -654.353373 
L 1809.292892 -654.44525 
L 1810.129789 -654.4272 
L 1810.966687 -654.274715 
L 1811.803585 -653.984436 
L 1812.640482 -653.574057 
L 1813.47738 -653.075769 
L 1814.314277 -652.526172 
L 1815.151175 -651.956666 
L 1815.988073 -651.387745 
L 1816.82497 -650.828578 
L 1817.661868 -650.280748 
L 1818.498766 -649.743411 
L 1819.335663 -649.217019 
L 1820.172561 -648.704232 
L 1821.009458 -648.208527 
L 1821.846356 -647.732259 
L 1822.683254 -647.275876 
L 1823.520151 -646.838866 
L 1824.357049 -646.421755 
L 1825.193947 -646.027723 
L 1826.030844 -645.66263 
L 1826.867742 -645.333186 
L 1827.704639 -645.044164 
L 1828.541537 -644.796266 
L 1829.378435 -644.586029 
L 1830.215332 -644.408014 
L 1831.05223 -644.258133 
L 1831.889128 -644.136207 
L 1832.726025 -644.04619 
L 1833.562923 -643.993685 
L 1834.39982 -643.981645 
L 1835.236718 -644.005952 
L 1836.073616 -644.05267 
L 1836.910513 -644.098383 
L 1837.747411 -644.114176 
L 1838.584309 -644.072578 
L 1839.421206 -643.955464 
L 1840.258104 -643.760041 
L 1841.095001 -643.50042 
L 1841.931899 -643.203901 
L 1841.931899 -640.654266 
L 1841.931899 -640.654266 
L 1841.095001 -640.357747 
L 1840.258104 -640.098126 
L 1839.421206 -639.902703 
L 1838.584309 -639.785589 
L 1837.747411 -639.74399 
L 1836.910513 -639.759783 
L 1836.073616 -639.805497 
L 1835.236718 -639.852215 
L 1834.39982 -639.876521 
L 1833.562923 -639.864482 
L 1832.726025 -639.811976 
L 1831.889128 -639.721959 
L 1831.05223 -639.600033 
L 1830.215332 -639.450153 
L 1829.378435 -639.272138 
L 1828.541537 -639.0619 
L 1827.704639 -638.814002 
L 1826.867742 -638.524981 
L 1826.030844 -638.195537 
L 1825.193947 -637.830444 
L 1824.357049 -637.436411 
L 1823.520151 -637.019301 
L 1822.683254 -636.582291 
L 1821.846356 -636.125907 
L 1821.009458 -635.64964 
L 1820.172561 -635.153935 
L 1819.335663 -634.641148 
L 1818.498766 -634.114756 
L 1817.661868 -633.577418 
L 1816.82497 -633.029589 
L 1815.988073 -632.470422 
L 1815.151175 -631.901501 
L 1814.314277 -631.331994 
L 1813.47738 -630.782398 
L 1812.640482 -630.28411 
L 1811.803585 -629.87373 
L 1810.966687 -629.583452 
L 1810.129789 -629.430967 
L 1809.292892 -629.412917 
L 1808.455994 -629.504793 
L 1807.619097 -629.667791 
L 1806.782199 -629.860432 
L 1805.945301 -630.050938 
L 1805.108404 -630.225934 
L 1804.271506 -630.392408 
L 1803.434608 -630.572315 
L 1802.597711 -630.792121 
L 1801.760813 -631.071561 
L 1800.923916 -631.416184 
L 1800.087018 -631.816428 
L 1799.25012 -632.252894 
L 1798.413223 -632.704775 
L 1797.576325 -633.157306 
L 1796.739427 -633.60515 
L 1795.90253 -634.050995 
L 1795.065632 -634.500936 
L 1794.228735 -634.959379 
L 1793.391837 -635.42594 
L 1792.554939 -635.895433 
L 1791.718042 -636.360331 
L 1790.881144 -636.81391 
L 1790.044246 -637.252169 
L 1789.207349 -637.673594 
L 1788.370451 -638.077282 
L 1787.533554 -638.460871 
L 1786.696656 -638.819702 
L 1785.859758 -639.147672 
L 1785.022861 -639.439247 
L 1784.185963 -639.691542 
L 1783.349065 -639.905581 
L 1782.512168 -640.086343 
L 1781.67527 -640.241696 
L 1780.838373 -640.38062 
L 1780.001475 -640.511235 
L 1779.164577 -640.639185 
L 1778.32768 -640.766837 
L 1777.490782 -640.893452 
L 1776.653885 -641.016173 
L 1775.816987 -641.131376 
L 1774.980089 -641.235864 
L 1774.143192 -641.327543 
L 1773.306294 -641.40551 
L 1772.469396 -641.469754 
L 1771.632499 -641.52083 
L 1770.795601 -641.559761 
L 1769.958704 -641.588213 
L 1769.121806 -641.60869 
L 1768.284908 -641.624453 
L 1767.448011 -641.639014 
L 1766.611113 -641.655357 
L 1765.774215 -641.675251 
L 1764.937318 -641.698951 
L 1764.10042 -641.725425 
L 1763.263523 -641.752937 
L 1762.426625 -641.779723 
L 1761.589727 -641.80449 
L 1760.75283 -641.826621 
L 1759.915932 -641.846073 
L 1759.079034 -641.863105 
z
" id="mea22f1bbeb" style="stroke:#333333;"/>
    </defs>
    <g clip-path="url(#pe3067831fc)">
     <use style="fill:#484566;stroke:#333333;" x="0" xlink:href="#mea22f1bbeb" y="689.685053"/>
    </g>
   </g>
   <g id="PolyCollection_2">
    <defs>
     <path d="M 1771.276034 -616.857511 
L 1771.276034 -616.935989 
L 1771.991872 -616.944931 
L 1772.70771 -616.956795 
L 1773.423548 -616.9727 
L 1774.139386 -616.993658 
L 1774.855224 -617.020344 
L 1775.571062 -617.05291 
L 1776.2869 -617.090917 
L 1777.002739 -617.133402 
L 1777.718577 -617.179093 
L 1778.434415 -617.226725 
L 1779.150253 -617.275394 
L 1779.866091 -617.324893 
L 1780.581929 -617.375947 
L 1781.297767 -617.430292 
L 1782.013605 -617.49056 
L 1782.729443 -617.55997 
L 1783.445281 -617.641862 
L 1784.16112 -617.739201 
L 1784.876958 -617.854152 
L 1785.592796 -617.987879 
L 1786.308634 -618.14061 
L 1787.024472 -618.311964 
L 1787.74031 -618.501427 
L 1788.456148 -618.708839 
L 1789.171986 -618.934742 
L 1789.887824 -619.180501 
L 1790.603662 -619.448167 
L 1791.3195 -619.740121 
L 1792.035339 -620.058571 
L 1792.751177 -620.405005 
L 1793.467015 -620.779708 
L 1794.182853 -621.181477 
L 1794.898691 -621.607628 
L 1795.614529 -622.054354 
L 1796.330367 -622.517352 
L 1797.046205 -622.992552 
L 1797.762043 -623.476684 
L 1798.477881 -623.967406 
L 1799.19372 -624.462875 
L 1799.909558 -624.960807 
L 1800.625396 -625.457322 
L 1801.341234 -625.945994 
L 1802.057072 -626.417538 
L 1802.77291 -626.860403 
L 1803.488748 -627.262235 
L 1804.204586 -627.611861 
L 1804.920424 -627.901203 
L 1805.636262 -628.126526 
L 1806.3521 -628.288661 
L 1807.067939 -628.392207 
L 1807.783777 -628.444083 
L 1808.499615 -628.451967 
L 1809.215453 -628.423066 
L 1809.931291 -628.363384 
L 1810.647129 -628.277343 
L 1811.362967 -628.167521 
L 1812.078805 -628.034345 
L 1812.794643 -627.875843 
L 1813.510481 -627.687719 
L 1814.22632 -627.464043 
L 1814.942158 -627.198629 
L 1815.657996 -626.886852 
L 1816.373834 -626.527426 
L 1817.089672 -626.12359 
L 1817.80551 -625.683317 
L 1818.521348 -625.218481 
L 1819.237186 -624.743237 
L 1819.953024 -624.272051 
L 1820.668862 -623.817901 
L 1821.3847 -623.391026 
L 1822.100539 -622.998395 
L 1822.816377 -622.64388 
L 1823.532215 -622.328943 
L 1824.248053 -622.053564 
L 1824.963891 -621.817184 
L 1825.679729 -621.61951 
L 1826.395567 -621.461143 
L 1827.111405 -621.344017 
L 1827.827243 -621.271636 
L 1828.543081 -621.248989 
L 1829.25892 -621.281991 
L 1829.974758 -621.376339 
L 1830.690596 -621.535846 
L 1831.406434 -621.76054 
L 1832.122272 -622.044938 
L 1832.83811 -622.376908 
L 1833.553948 -622.737353 
L 1834.269786 -623.100736 
L 1834.985624 -623.436364 
L 1835.701462 -623.710367 
L 1836.4173 -623.888387 
L 1837.133139 -623.939057 
L 1837.848977 -623.838109 
L 1838.564815 -623.572621 
L 1839.280653 -623.144484 
L 1839.996491 -622.572006 
L 1840.712329 -621.888801 
L 1841.428167 -621.139763 
L 1842.144005 -620.374773 
L 1842.144005 -613.418727 
L 1842.144005 -613.418727 
L 1841.428167 -612.653737 
L 1840.712329 -611.904699 
L 1839.996491 -611.221494 
L 1839.280653 -610.649016 
L 1838.564815 -610.220879 
L 1837.848977 -609.955391 
L 1837.133139 -609.854443 
L 1836.4173 -609.905113 
L 1835.701462 -610.083133 
L 1834.985624 -610.357136 
L 1834.269786 -610.692764 
L 1833.553948 -611.056147 
L 1832.83811 -611.416592 
L 1832.122272 -611.748562 
L 1831.406434 -612.03296 
L 1830.690596 -612.257654 
L 1829.974758 -612.417161 
L 1829.25892 -612.511509 
L 1828.543081 -612.544511 
L 1827.827243 -612.521864 
L 1827.111405 -612.449483 
L 1826.395567 -612.332357 
L 1825.679729 -612.17399 
L 1824.963891 -611.976316 
L 1824.248053 -611.739936 
L 1823.532215 -611.464557 
L 1822.816377 -611.14962 
L 1822.100539 -610.795105 
L 1821.3847 -610.402474 
L 1820.668862 -609.975599 
L 1819.953024 -609.521449 
L 1819.237186 -609.050263 
L 1818.521348 -608.575019 
L 1817.80551 -608.110183 
L 1817.089672 -607.66991 
L 1816.373834 -607.266074 
L 1815.657996 -606.906648 
L 1814.942158 -606.594871 
L 1814.22632 -606.329457 
L 1813.510481 -606.105781 
L 1812.794643 -605.917657 
L 1812.078805 -605.759155 
L 1811.362967 -605.625979 
L 1810.647129 -605.516157 
L 1809.931291 -605.430116 
L 1809.215453 -605.370434 
L 1808.499615 -605.341533 
L 1807.783777 -605.349417 
L 1807.067939 -605.401293 
L 1806.3521 -605.504839 
L 1805.636262 -605.666974 
L 1804.920424 -605.892297 
L 1804.204586 -606.181639 
L 1803.488748 -606.531265 
L 1802.77291 -606.933097 
L 1802.057072 -607.375962 
L 1801.341234 -607.847506 
L 1800.625396 -608.336178 
L 1799.909558 -608.832693 
L 1799.19372 -609.330625 
L 1798.477881 -609.826094 
L 1797.762043 -610.316816 
L 1797.046205 -610.800948 
L 1796.330367 -611.276148 
L 1795.614529 -611.739146 
L 1794.898691 -612.185872 
L 1794.182853 -612.612023 
L 1793.467015 -613.013792 
L 1792.751177 -613.388495 
L 1792.035339 -613.734929 
L 1791.3195 -614.053379 
L 1790.603662 -614.345333 
L 1789.887824 -614.612999 
L 1789.171986 -614.858758 
L 1788.456148 -615.084661 
L 1787.74031 -615.292073 
L 1787.024472 -615.481536 
L 1786.308634 -615.65289 
L 1785.592796 -615.805621 
L 1784.876958 -615.939348 
L 1784.16112 -616.054299 
L 1783.445281 -616.151638 
L 1782.729443 -616.23353 
L 1782.013605 -616.30294 
L 1781.297767 -616.363208 
L 1780.581929 -616.417553 
L 1779.866091 -616.468607 
L 1779.150253 -616.518106 
L 1778.434415 -616.566775 
L 1777.718577 -616.614407 
L 1777.002739 -616.660098 
L 1776.2869 -616.702583 
L 1775.571062 -616.74059 
L 1774.855224 -616.773156 
L 1774.139386 -616.799842 
L 1773.423548 -616.8208 
L 1772.70771 -616.836705 
L 1771.991872 -616.848569 
L 1771.276034 -616.857511 
z
" id="m35016dc6f9" style="stroke:#333333;"/>
    </defs>
    <g clip-path="url(#pe3067831fc)">
     <use style="fill:#b75e1a;stroke:#333333;" x="0" xlink:href="#m35016dc6f9" y="689.685053"/>
    </g>
   </g>
   <g id="PolyCollection_3">
    <defs>
     <path d="M 1776.442954 -574.775375 
L 1776.442954 -583.921125 
L 1776.931313 -583.948048 
L 1777.419671 -583.974394 
L 1777.90803 -584.000161 
L 1778.396388 -584.025346 
L 1778.884746 -584.049948 
L 1779.373105 -584.073966 
L 1779.861463 -584.097398 
L 1780.349821 -584.120243 
L 1780.83818 -584.142502 
L 1781.326538 -584.164175 
L 1781.814896 -584.185262 
L 1782.303255 -584.205762 
L 1782.791613 -584.225679 
L 1783.279972 -584.245012 
L 1783.76833 -584.263763 
L 1784.256688 -584.281934 
L 1784.745047 -584.299526 
L 1785.233405 -584.316542 
L 1785.721763 -584.332985 
L 1786.210122 -584.348856 
L 1786.69848 -584.364158 
L 1787.186839 -584.378895 
L 1787.675197 -584.393068 
L 1788.163555 -584.406681 
L 1788.651914 -584.419737 
L 1789.140272 -584.432239 
L 1789.62863 -584.44419 
L 1790.116989 -584.455593 
L 1790.605347 -584.466452 
L 1791.093705 -584.476769 
L 1791.582064 -584.486548 
L 1792.070422 -584.495791 
L 1792.558781 -584.504503 
L 1793.047139 -584.512685 
L 1793.535497 -584.52034 
L 1794.023856 -584.527472 
L 1794.512214 -584.534083 
L 1795.000572 -584.540175 
L 1795.488931 -584.54575 
L 1795.977289 -584.550812 
L 1796.465647 -584.555361 
L 1796.954006 -584.5594 
L 1797.442364 -584.562931 
L 1797.930723 -584.565954 
L 1798.419081 -584.568471 
L 1798.907439 -584.570484 
L 1799.395798 -584.571993 
L 1799.884156 -584.572998 
L 1800.372514 -584.573501 
L 1800.860873 -584.573501 
L 1801.349231 -584.572998 
L 1801.83759 -584.571993 
L 1802.325948 -584.570484 
L 1802.814306 -584.568471 
L 1803.302665 -584.565954 
L 1803.791023 -584.562931 
L 1804.279381 -584.5594 
L 1804.76774 -584.555361 
L 1805.256098 -584.550812 
L 1805.744456 -584.54575 
L 1806.232815 -584.540175 
L 1806.721173 -584.534083 
L 1807.209532 -584.527472 
L 1807.69789 -584.52034 
L 1808.186248 -584.512685 
L 1808.674607 -584.504503 
L 1809.162965 -584.495791 
L 1809.651323 -584.486548 
L 1810.139682 -584.476769 
L 1810.62804 -584.466452 
L 1811.116398 -584.455593 
L 1811.604757 -584.44419 
L 1812.093115 -584.432239 
L 1812.581474 -584.419737 
L 1813.069832 -584.406681 
L 1813.55819 -584.393068 
L 1814.046549 -584.378895 
L 1814.534907 -584.364158 
L 1815.023265 -584.348856 
L 1815.511624 -584.332985 
L 1815.999982 -584.316542 
L 1816.488341 -584.299526 
L 1816.976699 -584.281934 
L 1817.465057 -584.263763 
L 1817.953416 -584.245012 
L 1818.441774 -584.225679 
L 1818.930132 -584.205762 
L 1819.418491 -584.185262 
L 1819.906849 -584.164175 
L 1820.395207 -584.142502 
L 1820.883566 -584.120243 
L 1821.371924 -584.097398 
L 1821.860283 -584.073966 
L 1822.348641 -584.049948 
L 1822.836999 -584.025346 
L 1823.325358 -584.000161 
L 1823.813716 -583.974394 
L 1824.302074 -583.948048 
L 1824.790433 -583.921125 
L 1824.790433 -574.775375 
L 1824.790433 -574.775375 
L 1824.302074 -574.748452 
L 1823.813716 -574.722106 
L 1823.325358 -574.696339 
L 1822.836999 -574.671154 
L 1822.348641 -574.646552 
L 1821.860283 -574.622534 
L 1821.371924 -574.599102 
L 1820.883566 -574.576257 
L 1820.395207 -574.553998 
L 1819.906849 -574.532325 
L 1819.418491 -574.511238 
L 1818.930132 -574.490738 
L 1818.441774 -574.470821 
L 1817.953416 -574.451488 
L 1817.465057 -574.432737 
L 1816.976699 -574.414566 
L 1816.488341 -574.396974 
L 1815.999982 -574.379958 
L 1815.511624 -574.363515 
L 1815.023265 -574.347644 
L 1814.534907 -574.332342 
L 1814.046549 -574.317605 
L 1813.55819 -574.303432 
L 1813.069832 -574.289819 
L 1812.581474 -574.276763 
L 1812.093115 -574.264261 
L 1811.604757 -574.25231 
L 1811.116398 -574.240907 
L 1810.62804 -574.230048 
L 1810.139682 -574.219731 
L 1809.651323 -574.209952 
L 1809.162965 -574.200709 
L 1808.674607 -574.191997 
L 1808.186248 -574.183815 
L 1807.69789 -574.17616 
L 1807.209532 -574.169028 
L 1806.721173 -574.162417 
L 1806.232815 -574.156325 
L 1805.744456 -574.15075 
L 1805.256098 -574.145688 
L 1804.76774 -574.141139 
L 1804.279381 -574.1371 
L 1803.791023 -574.133569 
L 1803.302665 -574.130546 
L 1802.814306 -574.128029 
L 1802.325948 -574.126016 
L 1801.83759 -574.124507 
L 1801.349231 -574.123502 
L 1800.860873 -574.122999 
L 1800.372514 -574.122999 
L 1799.884156 -574.123502 
L 1799.395798 -574.124507 
L 1798.907439 -574.126016 
L 1798.419081 -574.128029 
L 1797.930723 -574.130546 
L 1797.442364 -574.133569 
L 1796.954006 -574.1371 
L 1796.465647 -574.141139 
L 1795.977289 -574.145688 
L 1795.488931 -574.15075 
L 1795.000572 -574.156325 
L 1794.512214 -574.162417 
L 1794.023856 -574.169028 
L 1793.535497 -574.17616 
L 1793.047139 -574.183815 
L 1792.558781 -574.191997 
L 1792.070422 -574.200709 
L 1791.582064 -574.209952 
L 1791.093705 -574.219731 
L 1790.605347 -574.230048 
L 1790.116989 -574.240907 
L 1789.62863 -574.25231 
L 1789.140272 -574.264261 
L 1788.651914 -574.276763 
L 1788.163555 -574.289819 
L 1787.675197 -574.303432 
L 1787.186839 -574.317605 
L 1786.69848 -574.332342 
L 1786.210122 -574.347644 
L 1785.721763 -574.363515 
L 1785.233405 -574.379958 
L 1784.745047 -574.396974 
L 1784.256688 -574.414566 
L 1783.76833 -574.432737 
L 1783.279972 -574.451488 
L 1782.791613 -574.470821 
L 1782.303255 -574.490738 
L 1781.814896 -574.511238 
L 1781.326538 -574.532325 
L 1780.83818 -574.553998 
L 1780.349821 -574.576257 
L 1779.861463 -574.599102 
L 1779.373105 -574.622534 
L 1778.884746 -574.646552 
L 1778.396388 -574.671154 
L 1777.90803 -574.696339 
L 1777.419671 -574.722106 
L 1776.931313 -574.748452 
L 1776.442954 -574.775375 
z
" id="m3520938c52" style="stroke:#333333;"/>
    </defs>
    <g clip-path="url(#pe3067831fc)">
     <use style="fill:#484566;stroke:#333333;" x="0" xlink:href="#m3520938c52" y="689.685053"/>
    </g>
   </g>
   <g id="PolyCollection_4">
    <defs>
     <path d="M 1783.725807 -551.679107 
L 1783.725807 -556.952726 
L 1784.267551 -557.009381 
L 1784.809294 -557.064209 
L 1785.351038 -557.117238 
L 1785.892781 -557.168516 
L 1786.434525 -557.218114 
L 1786.976268 -557.26612 
L 1787.518012 -557.312644 
L 1788.059756 -557.357811 
L 1788.601499 -557.401765 
L 1789.143243 -557.444662 
L 1789.684986 -557.486675 
L 1790.22673 -557.527989 
L 1790.768473 -557.568799 
L 1791.310217 -557.609313 
L 1791.851961 -557.649746 
L 1792.393704 -557.690321 
L 1792.935448 -557.73127 
L 1793.477191 -557.772831 
L 1794.018935 -557.815248 
L 1794.560679 -557.858768 
L 1795.102422 -557.903646 
L 1795.644166 -557.95014 
L 1796.185909 -557.998511 
L 1796.727653 -558.049024 
L 1797.269396 -558.101949 
L 1797.81114 -558.157557 
L 1798.352884 -558.216121 
L 1798.894627 -558.277917 
L 1799.436371 -558.343222 
L 1799.978114 -558.412314 
L 1800.519858 -558.485469 
L 1801.061601 -558.562961 
L 1801.603345 -558.645063 
L 1802.145089 -558.73204 
L 1802.686832 -558.824152 
L 1803.228576 -558.921651 
L 1803.770319 -559.024776 
L 1804.312063 -559.133753 
L 1804.853806 -559.248792 
L 1805.39555 -559.370083 
L 1805.937294 -559.497794 
L 1806.479037 -559.632068 
L 1807.020781 -559.773017 
L 1807.562524 -559.920725 
L 1808.104268 -560.075238 
L 1808.646011 -560.236565 
L 1809.187755 -560.404673 
L 1809.729499 -560.579485 
L 1810.271242 -560.760879 
L 1810.812986 -560.948682 
L 1811.354729 -561.142671 
L 1811.896473 -561.34257 
L 1812.438217 -561.548049 
L 1812.97996 -561.758723 
L 1813.521704 -561.974151 
L 1814.063447 -562.193838 
L 1814.605191 -562.417233 
L 1815.146934 -562.64373 
L 1815.688678 -562.872673 
L 1816.230422 -563.103352 
L 1816.772165 -563.335013 
L 1817.313909 -563.566852 
L 1817.855652 -563.798027 
L 1818.397396 -564.027656 
L 1818.939139 -564.254826 
L 1819.480883 -564.478592 
L 1820.022627 -564.697987 
L 1820.56437 -564.912026 
L 1821.106114 -565.119713 
L 1821.647857 -565.320042 
L 1822.189601 -565.512011 
L 1822.731344 -565.694622 
L 1823.273088 -565.866893 
L 1823.814832 -566.027861 
L 1824.356575 -566.176589 
L 1824.898319 -566.312177 
L 1825.440062 -566.433762 
L 1825.981806 -566.540531 
L 1826.523549 -566.631726 
L 1827.065293 -566.706648 
L 1827.607037 -566.764665 
L 1828.14878 -566.805218 
L 1828.690524 -566.827823 
L 1829.232267 -566.832083 
L 1829.774011 -566.817685 
L 1830.315755 -566.784407 
L 1830.857498 -566.73212 
L 1831.399242 -566.660795 
L 1831.940985 -566.570495 
L 1832.482729 -566.461388 
L 1833.024472 -566.333737 
L 1833.566216 -566.187905 
L 1834.10796 -566.024351 
L 1834.649703 -565.84363 
L 1835.191447 -565.646386 
L 1835.73319 -565.433354 
L 1836.274934 -565.205346 
L 1836.816677 -564.963256 
L 1837.358421 -564.708046 
L 1837.358421 -543.923788 
L 1837.358421 -543.923788 
L 1836.816677 -543.668577 
L 1836.274934 -543.426487 
L 1835.73319 -543.19848 
L 1835.191447 -542.985447 
L 1834.649703 -542.788204 
L 1834.10796 -542.607483 
L 1833.566216 -542.443929 
L 1833.024472 -542.298097 
L 1832.482729 -542.170445 
L 1831.940985 -542.061338 
L 1831.399242 -541.971039 
L 1830.857498 -541.899713 
L 1830.315755 -541.847427 
L 1829.774011 -541.814148 
L 1829.232267 -541.79975 
L 1828.690524 -541.80401 
L 1828.14878 -541.826616 
L 1827.607037 -541.867168 
L 1827.065293 -541.925185 
L 1826.523549 -542.000107 
L 1825.981806 -542.091302 
L 1825.440062 -542.198072 
L 1824.898319 -542.319657 
L 1824.356575 -542.455244 
L 1823.814832 -542.603972 
L 1823.273088 -542.76494 
L 1822.731344 -542.937211 
L 1822.189601 -543.119823 
L 1821.647857 -543.311791 
L 1821.106114 -543.512121 
L 1820.56437 -543.719807 
L 1820.022627 -543.933846 
L 1819.480883 -544.153242 
L 1818.939139 -544.377008 
L 1818.397396 -544.604177 
L 1817.855652 -544.833807 
L 1817.313909 -545.064982 
L 1816.772165 -545.296821 
L 1816.230422 -545.528481 
L 1815.688678 -545.75916 
L 1815.146934 -545.988103 
L 1814.605191 -546.2146 
L 1814.063447 -546.437995 
L 1813.521704 -546.657682 
L 1812.97996 -546.873111 
L 1812.438217 -547.083785 
L 1811.896473 -547.289264 
L 1811.354729 -547.489163 
L 1810.812986 -547.683151 
L 1810.271242 -547.870954 
L 1809.729499 -548.052348 
L 1809.187755 -548.22716 
L 1808.646011 -548.395268 
L 1808.104268 -548.556595 
L 1807.562524 -548.711108 
L 1807.020781 -548.858816 
L 1806.479037 -548.999766 
L 1805.937294 -549.134039 
L 1805.39555 -549.26175 
L 1804.853806 -549.383041 
L 1804.312063 -549.49808 
L 1803.770319 -549.607057 
L 1803.228576 -549.710182 
L 1802.686832 -549.807681 
L 1802.145089 -549.899794 
L 1801.603345 -549.986771 
L 1801.061601 -550.068872 
L 1800.519858 -550.146364 
L 1799.978114 -550.219519 
L 1799.436371 -550.288611 
L 1798.894627 -550.353916 
L 1798.352884 -550.415713 
L 1797.81114 -550.474277 
L 1797.269396 -550.529884 
L 1796.727653 -550.582809 
L 1796.185909 -550.633323 
L 1795.644166 -550.681693 
L 1795.102422 -550.728187 
L 1794.560679 -550.773065 
L 1794.018935 -550.816586 
L 1793.477191 -550.859002 
L 1792.935448 -550.900563 
L 1792.393704 -550.941512 
L 1791.851961 -550.982088 
L 1791.310217 -551.02252 
L 1790.768473 -551.063034 
L 1790.22673 -551.103844 
L 1789.684986 -551.145158 
L 1789.143243 -551.187171 
L 1788.601499 -551.230069 
L 1788.059756 -551.274022 
L 1787.518012 -551.319189 
L 1786.976268 -551.365713 
L 1786.434525 -551.41372 
L 1785.892781 -551.463317 
L 1785.351038 -551.514596 
L 1784.809294 -551.567624 
L 1784.267551 -551.622452 
L 1783.725807 -551.679107 
z
" id="ma1138fdcdf" style="stroke:#333333;"/>
    </defs>
    <g clip-path="url(#pe3067831fc)">
     <use style="fill:#b75e1a;stroke:#333333;" x="0" xlink:href="#ma1138fdcdf" y="689.685053"/>
    </g>
   </g>
   <g id="patch_86">
    <path clip-path="url(#pe3067831fc)" d="M 1611.524879 60.272136 
L 1611.524879 60.272136 
L 1611.524879 60.272136 
L 1611.524879 60.272136 
z
" style="fill:#484566;stroke:#333333;stroke-linejoin:miter;stroke-width:0.5;"/>
   </g>
   <g id="patch_87">
    <path clip-path="url(#pe3067831fc)" d="M 1611.524879 60.272136 
L 1611.524879 60.272136 
L 1611.524879 60.272136 
L 1611.524879 60.272136 
z
" style="fill:#b75e1a;stroke:#333333;stroke-linejoin:miter;stroke-width:0.5;"/>
   </g>
   <g id="matplotlib.axis_3">
    <g id="xtick_5">
     <g id="line2d_9">
      <g>
       <use style="stroke:#000000;stroke-width:1.6;" x="1611.524879" xlink:href="#m31ffe25e61" y="279.305053"/>
      </g>
     </g>
     <g id="text_10">
      <!-- 0.0 -->
      <g transform="translate(1595.621754 309.201928)scale(0.2 -0.2)">
       <use xlink:href="#DejaVuSans-48"/>
       <use x="63.623047" xlink:href="#DejaVuSans-46"/>
       <use x="95.410156" xlink:href="#DejaVuSans-48"/>
      </g>
     </g>
    </g>
    <g id="xtick_6">
     <g id="line2d_10">
      <g>
       <use style="stroke:#000000;stroke-width:1.6;" x="1678.277768" xlink:href="#m31ffe25e61" y="279.305053"/>
      </g>
     </g>
     <g id="text_11">
      <!-- 0.2 -->
      <g transform="translate(1662.374643 309.201928)scale(0.2 -0.2)">
       <use xlink:href="#DejaVuSans-48"/>
       <use x="63.623047" xlink:href="#DejaVuSans-46"/>
       <use x="95.410156" xlink:href="#DejaVuSans-50"/>
      </g>
     </g>
    </g>
    <g id="xtick_7">
     <g id="line2d_11">
      <g>
       <use style="stroke:#000000;stroke-width:1.6;" x="1745.030657" xlink:href="#m31ffe25e61" y="279.305053"/>
      </g>
     </g>
     <g id="text_12">
      <!-- 0.4 -->
      <g transform="translate(1729.127532 309.201928)scale(0.2 -0.2)">
       <use xlink:href="#DejaVuSans-48"/>
       <use x="63.623047" xlink:href="#DejaVuSans-46"/>
       <use x="95.410156" xlink:href="#DejaVuSans-52"/>
      </g>
     </g>
    </g>
    <g id="xtick_8">
     <g id="line2d_12">
      <g>
       <use style="stroke:#000000;stroke-width:1.6;" x="1811.783546" xlink:href="#m31ffe25e61" y="279.305053"/>
      </g>
     </g>
     <g id="text_13">
      <!-- 0.6 -->
      <g transform="translate(1795.880421 309.201928)scale(0.2 -0.2)">
       <use xlink:href="#DejaVuSans-48"/>
       <use x="63.623047" xlink:href="#DejaVuSans-46"/>
       <use x="95.410156" xlink:href="#DejaVuSans-54"/>
      </g>
     </g>
    </g>
    <g id="text_14">
     <!-- Max JS Divergence within $\epsilon$ -->
     <g transform="translate(1584.398324 332.561303)scale(0.2 -0.2)">
      <use transform="translate(0 0.015625)" xlink:href="#DejaVuSans-77"/>
      <use transform="translate(86.279297 0.015625)" xlink:href="#DejaVuSans-97"/>
      <use transform="translate(147.558594 0.015625)" xlink:href="#DejaVuSans-120"/>
      <use transform="translate(206.738281 0.015625)" xlink:href="#DejaVuSans-32"/>
      <use transform="translate(238.525391 0.015625)" xlink:href="#DejaVuSans-74"/>
      <use transform="translate(268.017578 0.015625)" xlink:href="#DejaVuSans-83"/>
      <use transform="translate(331.494141 0.015625)" xlink:href="#DejaVuSans-32"/>
      <use transform="translate(363.28125 0.015625)" xlink:href="#DejaVuSans-68"/>
      <use transform="translate(440.283203 0.015625)" xlink:href="#DejaVuSans-105"/>
      <use transform="translate(468.066406 0.015625)" xlink:href="#DejaVuSans-118"/>
      <use transform="translate(527.246094 0.015625)" xlink:href="#DejaVuSans-101"/>
      <use transform="translate(588.769531 0.015625)" xlink:href="#DejaVuSans-114"/>
      <use transform="translate(629.882812 0.015625)" xlink:href="#DejaVuSans-103"/>
      <use transform="translate(693.359375 0.015625)" xlink:href="#DejaVuSans-101"/>
      <use transform="translate(754.882812 0.015625)" xlink:href="#DejaVuSans-110"/>
      <use transform="translate(818.261719 0.015625)" xlink:href="#DejaVuSans-99"/>
      <use transform="translate(873.242188 0.015625)" xlink:href="#DejaVuSans-101"/>
      <use transform="translate(934.765625 0.015625)" xlink:href="#DejaVuSans-32"/>
      <use transform="translate(966.552734 0.015625)" xlink:href="#DejaVuSans-119"/>
      <use transform="translate(1048.339844 0.015625)" xlink:href="#DejaVuSans-105"/>
      <use transform="translate(1076.123047 0.015625)" xlink:href="#DejaVuSans-116"/>
      <use transform="translate(1115.332031 0.015625)" xlink:href="#DejaVuSans-104"/>
      <use transform="translate(1178.710938 0.015625)" xlink:href="#DejaVuSans-105"/>
      <use transform="translate(1206.494141 0.015625)" xlink:href="#DejaVuSans-110"/>
      <use transform="translate(1269.873047 0.015625)" xlink:href="#DejaVuSans-32"/>
      <use transform="translate(1301.660156 0.015625)" xlink:href="#DejaVuSans-Oblique-949"/>
     </g>
    </g>
   </g>
   <g id="matplotlib.axis_4">
    <g id="ytick_5">
     <g id="line2d_13">
      <g>
       <use style="stroke:#000000;stroke-width:1.6;" x="1594.836657" xlink:href="#mb62f55141f" y="60.272136"/>
      </g>
     </g>
     <g id="text_15">
      <!-- [0.00, -->
      <defs>
       <path d="M 8.59375 75.984375 
L 29.296875 75.984375 
L 29.296875 69 
L 17.578125 69 
L 17.578125 -6.203125 
L 29.296875 -6.203125 
L 29.296875 -13.1875 
L 8.59375 -13.1875 
z
" id="DejaVuSans-91"/>
       <path d="M 11.71875 12.40625 
L 22.015625 12.40625 
L 22.015625 4 
L 14.015625 -11.625 
L 7.71875 -11.625 
L 11.71875 4 
z
" id="DejaVuSans-44"/>
      </defs>
      <g transform="translate(1521.446032 56.672761)scale(0.2 -0.2)">
       <use xlink:href="#DejaVuSans-91"/>
       <use x="39.013672" xlink:href="#DejaVuSans-48"/>
       <use x="102.636719" xlink:href="#DejaVuSans-46"/>
       <use x="134.423828" xlink:href="#DejaVuSans-48"/>
       <use x="198.046875" xlink:href="#DejaVuSans-48"/>
       <use x="261.669922" xlink:href="#DejaVuSans-44"/>
      </g>
      <!-- 0.25) -->
      <defs>
       <path d="M 8.015625 75.875 
L 15.828125 75.875 
Q 23.140625 64.359375 26.78125 53.3125 
Q 30.421875 42.28125 30.421875 31.390625 
Q 30.421875 20.453125 26.78125 9.375 
Q 23.140625 -1.703125 15.828125 -13.1875 
L 8.015625 -13.1875 
Q 14.5 -2 17.703125 9.0625 
Q 20.90625 20.125 20.90625 31.390625 
Q 20.90625 42.671875 17.703125 53.65625 
Q 14.5 64.65625 8.015625 75.875 
z
" id="DejaVuSans-41"/>
      </defs>
      <g transform="translate(1527.802282 79.068386)scale(0.2 -0.2)">
       <use xlink:href="#DejaVuSans-48"/>
       <use x="63.623047" xlink:href="#DejaVuSans-46"/>
       <use x="95.410156" xlink:href="#DejaVuSans-50"/>
       <use x="159.033203" xlink:href="#DejaVuSans-53"/>
       <use x="222.65625" xlink:href="#DejaVuSans-41"/>
      </g>
     </g>
    </g>
    <g id="ytick_6">
     <g id="line2d_14">
      <g>
       <use style="stroke:#000000;stroke-width:1.6;" x="1594.836657" xlink:href="#mb62f55141f" y="122.85297"/>
      </g>
     </g>
     <g id="text_16">
      <!-- [0.25, -->
      <g transform="translate(1521.446032 119.253595)scale(0.2 -0.2)">
       <use xlink:href="#DejaVuSans-91"/>
       <use x="39.013672" xlink:href="#DejaVuSans-48"/>
       <use x="102.636719" xlink:href="#DejaVuSans-46"/>
       <use x="134.423828" xlink:href="#DejaVuSans-50"/>
       <use x="198.046875" xlink:href="#DejaVuSans-53"/>
       <use x="261.669922" xlink:href="#DejaVuSans-44"/>
      </g>
      <!-- 0.50) -->
      <g transform="translate(1527.802282 141.64922)scale(0.2 -0.2)">
       <use xlink:href="#DejaVuSans-48"/>
       <use x="63.623047" xlink:href="#DejaVuSans-46"/>
       <use x="95.410156" xlink:href="#DejaVuSans-53"/>
       <use x="159.033203" xlink:href="#DejaVuSans-48"/>
       <use x="222.65625" xlink:href="#DejaVuSans-41"/>
      </g>
     </g>
    </g>
    <g id="ytick_7">
     <g id="line2d_15">
      <g>
       <use style="stroke:#000000;stroke-width:1.6;" x="1594.836657" xlink:href="#mb62f55141f" y="185.433803"/>
      </g>
     </g>
     <g id="text_17">
      <!-- [0.50, -->
      <g transform="translate(1521.446032 181.834428)scale(0.2 -0.2)">
       <use xlink:href="#DejaVuSans-91"/>
       <use x="39.013672" xlink:href="#DejaVuSans-48"/>
       <use x="102.636719" xlink:href="#DejaVuSans-46"/>
       <use x="134.423828" xlink:href="#DejaVuSans-53"/>
       <use x="198.046875" xlink:href="#DejaVuSans-48"/>
       <use x="261.669922" xlink:href="#DejaVuSans-44"/>
      </g>
      <!-- 0.75) -->
      <defs>
       <path d="M 8.203125 72.90625 
L 55.078125 72.90625 
L 55.078125 68.703125 
L 28.609375 0 
L 18.3125 0 
L 43.21875 64.59375 
L 8.203125 64.59375 
z
" id="DejaVuSans-55"/>
      </defs>
      <g transform="translate(1527.802282 204.230053)scale(0.2 -0.2)">
       <use xlink:href="#DejaVuSans-48"/>
       <use x="63.623047" xlink:href="#DejaVuSans-46"/>
       <use x="95.410156" xlink:href="#DejaVuSans-55"/>
       <use x="159.033203" xlink:href="#DejaVuSans-53"/>
       <use x="222.65625" xlink:href="#DejaVuSans-41"/>
      </g>
     </g>
    </g>
    <g id="ytick_8">
     <g id="line2d_16">
      <g>
       <use style="stroke:#000000;stroke-width:1.6;" x="1594.836657" xlink:href="#mb62f55141f" y="248.014636"/>
      </g>
     </g>
     <g id="text_18">
      <!-- [0.75, -->
      <g transform="translate(1521.446032 244.415261)scale(0.2 -0.2)">
       <use xlink:href="#DejaVuSans-91"/>
       <use x="39.013672" xlink:href="#DejaVuSans-48"/>
       <use x="102.636719" xlink:href="#DejaVuSans-46"/>
       <use x="134.423828" xlink:href="#DejaVuSans-55"/>
       <use x="198.046875" xlink:href="#DejaVuSans-53"/>
       <use x="261.669922" xlink:href="#DejaVuSans-44"/>
      </g>
      <!-- 1.00) -->
      <g transform="translate(1527.802282 266.810886)scale(0.2 -0.2)">
       <use xlink:href="#DejaVuSans-49"/>
       <use x="63.623047" xlink:href="#DejaVuSans-46"/>
       <use x="95.410156" xlink:href="#DejaVuSans-48"/>
       <use x="159.033203" xlink:href="#DejaVuSans-48"/>
       <use x="222.65625" xlink:href="#DejaVuSans-41"/>
      </g>
     </g>
    </g>
    <g id="text_19">
     <!-- Max Attention -->
     <defs>
      <path d="M 34.1875 63.1875 
L 20.796875 26.90625 
L 47.609375 26.90625 
z
M 28.609375 72.90625 
L 39.796875 72.90625 
L 67.578125 0 
L 57.328125 0 
L 50.6875 18.703125 
L 17.828125 18.703125 
L 11.1875 0 
L 0.78125 0 
z
" id="DejaVuSans-65"/>
      <path d="M 30.609375 48.390625 
Q 23.390625 48.390625 19.1875 42.75 
Q 14.984375 37.109375 14.984375 27.296875 
Q 14.984375 17.484375 19.15625 11.84375 
Q 23.34375 6.203125 30.609375 6.203125 
Q 37.796875 6.203125 41.984375 11.859375 
Q 46.1875 17.53125 46.1875 27.296875 
Q 46.1875 37.015625 41.984375 42.703125 
Q 37.796875 48.390625 30.609375 48.390625 
z
M 30.609375 56 
Q 42.328125 56 49.015625 48.375 
Q 55.71875 40.765625 55.71875 27.296875 
Q 55.71875 13.875 49.015625 6.21875 
Q 42.328125 -1.421875 30.609375 -1.421875 
Q 18.84375 -1.421875 12.171875 6.21875 
Q 5.515625 13.875 5.515625 27.296875 
Q 5.515625 40.765625 12.171875 48.375 
Q 18.84375 56 30.609375 56 
z
" id="DejaVuSans-111"/>
     </defs>
     <g transform="translate(1513.286657 224.321511)rotate(-90)scale(0.2 -0.2)">
      <use xlink:href="#DejaVuSans-77"/>
      <use x="86.279297" xlink:href="#DejaVuSans-97"/>
      <use x="147.558594" xlink:href="#DejaVuSans-120"/>
      <use x="206.738281" xlink:href="#DejaVuSans-32"/>
      <use x="238.525391" xlink:href="#DejaVuSans-65"/>
      <use x="306.917969" xlink:href="#DejaVuSans-116"/>
      <use x="346.126953" xlink:href="#DejaVuSans-116"/>
      <use x="385.335938" xlink:href="#DejaVuSans-101"/>
      <use x="446.859375" xlink:href="#DejaVuSans-110"/>
      <use x="510.238281" xlink:href="#DejaVuSans-116"/>
      <use x="549.447266" xlink:href="#DejaVuSans-105"/>
      <use x="577.230469" xlink:href="#DejaVuSans-111"/>
      <use x="638.412109" xlink:href="#DejaVuSans-110"/>
     </g>
    </g>
   </g>
   <g id="line2d_17">
    <path clip-path="url(#pe3067831fc)" d="M 1799.184417 38.176542 
L 1799.184417 57.335397 
" style="fill:none;stroke:#333333;stroke-dasharray:1.5,1.5;stroke-dashoffset:0;"/>
   </g>
   <g id="line2d_18">
    <path clip-path="url(#pe3067831fc)" d="M 1807.98879 35.61729 
L 1807.98879 59.894649 
" style="fill:none;stroke:#333333;stroke-dasharray:3,3;stroke-dashoffset:0;"/>
   </g>
   <g id="line2d_19">
    <path clip-path="url(#pe3067831fc)" d="M 1816.106829 38.391894 
L 1816.106829 57.120045 
" style="fill:none;stroke:#333333;stroke-dasharray:1.5,1.5;stroke-dashoffset:0;"/>
   </g>
   <g id="line2d_20">
    <path clip-path="url(#pe3067831fc)" d="M 1804.280535 62.180343 
L 1804.280535 83.396263 
" style="fill:none;stroke:#333333;stroke-dasharray:1.5,1.5;stroke-dashoffset:0;"/>
   </g>
   <g id="line2d_21">
    <path clip-path="url(#pe3067831fc)" d="M 1812.688856 61.919 
L 1812.688856 83.657605 
" style="fill:none;stroke:#333333;stroke-dasharray:3,3;stroke-dashoffset:0;"/>
   </g>
   <g id="line2d_22">
    <path clip-path="url(#pe3067831fc)" d="M 1824.758303 67.917073 
L 1824.758303 77.659532 
" style="fill:none;stroke:#333333;stroke-dasharray:1.5,1.5;stroke-dashoffset:0;"/>
   </g>
   <g id="line2d_23">
    <path clip-path="url(#pe3067831fc)" d="M 1788.820286 105.316031 
L 1788.820286 115.357575 
" style="fill:none;stroke:#333333;stroke-dasharray:1.5,1.5;stroke-dashoffset:0;"/>
   </g>
   <g id="line2d_24">
    <path clip-path="url(#pe3067831fc)" d="M 1800.616694 105.163804 
L 1800.616694 115.509801 
" style="fill:none;stroke:#333333;stroke-dasharray:3,3;stroke-dashoffset:0;"/>
   </g>
   <g id="line2d_25">
    <path clip-path="url(#pe3067831fc)" d="M 1812.413102 105.316031 
L 1812.413102 115.357575 
" style="fill:none;stroke:#333333;stroke-dasharray:1.5,1.5;stroke-dashoffset:0;"/>
   </g>
   <g id="line2d_26">
    <path clip-path="url(#pe3067831fc)" d="M 1815.643893 126.897947 
L 1815.643893 143.840325 
" style="fill:none;stroke:#333333;stroke-dasharray:1.5,1.5;stroke-dashoffset:0;"/>
   </g>
   <g id="line2d_27">
    <path clip-path="url(#pe3067831fc)" d="M 1824.483886 123.62707 
L 1824.483886 147.111202 
" style="fill:none;stroke:#333333;stroke-dasharray:3,3;stroke-dashoffset:0;"/>
   </g>
   <g id="line2d_28">
    <path clip-path="url(#pe3067831fc)" d="M 1833.41117 123.615868 
L 1833.41117 147.122404 
" style="fill:none;stroke:#333333;stroke-dasharray:1.5,1.5;stroke-dashoffset:0;"/>
   </g>
   <g id="patch_88">
    <path d="M 1594.836657 279.305053 
L 1594.836657 28.98172 
" style="fill:none;stroke:#000000;stroke-linecap:square;stroke-linejoin:miter;stroke-width:0.8;"/>
   </g>
   <g id="patch_89">
    <path d="M 1594.836657 279.305053 
L 1845.15999 279.305053 
" style="fill:none;stroke:#000000;stroke-linecap:square;stroke-linejoin:miter;stroke-width:0.8;"/>
   </g>
  </g>
 </g>
 <defs>
  <clipPath id="p5e73431bf4">
   <rect height="250.323333" width="250.323333" x="1227.623324" y="28.98172"/>
  </clipPath>
  <clipPath id="pe3067831fc">
   <rect height="250.323333" width="250.323333" x="1594.836657" y="28.98172"/>
  </clipPath>
 </defs>
</svg>
