<?xml version="1.0" encoding="utf-8" standalone="no"?>
<!DOCTYPE svg PUBLIC "-//W3C//DTD SVG 1.1//EN"
  "http://www.w3.org/Graphics/SVG/1.1/DTD/svg11.dtd">
<!-- Created with matplotlib (https://matplotlib.org/) -->
<svg height="1403.595pt" version="1.1" viewBox="0 0 2705.56998 1403.595" width="2705.56998pt" xmlns="http://www.w3.org/2000/svg" xmlns:xlink="http://www.w3.org/1999/xlink">
 <defs>
  <style type="text/css">
*{stroke-linecap:butt;stroke-linejoin:round;}
  </style>
 </defs>
 <g id="figure_1">
  <g id="patch_1">
   <path d="M 0 1403.595 
L 2705.56998 1403.595 
L 2705.56998 0 
L 0 0 
z
" style="fill:#ffffff;"/>
  </g>
  <g id="axes_1">
   <g id="patch_2">
    <path d="M 860.40999 826.959167 
L 1110.733324 826.959167 
L 1110.733324 576.635833 
L 860.40999 576.635833 
z
" style="fill:#ffffff;"/>
   </g>
   <g id="patch_3">
    <path clip-path="url(#p688a0ceb29)" d="M 871.788324 826.959167 
L 877.47749 826.959167 
L 877.47749 826.959167 
L 871.788324 826.959167 
z
" style="fill:#43406b;opacity:0.6;stroke:#000000;stroke-linejoin:miter;stroke-width:0.5;"/>
   </g>
   <g id="patch_4">
    <path clip-path="url(#p688a0ceb29)" d="M 877.47749 826.959167 
L 883.166657 826.959167 
L 883.166657 826.959167 
L 877.47749 826.959167 
z
" style="fill:#43406b;opacity:0.6;stroke:#000000;stroke-linejoin:miter;stroke-width:0.5;"/>
   </g>
   <g id="patch_5">
    <path clip-path="url(#p688a0ceb29)" d="M 883.166657 826.959167 
L 888.855824 826.959167 
L 888.855824 826.959167 
L 883.166657 826.959167 
z
" style="fill:#43406b;opacity:0.6;stroke:#000000;stroke-linejoin:miter;stroke-width:0.5;"/>
   </g>
   <g id="patch_6">
    <path clip-path="url(#p688a0ceb29)" d="M 888.855824 826.959167 
L 894.54499 826.959167 
L 894.54499 826.959167 
L 888.855824 826.959167 
z
" style="fill:#43406b;opacity:0.6;stroke:#000000;stroke-linejoin:miter;stroke-width:0.5;"/>
   </g>
   <g id="patch_7">
    <path clip-path="url(#p688a0ceb29)" d="M 894.54499 826.959167 
L 900.234157 826.959167 
L 900.234157 826.959167 
L 894.54499 826.959167 
z
" style="fill:#43406b;opacity:0.6;stroke:#000000;stroke-linejoin:miter;stroke-width:0.5;"/>
   </g>
   <g id="patch_8">
    <path clip-path="url(#p688a0ceb29)" d="M 900.234157 826.959167 
L 905.923324 826.959167 
L 905.923324 826.959167 
L 900.234157 826.959167 
z
" style="fill:#43406b;opacity:0.6;stroke:#000000;stroke-linejoin:miter;stroke-width:0.5;"/>
   </g>
   <g id="patch_9">
    <path clip-path="url(#p688a0ceb29)" d="M 905.923324 826.959167 
L 911.61249 826.959167 
L 911.61249 826.959167 
L 905.923324 826.959167 
z
" style="fill:#43406b;opacity:0.6;stroke:#000000;stroke-linejoin:miter;stroke-width:0.5;"/>
   </g>
   <g id="patch_10">
    <path clip-path="url(#p688a0ceb29)" d="M 911.61249 826.959167 
L 917.301657 826.959167 
L 917.301657 826.959167 
L 911.61249 826.959167 
z
" style="fill:#43406b;opacity:0.6;stroke:#000000;stroke-linejoin:miter;stroke-width:0.5;"/>
   </g>
   <g id="patch_11">
    <path clip-path="url(#p688a0ceb29)" d="M 917.301657 826.959167 
L 922.990824 826.959167 
L 922.990824 826.959167 
L 917.301657 826.959167 
z
" style="fill:#43406b;opacity:0.6;stroke:#000000;stroke-linejoin:miter;stroke-width:0.5;"/>
   </g>
   <g id="patch_12">
    <path clip-path="url(#p688a0ceb29)" d="M 922.990824 826.959167 
L 928.67999 826.959167 
L 928.67999 826.959167 
L 922.990824 826.959167 
z
" style="fill:#43406b;opacity:0.6;stroke:#000000;stroke-linejoin:miter;stroke-width:0.5;"/>
   </g>
   <g id="patch_13">
    <path clip-path="url(#p688a0ceb29)" d="M 928.67999 826.959167 
L 934.369157 826.959167 
L 934.369157 826.959167 
L 928.67999 826.959167 
z
" style="fill:#43406b;opacity:0.6;stroke:#000000;stroke-linejoin:miter;stroke-width:0.5;"/>
   </g>
   <g id="patch_14">
    <path clip-path="url(#p688a0ceb29)" d="M 934.369157 826.959167 
L 940.058324 826.959167 
L 940.058324 826.959167 
L 934.369157 826.959167 
z
" style="fill:#43406b;opacity:0.6;stroke:#000000;stroke-linejoin:miter;stroke-width:0.5;"/>
   </g>
   <g id="patch_15">
    <path clip-path="url(#p688a0ceb29)" d="M 940.058324 826.959167 
L 945.74749 826.959167 
L 945.74749 826.959167 
L 940.058324 826.959167 
z
" style="fill:#43406b;opacity:0.6;stroke:#000000;stroke-linejoin:miter;stroke-width:0.5;"/>
   </g>
   <g id="patch_16">
    <path clip-path="url(#p688a0ceb29)" d="M 945.74749 826.959167 
L 951.436657 826.959167 
L 951.436657 826.959167 
L 945.74749 826.959167 
z
" style="fill:#43406b;opacity:0.6;stroke:#000000;stroke-linejoin:miter;stroke-width:0.5;"/>
   </g>
   <g id="patch_17">
    <path clip-path="url(#p688a0ceb29)" d="M 951.436657 826.959167 
L 957.125824 826.959167 
L 957.125824 826.959167 
L 951.436657 826.959167 
z
" style="fill:#43406b;opacity:0.6;stroke:#000000;stroke-linejoin:miter;stroke-width:0.5;"/>
   </g>
   <g id="patch_18">
    <path clip-path="url(#p688a0ceb29)" d="M 957.125824 826.959167 
L 962.81499 826.959167 
L 962.81499 826.959167 
L 957.125824 826.959167 
z
" style="fill:#43406b;opacity:0.6;stroke:#000000;stroke-linejoin:miter;stroke-width:0.5;"/>
   </g>
   <g id="patch_19">
    <path clip-path="url(#p688a0ceb29)" d="M 962.81499 826.959167 
L 968.504157 826.959167 
L 968.504157 826.959167 
L 962.81499 826.959167 
z
" style="fill:#43406b;opacity:0.6;stroke:#000000;stroke-linejoin:miter;stroke-width:0.5;"/>
   </g>
   <g id="patch_20">
    <path clip-path="url(#p688a0ceb29)" d="M 968.504157 826.959167 
L 974.193324 826.959167 
L 974.193324 826.959167 
L 968.504157 826.959167 
z
" style="fill:#43406b;opacity:0.6;stroke:#000000;stroke-linejoin:miter;stroke-width:0.5;"/>
   </g>
   <g id="patch_21">
    <path clip-path="url(#p688a0ceb29)" d="M 974.193324 826.959167 
L 979.88249 826.959167 
L 979.88249 826.959167 
L 974.193324 826.959167 
z
" style="fill:#43406b;opacity:0.6;stroke:#000000;stroke-linejoin:miter;stroke-width:0.5;"/>
   </g>
   <g id="patch_22">
    <path clip-path="url(#p688a0ceb29)" d="M 979.88249 826.959167 
L 985.571657 826.959167 
L 985.571657 826.959167 
L 979.88249 826.959167 
z
" style="fill:#43406b;opacity:0.6;stroke:#000000;stroke-linejoin:miter;stroke-width:0.5;"/>
   </g>
   <g id="patch_23">
    <path clip-path="url(#p688a0ceb29)" d="M 985.571657 826.959167 
L 991.260824 826.959167 
L 991.260824 826.959167 
L 985.571657 826.959167 
z
" style="fill:#43406b;opacity:0.6;stroke:#000000;stroke-linejoin:miter;stroke-width:0.5;"/>
   </g>
   <g id="patch_24">
    <path clip-path="url(#p688a0ceb29)" d="M 991.260824 826.959167 
L 996.94999 826.959167 
L 996.94999 826.959167 
L 991.260824 826.959167 
z
" style="fill:#43406b;opacity:0.6;stroke:#000000;stroke-linejoin:miter;stroke-width:0.5;"/>
   </g>
   <g id="patch_25">
    <path clip-path="url(#p688a0ceb29)" d="M 996.94999 826.959167 
L 1002.639157 826.959167 
L 1002.639157 826.959167 
L 996.94999 826.959167 
z
" style="fill:#43406b;opacity:0.6;stroke:#000000;stroke-linejoin:miter;stroke-width:0.5;"/>
   </g>
   <g id="patch_26">
    <path clip-path="url(#p688a0ceb29)" d="M 1002.639157 826.959167 
L 1008.328324 826.959167 
L 1008.328324 826.959167 
L 1002.639157 826.959167 
z
" style="fill:#43406b;opacity:0.6;stroke:#000000;stroke-linejoin:miter;stroke-width:0.5;"/>
   </g>
   <g id="patch_27">
    <path clip-path="url(#p688a0ceb29)" d="M 1008.328324 826.959167 
L 1014.01749 826.959167 
L 1014.01749 826.959167 
L 1008.328324 826.959167 
z
" style="fill:#43406b;opacity:0.6;stroke:#000000;stroke-linejoin:miter;stroke-width:0.5;"/>
   </g>
   <g id="patch_28">
    <path clip-path="url(#p688a0ceb29)" d="M 1014.01749 826.959167 
L 1019.706657 826.959167 
L 1019.706657 825.718806 
L 1014.01749 825.718806 
z
" style="fill:#43406b;opacity:0.6;stroke:#000000;stroke-linejoin:miter;stroke-width:0.5;"/>
   </g>
   <g id="patch_29">
    <path clip-path="url(#p688a0ceb29)" d="M 1019.706657 826.959167 
L 1025.395824 826.959167 
L 1025.395824 820.757362 
L 1019.706657 820.757362 
z
" style="fill:#43406b;opacity:0.6;stroke:#000000;stroke-linejoin:miter;stroke-width:0.5;"/>
   </g>
   <g id="patch_30">
    <path clip-path="url(#p688a0ceb29)" d="M 1025.395824 826.959167 
L 1031.08499 826.959167 
L 1031.08499 820.137182 
L 1025.395824 820.137182 
z
" style="fill:#43406b;opacity:0.6;stroke:#000000;stroke-linejoin:miter;stroke-width:0.5;"/>
   </g>
   <g id="patch_31">
    <path clip-path="url(#p688a0ceb29)" d="M 1031.08499 826.959167 
L 1036.774157 826.959167 
L 1036.774157 803.392311 
L 1031.08499 803.392311 
z
" style="fill:#43406b;opacity:0.6;stroke:#000000;stroke-linejoin:miter;stroke-width:0.5;"/>
   </g>
   <g id="patch_32">
    <path clip-path="url(#p688a0ceb29)" d="M 1036.774157 826.959167 
L 1042.463324 826.959167 
L 1042.463324 787.8878 
L 1036.774157 787.8878 
z
" style="fill:#43406b;opacity:0.6;stroke:#000000;stroke-linejoin:miter;stroke-width:0.5;"/>
   </g>
   <g id="patch_33">
    <path clip-path="url(#p688a0ceb29)" d="M 1042.463324 826.959167 
L 1048.15249 826.959167 
L 1048.15249 742.614629 
L 1042.463324 742.614629 
z
" style="fill:#43406b;opacity:0.6;stroke:#000000;stroke-linejoin:miter;stroke-width:0.5;"/>
   </g>
   <g id="patch_34">
    <path clip-path="url(#p688a0ceb29)" d="M 1048.15249 826.959167 
L 1053.841657 826.959167 
L 1053.841657 669.433339 
L 1048.15249 669.433339 
z
" style="fill:#43406b;opacity:0.6;stroke:#000000;stroke-linejoin:miter;stroke-width:0.5;"/>
   </g>
   <g id="patch_35">
    <path clip-path="url(#p688a0ceb29)" d="M 1053.841657 826.959167 
L 1059.530824 826.959167 
L 1059.530824 609.896018 
L 1053.841657 609.896018 
z
" style="fill:#43406b;opacity:0.6;stroke:#000000;stroke-linejoin:miter;stroke-width:0.5;"/>
   </g>
   <g id="patch_36">
    <path clip-path="url(#p688a0ceb29)" d="M 1059.530824 826.959167 
L 1065.21999 826.959167 
L 1065.21999 590.670425 
L 1059.530824 590.670425 
z
" style="fill:#43406b;opacity:0.6;stroke:#000000;stroke-linejoin:miter;stroke-width:0.5;"/>
   </g>
   <g id="patch_37">
    <path clip-path="url(#p688a0ceb29)" d="M 1065.21999 826.959167 
L 1070.909157 826.959167 
L 1070.909157 590.670425 
L 1065.21999 590.670425 
z
" style="fill:#43406b;opacity:0.6;stroke:#000000;stroke-linejoin:miter;stroke-width:0.5;"/>
   </g>
   <g id="patch_38">
    <path clip-path="url(#p688a0ceb29)" d="M 1070.909157 826.959167 
L 1076.598324 826.959167 
L 1076.598324 678.115865 
L 1070.909157 678.115865 
z
" style="fill:#43406b;opacity:0.6;stroke:#000000;stroke-linejoin:miter;stroke-width:0.5;"/>
   </g>
   <g id="patch_39">
    <path clip-path="url(#p688a0ceb29)" d="M 1076.598324 826.959167 
L 1082.28749 826.959167 
L 1082.28749 741.994449 
L 1076.598324 741.994449 
z
" style="fill:#43406b;opacity:0.6;stroke:#000000;stroke-linejoin:miter;stroke-width:0.5;"/>
   </g>
   <g id="patch_40">
    <path clip-path="url(#p688a0ceb29)" d="M 1082.28749 826.959167 
L 1087.976657 826.959167 
L 1087.976657 782.306176 
L 1082.28749 782.306176 
z
" style="fill:#43406b;opacity:0.6;stroke:#000000;stroke-linejoin:miter;stroke-width:0.5;"/>
   </g>
   <g id="patch_41">
    <path clip-path="url(#p688a0ceb29)" d="M 1087.976657 826.959167 
L 1093.665824 826.959167 
L 1093.665824 782.926357 
L 1087.976657 782.926357 
z
" style="fill:#43406b;opacity:0.6;stroke:#000000;stroke-linejoin:miter;stroke-width:0.5;"/>
   </g>
   <g id="patch_42">
    <path clip-path="url(#p688a0ceb29)" d="M 1093.665824 826.959167 
L 1099.35499 826.959167 
L 1099.35499 804.632671 
L 1093.665824 804.632671 
z
" style="fill:#43406b;opacity:0.6;stroke:#000000;stroke-linejoin:miter;stroke-width:0.5;"/>
   </g>
   <g id="patch_43">
    <path clip-path="url(#p688a0ceb29)" d="M 871.788324 826.959167 
L 877.47749 826.959167 
L 877.47749 826.959167 
L 871.788324 826.959167 
z
" style="fill:#d15a00;opacity:0.6;stroke:#000000;stroke-linejoin:miter;stroke-width:0.5;"/>
   </g>
   <g id="patch_44">
    <path clip-path="url(#p688a0ceb29)" d="M 877.47749 826.959167 
L 883.166657 826.959167 
L 883.166657 826.959167 
L 877.47749 826.959167 
z
" style="fill:#d15a00;opacity:0.6;stroke:#000000;stroke-linejoin:miter;stroke-width:0.5;"/>
   </g>
   <g id="patch_45">
    <path clip-path="url(#p688a0ceb29)" d="M 883.166657 826.959167 
L 888.855824 826.959167 
L 888.855824 826.959167 
L 883.166657 826.959167 
z
" style="fill:#d15a00;opacity:0.6;stroke:#000000;stroke-linejoin:miter;stroke-width:0.5;"/>
   </g>
   <g id="patch_46">
    <path clip-path="url(#p688a0ceb29)" d="M 888.855824 826.959167 
L 894.54499 826.959167 
L 894.54499 826.959167 
L 888.855824 826.959167 
z
" style="fill:#d15a00;opacity:0.6;stroke:#000000;stroke-linejoin:miter;stroke-width:0.5;"/>
   </g>
   <g id="patch_47">
    <path clip-path="url(#p688a0ceb29)" d="M 894.54499 826.959167 
L 900.234157 826.959167 
L 900.234157 826.959167 
L 894.54499 826.959167 
z
" style="fill:#d15a00;opacity:0.6;stroke:#000000;stroke-linejoin:miter;stroke-width:0.5;"/>
   </g>
   <g id="patch_48">
    <path clip-path="url(#p688a0ceb29)" d="M 900.234157 826.959167 
L 905.923324 826.959167 
L 905.923324 826.959167 
L 900.234157 826.959167 
z
" style="fill:#d15a00;opacity:0.6;stroke:#000000;stroke-linejoin:miter;stroke-width:0.5;"/>
   </g>
   <g id="patch_49">
    <path clip-path="url(#p688a0ceb29)" d="M 905.923324 826.959167 
L 911.61249 826.959167 
L 911.61249 826.959167 
L 905.923324 826.959167 
z
" style="fill:#d15a00;opacity:0.6;stroke:#000000;stroke-linejoin:miter;stroke-width:0.5;"/>
   </g>
   <g id="patch_50">
    <path clip-path="url(#p688a0ceb29)" d="M 911.61249 826.959167 
L 917.301657 826.959167 
L 917.301657 826.959167 
L 911.61249 826.959167 
z
" style="fill:#d15a00;opacity:0.6;stroke:#000000;stroke-linejoin:miter;stroke-width:0.5;"/>
   </g>
   <g id="patch_51">
    <path clip-path="url(#p688a0ceb29)" d="M 917.301657 826.959167 
L 922.990824 826.959167 
L 922.990824 826.959167 
L 917.301657 826.959167 
z
" style="fill:#d15a00;opacity:0.6;stroke:#000000;stroke-linejoin:miter;stroke-width:0.5;"/>
   </g>
   <g id="patch_52">
    <path clip-path="url(#p688a0ceb29)" d="M 922.990824 826.959167 
L 928.67999 826.959167 
L 928.67999 826.959167 
L 922.990824 826.959167 
z
" style="fill:#d15a00;opacity:0.6;stroke:#000000;stroke-linejoin:miter;stroke-width:0.5;"/>
   </g>
   <g id="patch_53">
    <path clip-path="url(#p688a0ceb29)" d="M 928.67999 826.959167 
L 934.369157 826.959167 
L 934.369157 826.959167 
L 928.67999 826.959167 
z
" style="fill:#d15a00;opacity:0.6;stroke:#000000;stroke-linejoin:miter;stroke-width:0.5;"/>
   </g>
   <g id="patch_54">
    <path clip-path="url(#p688a0ceb29)" d="M 934.369157 826.959167 
L 940.058324 826.959167 
L 940.058324 826.959167 
L 934.369157 826.959167 
z
" style="fill:#d15a00;opacity:0.6;stroke:#000000;stroke-linejoin:miter;stroke-width:0.5;"/>
   </g>
   <g id="patch_55">
    <path clip-path="url(#p688a0ceb29)" d="M 940.058324 826.959167 
L 945.74749 826.959167 
L 945.74749 826.959167 
L 940.058324 826.959167 
z
" style="fill:#d15a00;opacity:0.6;stroke:#000000;stroke-linejoin:miter;stroke-width:0.5;"/>
   </g>
   <g id="patch_56">
    <path clip-path="url(#p688a0ceb29)" d="M 945.74749 826.959167 
L 951.436657 826.959167 
L 951.436657 826.959167 
L 945.74749 826.959167 
z
" style="fill:#d15a00;opacity:0.6;stroke:#000000;stroke-linejoin:miter;stroke-width:0.5;"/>
   </g>
   <g id="patch_57">
    <path clip-path="url(#p688a0ceb29)" d="M 951.436657 826.959167 
L 957.125824 826.959167 
L 957.125824 826.959167 
L 951.436657 826.959167 
z
" style="fill:#d15a00;opacity:0.6;stroke:#000000;stroke-linejoin:miter;stroke-width:0.5;"/>
   </g>
   <g id="patch_58">
    <path clip-path="url(#p688a0ceb29)" d="M 957.125824 826.959167 
L 962.81499 826.959167 
L 962.81499 826.959167 
L 957.125824 826.959167 
z
" style="fill:#d15a00;opacity:0.6;stroke:#000000;stroke-linejoin:miter;stroke-width:0.5;"/>
   </g>
   <g id="patch_59">
    <path clip-path="url(#p688a0ceb29)" d="M 962.81499 826.959167 
L 968.504157 826.959167 
L 968.504157 826.959167 
L 962.81499 826.959167 
z
" style="fill:#d15a00;opacity:0.6;stroke:#000000;stroke-linejoin:miter;stroke-width:0.5;"/>
   </g>
   <g id="patch_60">
    <path clip-path="url(#p688a0ceb29)" d="M 968.504157 826.959167 
L 974.193324 826.959167 
L 974.193324 826.959167 
L 968.504157 826.959167 
z
" style="fill:#d15a00;opacity:0.6;stroke:#000000;stroke-linejoin:miter;stroke-width:0.5;"/>
   </g>
   <g id="patch_61">
    <path clip-path="url(#p688a0ceb29)" d="M 974.193324 826.959167 
L 979.88249 826.959167 
L 979.88249 826.959167 
L 974.193324 826.959167 
z
" style="fill:#d15a00;opacity:0.6;stroke:#000000;stroke-linejoin:miter;stroke-width:0.5;"/>
   </g>
   <g id="patch_62">
    <path clip-path="url(#p688a0ceb29)" d="M 979.88249 826.959167 
L 985.571657 826.959167 
L 985.571657 826.959167 
L 979.88249 826.959167 
z
" style="fill:#d15a00;opacity:0.6;stroke:#000000;stroke-linejoin:miter;stroke-width:0.5;"/>
   </g>
   <g id="patch_63">
    <path clip-path="url(#p688a0ceb29)" d="M 985.571657 826.959167 
L 991.260824 826.959167 
L 991.260824 826.959167 
L 985.571657 826.959167 
z
" style="fill:#d15a00;opacity:0.6;stroke:#000000;stroke-linejoin:miter;stroke-width:0.5;"/>
   </g>
   <g id="patch_64">
    <path clip-path="url(#p688a0ceb29)" d="M 991.260824 826.959167 
L 996.94999 826.959167 
L 996.94999 826.959167 
L 991.260824 826.959167 
z
" style="fill:#d15a00;opacity:0.6;stroke:#000000;stroke-linejoin:miter;stroke-width:0.5;"/>
   </g>
   <g id="patch_65">
    <path clip-path="url(#p688a0ceb29)" d="M 996.94999 826.959167 
L 1002.639157 826.959167 
L 1002.639157 826.959167 
L 996.94999 826.959167 
z
" style="fill:#d15a00;opacity:0.6;stroke:#000000;stroke-linejoin:miter;stroke-width:0.5;"/>
   </g>
   <g id="patch_66">
    <path clip-path="url(#p688a0ceb29)" d="M 1002.639157 826.959167 
L 1008.328324 826.959167 
L 1008.328324 826.959167 
L 1002.639157 826.959167 
z
" style="fill:#d15a00;opacity:0.6;stroke:#000000;stroke-linejoin:miter;stroke-width:0.5;"/>
   </g>
   <g id="patch_67">
    <path clip-path="url(#p688a0ceb29)" d="M 1008.328324 826.959167 
L 1014.01749 826.959167 
L 1014.01749 826.959167 
L 1008.328324 826.959167 
z
" style="fill:#d15a00;opacity:0.6;stroke:#000000;stroke-linejoin:miter;stroke-width:0.5;"/>
   </g>
   <g id="patch_68">
    <path clip-path="url(#p688a0ceb29)" d="M 1014.01749 826.959167 
L 1019.706657 826.959167 
L 1019.706657 826.959167 
L 1014.01749 826.959167 
z
" style="fill:#d15a00;opacity:0.6;stroke:#000000;stroke-linejoin:miter;stroke-width:0.5;"/>
   </g>
   <g id="patch_69">
    <path clip-path="url(#p688a0ceb29)" d="M 1019.706657 826.959167 
L 1025.395824 826.959167 
L 1025.395824 826.959167 
L 1019.706657 826.959167 
z
" style="fill:#d15a00;opacity:0.6;stroke:#000000;stroke-linejoin:miter;stroke-width:0.5;"/>
   </g>
   <g id="patch_70">
    <path clip-path="url(#p688a0ceb29)" d="M 1025.395824 826.959167 
L 1031.08499 826.959167 
L 1031.08499 826.336704 
L 1025.395824 826.336704 
z
" style="fill:#d15a00;opacity:0.6;stroke:#000000;stroke-linejoin:miter;stroke-width:0.5;"/>
   </g>
   <g id="patch_71">
    <path clip-path="url(#p688a0ceb29)" d="M 1031.08499 826.959167 
L 1036.774157 826.959167 
L 1036.774157 821.357003 
L 1031.08499 821.357003 
z
" style="fill:#d15a00;opacity:0.6;stroke:#000000;stroke-linejoin:miter;stroke-width:0.5;"/>
   </g>
   <g id="patch_72">
    <path clip-path="url(#p688a0ceb29)" d="M 1036.774157 826.959167 
L 1042.463324 826.959167 
L 1042.463324 812.020064 
L 1036.774157 812.020064 
z
" style="fill:#d15a00;opacity:0.6;stroke:#000000;stroke-linejoin:miter;stroke-width:0.5;"/>
   </g>
   <g id="patch_73">
    <path clip-path="url(#p688a0ceb29)" d="M 1042.463324 826.959167 
L 1048.15249 826.959167 
L 1048.15249 784.63171 
L 1042.463324 784.63171 
z
" style="fill:#d15a00;opacity:0.6;stroke:#000000;stroke-linejoin:miter;stroke-width:0.5;"/>
   </g>
   <g id="patch_74">
    <path clip-path="url(#p688a0ceb29)" d="M 1048.15249 826.959167 
L 1053.841657 826.959167 
L 1053.841657 731.722389 
L 1048.15249 731.722389 
z
" style="fill:#d15a00;opacity:0.6;stroke:#000000;stroke-linejoin:miter;stroke-width:0.5;"/>
   </g>
   <g id="patch_75">
    <path clip-path="url(#p688a0ceb29)" d="M 1053.841657 826.959167 
L 1059.530824 826.959167 
L 1059.530824 648.934864 
L 1053.841657 648.934864 
z
" style="fill:#d15a00;opacity:0.6;stroke:#000000;stroke-linejoin:miter;stroke-width:0.5;"/>
   </g>
   <g id="patch_76">
    <path clip-path="url(#p688a0ceb29)" d="M 1059.530824 826.959167 
L 1065.21999 826.959167 
L 1065.21999 588.555992 
L 1059.530824 588.555992 
z
" style="fill:#d15a00;opacity:0.6;stroke:#000000;stroke-linejoin:miter;stroke-width:0.5;"/>
   </g>
   <g id="patch_77">
    <path clip-path="url(#p688a0ceb29)" d="M 1065.21999 826.959167 
L 1070.909157 826.959167 
L 1070.909157 605.984945 
L 1065.21999 605.984945 
z
" style="fill:#d15a00;opacity:0.6;stroke:#000000;stroke-linejoin:miter;stroke-width:0.5;"/>
   </g>
   <g id="patch_78">
    <path clip-path="url(#p688a0ceb29)" d="M 1070.909157 826.959167 
L 1076.598324 826.959167 
L 1076.598324 664.496429 
L 1070.909157 664.496429 
z
" style="fill:#d15a00;opacity:0.6;stroke:#000000;stroke-linejoin:miter;stroke-width:0.5;"/>
   </g>
   <g id="patch_79">
    <path clip-path="url(#p688a0ceb29)" d="M 1076.598324 826.959167 
L 1082.28749 826.959167 
L 1082.28749 734.21224 
L 1076.598324 734.21224 
z
" style="fill:#d15a00;opacity:0.6;stroke:#000000;stroke-linejoin:miter;stroke-width:0.5;"/>
   </g>
   <g id="patch_80">
    <path clip-path="url(#p688a0ceb29)" d="M 1082.28749 826.959167 
L 1087.976657 826.959167 
L 1087.976657 743.549179 
L 1082.28749 743.549179 
z
" style="fill:#d15a00;opacity:0.6;stroke:#000000;stroke-linejoin:miter;stroke-width:0.5;"/>
   </g>
   <g id="patch_81">
    <path clip-path="url(#p688a0ceb29)" d="M 1087.976657 826.959167 
L 1093.665824 826.959167 
L 1093.665824 669.47613 
L 1087.976657 669.47613 
z
" style="fill:#d15a00;opacity:0.6;stroke:#000000;stroke-linejoin:miter;stroke-width:0.5;"/>
   </g>
   <g id="patch_82">
    <path clip-path="url(#p688a0ceb29)" d="M 1093.665824 826.959167 
L 1099.35499 826.959167 
L 1099.35499 765.957832 
L 1093.665824 765.957832 
z
" style="fill:#d15a00;opacity:0.6;stroke:#000000;stroke-linejoin:miter;stroke-width:0.5;"/>
   </g>
   <g id="matplotlib.axis_1">
    <g id="xtick_1">
     <g id="line2d_1">
      <defs>
       <path d="M 0 0 
L 0 3.5 
" id="md31c06dd43" style="stroke:#000000;stroke-width:1.6;"/>
      </defs>
      <g>
       <use style="stroke:#000000;stroke-width:1.6;" x="871.788324" xlink:href="#md31c06dd43" y="826.959167"/>
      </g>
     </g>
     <g id="text_1">
      <!-- 0.0 -->
      <defs>
       <path d="M 31.78125 66.40625 
Q 24.171875 66.40625 20.328125 58.90625 
Q 16.5 51.421875 16.5 36.375 
Q 16.5 21.390625 20.328125 13.890625 
Q 24.171875 6.390625 31.78125 6.390625 
Q 39.453125 6.390625 43.28125 13.890625 
Q 47.125 21.390625 47.125 36.375 
Q 47.125 51.421875 43.28125 58.90625 
Q 39.453125 66.40625 31.78125 66.40625 
z
M 31.78125 74.21875 
Q 44.046875 74.21875 50.515625 64.515625 
Q 56.984375 54.828125 56.984375 36.375 
Q 56.984375 17.96875 50.515625 8.265625 
Q 44.046875 -1.421875 31.78125 -1.421875 
Q 19.53125 -1.421875 13.0625 8.265625 
Q 6.59375 17.96875 6.59375 36.375 
Q 6.59375 54.828125 13.0625 64.515625 
Q 19.53125 74.21875 31.78125 74.21875 
z
" id="DejaVuSans-48"/>
       <path d="M 10.6875 12.40625 
L 21 12.40625 
L 21 0 
L 10.6875 0 
z
" id="DejaVuSans-46"/>
      </defs>
      <g transform="translate(855.885199 856.856042)scale(0.2 -0.2)">
       <use xlink:href="#DejaVuSans-48"/>
       <use x="63.623047" xlink:href="#DejaVuSans-46"/>
       <use x="95.410156" xlink:href="#DejaVuSans-48"/>
      </g>
     </g>
    </g>
    <g id="xtick_2">
     <g id="line2d_2">
      <g>
       <use style="stroke:#000000;stroke-width:1.6;" x="936.807371" xlink:href="#md31c06dd43" y="826.959167"/>
      </g>
     </g>
     <g id="text_2">
      <!-- 0.2 -->
      <defs>
       <path d="M 19.1875 8.296875 
L 53.609375 8.296875 
L 53.609375 0 
L 7.328125 0 
L 7.328125 8.296875 
Q 12.9375 14.109375 22.625 23.890625 
Q 32.328125 33.6875 34.8125 36.53125 
Q 39.546875 41.84375 41.421875 45.53125 
Q 43.3125 49.21875 43.3125 52.78125 
Q 43.3125 58.59375 39.234375 62.25 
Q 35.15625 65.921875 28.609375 65.921875 
Q 23.96875 65.921875 18.8125 64.3125 
Q 13.671875 62.703125 7.8125 59.421875 
L 7.8125 69.390625 
Q 13.765625 71.78125 18.9375 73 
Q 24.125 74.21875 28.421875 74.21875 
Q 39.75 74.21875 46.484375 68.546875 
Q 53.21875 62.890625 53.21875 53.421875 
Q 53.21875 48.921875 51.53125 44.890625 
Q 49.859375 40.875 45.40625 35.40625 
Q 44.1875 33.984375 37.640625 27.21875 
Q 31.109375 20.453125 19.1875 8.296875 
z
" id="DejaVuSans-50"/>
      </defs>
      <g transform="translate(920.904246 856.856042)scale(0.2 -0.2)">
       <use xlink:href="#DejaVuSans-48"/>
       <use x="63.623047" xlink:href="#DejaVuSans-46"/>
       <use x="95.410156" xlink:href="#DejaVuSans-50"/>
      </g>
     </g>
    </g>
    <g id="xtick_3">
     <g id="line2d_3">
      <g>
       <use style="stroke:#000000;stroke-width:1.6;" x="1001.826419" xlink:href="#md31c06dd43" y="826.959167"/>
      </g>
     </g>
     <g id="text_3">
      <!-- 0.4 -->
      <defs>
       <path d="M 37.796875 64.3125 
L 12.890625 25.390625 
L 37.796875 25.390625 
z
M 35.203125 72.90625 
L 47.609375 72.90625 
L 47.609375 25.390625 
L 58.015625 25.390625 
L 58.015625 17.1875 
L 47.609375 17.1875 
L 47.609375 0 
L 37.796875 0 
L 37.796875 17.1875 
L 4.890625 17.1875 
L 4.890625 26.703125 
z
" id="DejaVuSans-52"/>
      </defs>
      <g transform="translate(985.923294 856.856042)scale(0.2 -0.2)">
       <use xlink:href="#DejaVuSans-48"/>
       <use x="63.623047" xlink:href="#DejaVuSans-46"/>
       <use x="95.410156" xlink:href="#DejaVuSans-52"/>
      </g>
     </g>
    </g>
    <g id="xtick_4">
     <g id="line2d_4">
      <g>
       <use style="stroke:#000000;stroke-width:1.6;" x="1066.845466" xlink:href="#md31c06dd43" y="826.959167"/>
      </g>
     </g>
     <g id="text_4">
      <!-- 0.6 -->
      <defs>
       <path d="M 33.015625 40.375 
Q 26.375 40.375 22.484375 35.828125 
Q 18.609375 31.296875 18.609375 23.390625 
Q 18.609375 15.53125 22.484375 10.953125 
Q 26.375 6.390625 33.015625 6.390625 
Q 39.65625 6.390625 43.53125 10.953125 
Q 47.40625 15.53125 47.40625 23.390625 
Q 47.40625 31.296875 43.53125 35.828125 
Q 39.65625 40.375 33.015625 40.375 
z
M 52.59375 71.296875 
L 52.59375 62.3125 
Q 48.875 64.0625 45.09375 64.984375 
Q 41.3125 65.921875 37.59375 65.921875 
Q 27.828125 65.921875 22.671875 59.328125 
Q 17.53125 52.734375 16.796875 39.40625 
Q 19.671875 43.65625 24.015625 45.921875 
Q 28.375 48.1875 33.59375 48.1875 
Q 44.578125 48.1875 50.953125 41.515625 
Q 57.328125 34.859375 57.328125 23.390625 
Q 57.328125 12.15625 50.6875 5.359375 
Q 44.046875 -1.421875 33.015625 -1.421875 
Q 20.359375 -1.421875 13.671875 8.265625 
Q 6.984375 17.96875 6.984375 36.375 
Q 6.984375 53.65625 15.1875 63.9375 
Q 23.390625 74.21875 37.203125 74.21875 
Q 40.921875 74.21875 44.703125 73.484375 
Q 48.484375 72.75 52.59375 71.296875 
z
" id="DejaVuSans-54"/>
      </defs>
      <g transform="translate(1050.942341 856.856042)scale(0.2 -0.2)">
       <use xlink:href="#DejaVuSans-48"/>
       <use x="63.623047" xlink:href="#DejaVuSans-46"/>
       <use x="95.410156" xlink:href="#DejaVuSans-54"/>
      </g>
     </g>
    </g>
    <g id="text_5">
     <!--   -->
     <defs>
      <path id="DejaVuSans-32"/>
     </defs>
     <g transform="translate(982.393532 880.212292)scale(0.2 -0.2)">
      <use xlink:href="#DejaVuSans-32"/>
     </g>
    </g>
   </g>
   <g id="matplotlib.axis_2">
    <g id="ytick_1">
     <g id="line2d_5">
      <defs>
       <path d="M 0 0 
L -3.5 0 
" id="m3d5daeb5ac" style="stroke:#000000;stroke-width:1.6;"/>
      </defs>
      <g>
       <use style="stroke:#000000;stroke-width:1.6;" x="860.40999" xlink:href="#m3d5daeb5ac" y="826.959167"/>
      </g>
     </g>
     <g id="text_6">
      <!-- 0.00 -->
      <g transform="translate(801.17874 834.557604)scale(0.2 -0.2)">
       <use xlink:href="#DejaVuSans-48"/>
       <use x="63.623047" xlink:href="#DejaVuSans-46"/>
       <use x="95.410156" xlink:href="#DejaVuSans-48"/>
       <use x="159.033203" xlink:href="#DejaVuSans-48"/>
      </g>
     </g>
    </g>
    <g id="ytick_2">
     <g id="line2d_6">
      <g>
       <use style="stroke:#000000;stroke-width:1.6;" x="860.40999" xlink:href="#m3d5daeb5ac" y="759.297482"/>
      </g>
     </g>
     <g id="text_7">
      <!-- 0.05 -->
      <defs>
       <path d="M 10.796875 72.90625 
L 49.515625 72.90625 
L 49.515625 64.59375 
L 19.828125 64.59375 
L 19.828125 46.734375 
Q 21.96875 47.46875 24.109375 47.828125 
Q 26.265625 48.1875 28.421875 48.1875 
Q 40.625 48.1875 47.75 41.5 
Q 54.890625 34.8125 54.890625 23.390625 
Q 54.890625 11.625 47.5625 5.09375 
Q 40.234375 -1.421875 26.90625 -1.421875 
Q 22.3125 -1.421875 17.546875 -0.640625 
Q 12.796875 0.140625 7.71875 1.703125 
L 7.71875 11.625 
Q 12.109375 9.234375 16.796875 8.0625 
Q 21.484375 6.890625 26.703125 6.890625 
Q 35.15625 6.890625 40.078125 11.328125 
Q 45.015625 15.765625 45.015625 23.390625 
Q 45.015625 31 40.078125 35.4375 
Q 35.15625 39.890625 26.703125 39.890625 
Q 22.75 39.890625 18.8125 39.015625 
Q 14.890625 38.140625 10.796875 36.28125 
z
" id="DejaVuSans-53"/>
      </defs>
      <g transform="translate(801.17874 766.89592)scale(0.2 -0.2)">
       <use xlink:href="#DejaVuSans-48"/>
       <use x="63.623047" xlink:href="#DejaVuSans-46"/>
       <use x="95.410156" xlink:href="#DejaVuSans-48"/>
       <use x="159.033203" xlink:href="#DejaVuSans-53"/>
      </g>
     </g>
    </g>
    <g id="ytick_3">
     <g id="line2d_7">
      <g>
       <use style="stroke:#000000;stroke-width:1.6;" x="860.40999" xlink:href="#m3d5daeb5ac" y="691.635798"/>
      </g>
     </g>
     <g id="text_8">
      <!-- 0.10 -->
      <defs>
       <path d="M 12.40625 8.296875 
L 28.515625 8.296875 
L 28.515625 63.921875 
L 10.984375 60.40625 
L 10.984375 69.390625 
L 28.421875 72.90625 
L 38.28125 72.90625 
L 38.28125 8.296875 
L 54.390625 8.296875 
L 54.390625 0 
L 12.40625 0 
z
" id="DejaVuSans-49"/>
      </defs>
      <g transform="translate(801.17874 699.234236)scale(0.2 -0.2)">
       <use xlink:href="#DejaVuSans-48"/>
       <use x="63.623047" xlink:href="#DejaVuSans-46"/>
       <use x="95.410156" xlink:href="#DejaVuSans-49"/>
       <use x="159.033203" xlink:href="#DejaVuSans-48"/>
      </g>
     </g>
    </g>
    <g id="ytick_4">
     <g id="line2d_8">
      <g>
       <use style="stroke:#000000;stroke-width:1.6;" x="860.40999" xlink:href="#m3d5daeb5ac" y="623.974114"/>
      </g>
     </g>
     <g id="text_9">
      <!-- 0.15 -->
      <g transform="translate(801.17874 631.572551)scale(0.2 -0.2)">
       <use xlink:href="#DejaVuSans-48"/>
       <use x="63.623047" xlink:href="#DejaVuSans-46"/>
       <use x="95.410156" xlink:href="#DejaVuSans-49"/>
       <use x="159.033203" xlink:href="#DejaVuSans-53"/>
      </g>
     </g>
    </g>
    <g id="text_10">
     <!--   -->
     <g transform="translate(793.51849 704.59425)rotate(-90)scale(0.176 -0.176)">
      <use xlink:href="#DejaVuSans-32"/>
     </g>
    </g>
   </g>
   <g id="patch_83">
    <path d="M 860.40999 826.959167 
L 860.40999 576.635833 
" style="fill:none;stroke:#000000;stroke-linecap:square;stroke-linejoin:miter;stroke-width:0.8;"/>
   </g>
   <g id="patch_84">
    <path d="M 860.40999 826.959167 
L 1110.733324 826.959167 
" style="fill:none;stroke:#000000;stroke-linecap:square;stroke-linejoin:miter;stroke-width:0.8;"/>
   </g>
  </g>
  <g id="axes_2">
   <g id="patch_85">
    <path d="M 1227.623324 826.959167 
L 1477.946657 826.959167 
L 1477.946657 576.635833 
L 1227.623324 576.635833 
z
" style="fill:#ffffff;"/>
   </g>
   <g id="PolyCollection_1">
    <defs>
     <path d="M 1391.865701 -808.118939 
L 1391.865701 -808.250895 
L 1392.702599 -808.267927 
L 1393.539496 -808.287379 
L 1394.376394 -808.30951 
L 1395.213292 -808.334277 
L 1396.050189 -808.361063 
L 1396.887087 -808.388575 
L 1397.723984 -808.415049 
L 1398.560882 -808.438749 
L 1399.39778 -808.458643 
L 1400.234677 -808.474986 
L 1401.071575 -808.489547 
L 1401.908473 -808.50531 
L 1402.74537 -808.525787 
L 1403.582268 -808.554239 
L 1404.419165 -808.59317 
L 1405.256063 -808.644246 
L 1406.092961 -808.70849 
L 1406.929858 -808.786457 
L 1407.766756 -808.878136 
L 1408.603654 -808.982624 
L 1409.440551 -809.097827 
L 1410.277449 -809.220548 
L 1411.114346 -809.347163 
L 1411.951244 -809.474815 
L 1412.788142 -809.602765 
L 1413.625039 -809.73338 
L 1414.461937 -809.872304 
L 1415.298835 -810.027657 
L 1416.135732 -810.208419 
L 1416.97263 -810.422458 
L 1417.809527 -810.674753 
L 1418.646425 -810.966328 
L 1419.483323 -811.294298 
L 1420.32022 -811.653129 
L 1421.157118 -812.036718 
L 1421.994016 -812.440406 
L 1422.830913 -812.861831 
L 1423.667811 -813.30009 
L 1424.504708 -813.753669 
L 1425.341606 -814.218567 
L 1426.178504 -814.68806 
L 1427.015401 -815.154621 
L 1427.852299 -815.613064 
L 1428.689196 -816.063005 
L 1429.526094 -816.50885 
L 1430.362992 -816.956694 
L 1431.199889 -817.409225 
L 1432.036787 -817.861106 
L 1432.873685 -818.297572 
L 1433.710582 -818.697816 
L 1434.54748 -819.042439 
L 1435.384377 -819.321879 
L 1436.221275 -819.541685 
L 1437.058173 -819.721592 
L 1437.89507 -819.888066 
L 1438.731968 -820.063062 
L 1439.568866 -820.253568 
L 1440.405763 -820.446209 
L 1441.242661 -820.609207 
L 1442.079558 -820.701083 
L 1442.916456 -820.683033 
L 1443.753354 -820.530548 
L 1444.590251 -820.24027 
L 1445.427149 -819.82989 
L 1446.264047 -819.331602 
L 1447.100944 -818.782006 
L 1447.937842 -818.212499 
L 1448.774739 -817.643578 
L 1449.611637 -817.084411 
L 1450.448535 -816.536582 
L 1451.285432 -815.999244 
L 1452.12233 -815.472852 
L 1452.959228 -814.960065 
L 1453.796125 -814.46436 
L 1454.633023 -813.988093 
L 1455.46992 -813.531709 
L 1456.306818 -813.094699 
L 1457.143716 -812.677589 
L 1457.980613 -812.283556 
L 1458.817511 -811.918463 
L 1459.654408 -811.589019 
L 1460.491306 -811.299998 
L 1461.328204 -811.0521 
L 1462.165101 -810.841862 
L 1463.001999 -810.663847 
L 1463.838897 -810.513967 
L 1464.675794 -810.392041 
L 1465.512692 -810.302024 
L 1466.349589 -810.249518 
L 1467.186487 -810.237479 
L 1468.023385 -810.261785 
L 1468.860282 -810.308503 
L 1469.69718 -810.354217 
L 1470.534078 -810.37001 
L 1471.370975 -810.328411 
L 1472.207873 -810.211297 
L 1473.04477 -810.015874 
L 1473.881668 -809.756253 
L 1474.718566 -809.459734 
L 1474.718566 -806.910099 
L 1474.718566 -806.910099 
L 1473.881668 -806.61358 
L 1473.04477 -806.353959 
L 1472.207873 -806.158536 
L 1471.370975 -806.041422 
L 1470.534078 -805.999824 
L 1469.69718 -806.015617 
L 1468.860282 -806.06133 
L 1468.023385 -806.108048 
L 1467.186487 -806.132355 
L 1466.349589 -806.120315 
L 1465.512692 -806.06781 
L 1464.675794 -805.977793 
L 1463.838897 -805.855867 
L 1463.001999 -805.705986 
L 1462.165101 -805.527971 
L 1461.328204 -805.317734 
L 1460.491306 -805.069836 
L 1459.654408 -804.780814 
L 1458.817511 -804.45137 
L 1457.980613 -804.086277 
L 1457.143716 -803.692245 
L 1456.306818 -803.275134 
L 1455.46992 -802.838124 
L 1454.633023 -802.381741 
L 1453.796125 -801.905473 
L 1452.959228 -801.409768 
L 1452.12233 -800.896981 
L 1451.285432 -800.370589 
L 1450.448535 -799.833252 
L 1449.611637 -799.285422 
L 1448.774739 -798.726255 
L 1447.937842 -798.157334 
L 1447.100944 -797.587828 
L 1446.264047 -797.038231 
L 1445.427149 -796.539943 
L 1444.590251 -796.129564 
L 1443.753354 -795.839285 
L 1442.916456 -795.6868 
L 1442.079558 -795.66875 
L 1441.242661 -795.760627 
L 1440.405763 -795.923624 
L 1439.568866 -796.116266 
L 1438.731968 -796.306771 
L 1437.89507 -796.481768 
L 1437.058173 -796.648241 
L 1436.221275 -796.828149 
L 1435.384377 -797.047955 
L 1434.54748 -797.327394 
L 1433.710582 -797.672018 
L 1432.873685 -798.072262 
L 1432.036787 -798.508727 
L 1431.199889 -798.960608 
L 1430.362992 -799.41314 
L 1429.526094 -799.860983 
L 1428.689196 -800.306828 
L 1427.852299 -800.756769 
L 1427.015401 -801.215212 
L 1426.178504 -801.681773 
L 1425.341606 -802.151266 
L 1424.504708 -802.616164 
L 1423.667811 -803.069743 
L 1422.830913 -803.508002 
L 1421.994016 -803.929428 
L 1421.157118 -804.333115 
L 1420.32022 -804.716705 
L 1419.483323 -805.075535 
L 1418.646425 -805.403505 
L 1417.809527 -805.69508 
L 1416.97263 -805.947375 
L 1416.135732 -806.161414 
L 1415.298835 -806.342176 
L 1414.461937 -806.497529 
L 1413.625039 -806.636453 
L 1412.788142 -806.767068 
L 1411.951244 -806.895019 
L 1411.114346 -807.022671 
L 1410.277449 -807.149285 
L 1409.440551 -807.272006 
L 1408.603654 -807.38721 
L 1407.766756 -807.491697 
L 1406.929858 -807.583376 
L 1406.092961 -807.661343 
L 1405.256063 -807.725587 
L 1404.419165 -807.776663 
L 1403.582268 -807.815594 
L 1402.74537 -807.844046 
L 1401.908473 -807.864523 
L 1401.071575 -807.880287 
L 1400.234677 -807.894847 
L 1399.39778 -807.911191 
L 1398.560882 -807.931084 
L 1397.723984 -807.954784 
L 1396.887087 -807.981258 
L 1396.050189 -808.008771 
L 1395.213292 -808.035556 
L 1394.376394 -808.060324 
L 1393.539496 -808.082454 
L 1392.702599 -808.101906 
L 1391.865701 -808.118939 
z
" id="mfdc471821a" style="stroke:#333333;"/>
    </defs>
    <g clip-path="url(#pf845408d17)">
     <use style="fill:#484566;stroke:#333333;" x="0" xlink:href="#mfdc471821a" y="1403.595"/>
    </g>
   </g>
   <g id="PolyCollection_2">
    <defs>
     <path d="M 1404.0627 -783.113345 
L 1404.0627 -783.191822 
L 1404.778539 -783.200764 
L 1405.494377 -783.212629 
L 1406.210215 -783.228533 
L 1406.926053 -783.249491 
L 1407.641891 -783.276177 
L 1408.357729 -783.308743 
L 1409.073567 -783.34675 
L 1409.789405 -783.389235 
L 1410.505243 -783.434927 
L 1411.221081 -783.482558 
L 1411.93692 -783.531227 
L 1412.652758 -783.580727 
L 1413.368596 -783.63178 
L 1414.084434 -783.686125 
L 1414.800272 -783.746394 
L 1415.51611 -783.815803 
L 1416.231948 -783.897696 
L 1416.947786 -783.995034 
L 1417.663624 -784.109985 
L 1418.379462 -784.243712 
L 1419.0953 -784.396443 
L 1419.811139 -784.567797 
L 1420.526977 -784.757261 
L 1421.242815 -784.964673 
L 1421.958653 -785.190576 
L 1422.674491 -785.436334 
L 1423.390329 -785.704 
L 1424.106167 -785.995954 
L 1424.822005 -786.314404 
L 1425.537843 -786.660838 
L 1426.253681 -787.035541 
L 1426.96952 -787.43731 
L 1427.685358 -787.863462 
L 1428.401196 -788.310188 
L 1429.117034 -788.773185 
L 1429.832872 -789.248386 
L 1430.54871 -789.732518 
L 1431.264548 -790.22324 
L 1431.980386 -790.718708 
L 1432.696224 -791.21664 
L 1433.412062 -791.713155 
L 1434.1279 -792.201828 
L 1434.843739 -792.673372 
L 1435.559577 -793.116236 
L 1436.275415 -793.518068 
L 1436.991253 -793.867695 
L 1437.707091 -794.157037 
L 1438.422929 -794.382359 
L 1439.138767 -794.544494 
L 1439.854605 -794.64804 
L 1440.570443 -794.699917 
L 1441.286281 -794.7078 
L 1442.00212 -794.678899 
L 1442.717958 -794.619217 
L 1443.433796 -794.533176 
L 1444.149634 -794.423354 
L 1444.865472 -794.290179 
L 1445.58131 -794.131677 
L 1446.297148 -793.943552 
L 1447.012986 -793.719877 
L 1447.728824 -793.454462 
L 1448.444662 -793.142685 
L 1449.1605 -792.78326 
L 1449.876339 -792.379424 
L 1450.592177 -791.93915 
L 1451.308015 -791.474315 
L 1452.023853 -790.99907 
L 1452.739691 -790.527884 
L 1453.455529 -790.073735 
L 1454.171367 -789.64686 
L 1454.887205 -789.254228 
L 1455.603043 -788.899713 
L 1456.318881 -788.584776 
L 1457.03472 -788.309397 
L 1457.750558 -788.073017 
L 1458.466396 -787.875343 
L 1459.182234 -787.716976 
L 1459.898072 -787.59985 
L 1460.61391 -787.527469 
L 1461.329748 -787.504822 
L 1462.045586 -787.537825 
L 1462.761424 -787.632172 
L 1463.477262 -787.79168 
L 1464.1931 -788.016374 
L 1464.908939 -788.300771 
L 1465.624777 -788.632742 
L 1466.340615 -788.993186 
L 1467.056453 -789.356569 
L 1467.772291 -789.692198 
L 1468.488129 -789.9662 
L 1469.203967 -790.144221 
L 1469.919805 -790.19489 
L 1470.635643 -790.093942 
L 1471.351481 -789.828454 
L 1472.06732 -789.400318 
L 1472.783158 -788.82784 
L 1473.498996 -788.144634 
L 1474.214834 -787.395597 
L 1474.930672 -786.630606 
L 1474.930672 -779.67456 
L 1474.930672 -779.67456 
L 1474.214834 -778.90957 
L 1473.498996 -778.160533 
L 1472.783158 -777.477327 
L 1472.06732 -776.904849 
L 1471.351481 -776.476712 
L 1470.635643 -776.211225 
L 1469.919805 -776.110276 
L 1469.203967 -776.160946 
L 1468.488129 -776.338966 
L 1467.772291 -776.612969 
L 1467.056453 -776.948598 
L 1466.340615 -777.31198 
L 1465.624777 -777.672425 
L 1464.908939 -778.004395 
L 1464.1931 -778.288793 
L 1463.477262 -778.513487 
L 1462.761424 -778.672994 
L 1462.045586 -778.767342 
L 1461.329748 -778.800344 
L 1460.61391 -778.777697 
L 1459.898072 -778.705316 
L 1459.182234 -778.588191 
L 1458.466396 -778.429823 
L 1457.750558 -778.23215 
L 1457.03472 -777.995769 
L 1456.318881 -777.72039 
L 1455.603043 -777.405454 
L 1454.887205 -777.050939 
L 1454.171367 -776.658307 
L 1453.455529 -776.231432 
L 1452.739691 -775.777283 
L 1452.023853 -775.306096 
L 1451.308015 -774.830852 
L 1450.592177 -774.366017 
L 1449.876339 -773.925743 
L 1449.1605 -773.521907 
L 1448.444662 -773.162481 
L 1447.728824 -772.850704 
L 1447.012986 -772.58529 
L 1446.297148 -772.361614 
L 1445.58131 -772.17349 
L 1444.865472 -772.014988 
L 1444.149634 -771.881812 
L 1443.433796 -771.77199 
L 1442.717958 -771.68595 
L 1442.00212 -771.626268 
L 1441.286281 -771.597367 
L 1440.570443 -771.60525 
L 1439.854605 -771.657126 
L 1439.138767 -771.760672 
L 1438.422929 -771.922807 
L 1437.707091 -772.14813 
L 1436.991253 -772.437472 
L 1436.275415 -772.787099 
L 1435.559577 -773.188931 
L 1434.843739 -773.631795 
L 1434.1279 -774.103339 
L 1433.412062 -774.592011 
L 1432.696224 -775.088527 
L 1431.980386 -775.586458 
L 1431.264548 -776.081927 
L 1430.54871 -776.572649 
L 1429.832872 -777.056781 
L 1429.117034 -777.531982 
L 1428.401196 -777.994979 
L 1427.685358 -778.441705 
L 1426.96952 -778.867857 
L 1426.253681 -779.269625 
L 1425.537843 -779.644328 
L 1424.822005 -779.990762 
L 1424.106167 -780.309213 
L 1423.390329 -780.601167 
L 1422.674491 -780.868832 
L 1421.958653 -781.114591 
L 1421.242815 -781.340494 
L 1420.526977 -781.547906 
L 1419.811139 -781.737369 
L 1419.0953 -781.908723 
L 1418.379462 -782.061455 
L 1417.663624 -782.195181 
L 1416.947786 -782.310132 
L 1416.231948 -782.407471 
L 1415.51611 -782.489364 
L 1414.800272 -782.558773 
L 1414.084434 -782.619042 
L 1413.368596 -782.673386 
L 1412.652758 -782.72444 
L 1411.93692 -782.773939 
L 1411.221081 -782.822608 
L 1410.505243 -782.87024 
L 1409.789405 -782.915932 
L 1409.073567 -782.958417 
L 1408.357729 -782.996423 
L 1407.641891 -783.02899 
L 1406.926053 -783.055676 
L 1406.210215 -783.076633 
L 1405.494377 -783.092538 
L 1404.778539 -783.104403 
L 1404.0627 -783.113345 
z
" id="m832ae2ef61" style="stroke:#333333;"/>
    </defs>
    <g clip-path="url(#pf845408d17)">
     <use style="fill:#b75e1a;stroke:#333333;" x="0" xlink:href="#m832ae2ef61" y="1403.595"/>
    </g>
   </g>
   <g id="PolyCollection_3">
    <defs>
     <path d="M 1409.229621 -741.031208 
L 1409.229621 -750.176959 
L 1409.717979 -750.203881 
L 1410.206338 -750.230227 
L 1410.694696 -750.255994 
L 1411.183055 -750.281179 
L 1411.671413 -750.305781 
L 1412.159771 -750.329799 
L 1412.64813 -750.353231 
L 1413.136488 -750.376077 
L 1413.624846 -750.398336 
L 1414.113205 -750.420008 
L 1414.601563 -750.441095 
L 1415.089922 -750.461596 
L 1415.57828 -750.481512 
L 1416.066638 -750.500845 
L 1416.554997 -750.519596 
L 1417.043355 -750.537767 
L 1417.531713 -750.555359 
L 1418.020072 -750.572376 
L 1418.50843 -750.588818 
L 1418.996788 -750.604689 
L 1419.485147 -750.619992 
L 1419.973505 -750.634728 
L 1420.461864 -750.648901 
L 1420.950222 -750.662514 
L 1421.43858 -750.67557 
L 1421.926939 -750.688072 
L 1422.415297 -750.700023 
L 1422.903655 -750.711427 
L 1423.392014 -750.722285 
L 1423.880372 -750.732602 
L 1424.36873 -750.742381 
L 1424.857089 -750.751625 
L 1425.345447 -750.760336 
L 1425.833806 -750.768518 
L 1426.322164 -750.776174 
L 1426.810522 -750.783305 
L 1427.298881 -750.789916 
L 1427.787239 -750.796008 
L 1428.275597 -750.801584 
L 1428.763956 -750.806645 
L 1429.252314 -750.811194 
L 1429.740673 -750.815233 
L 1430.229031 -750.818764 
L 1430.717389 -750.821787 
L 1431.205748 -750.824305 
L 1431.694106 -750.826317 
L 1432.182464 -750.827826 
L 1432.670823 -750.828832 
L 1433.159181 -750.829334 
L 1433.647539 -750.829334 
L 1434.135898 -750.828832 
L 1434.624256 -750.827826 
L 1435.112615 -750.826317 
L 1435.600973 -750.824305 
L 1436.089331 -750.821787 
L 1436.57769 -750.818764 
L 1437.066048 -750.815233 
L 1437.554406 -750.811194 
L 1438.042765 -750.806645 
L 1438.531123 -750.801584 
L 1439.019481 -750.796008 
L 1439.50784 -750.789916 
L 1439.996198 -750.783305 
L 1440.484557 -750.776174 
L 1440.972915 -750.768518 
L 1441.461273 -750.760336 
L 1441.949632 -750.751625 
L 1442.43799 -750.742381 
L 1442.926348 -750.732602 
L 1443.414707 -750.722285 
L 1443.903065 -750.711427 
L 1444.391424 -750.700023 
L 1444.879782 -750.688072 
L 1445.36814 -750.67557 
L 1445.856499 -750.662514 
L 1446.344857 -750.648901 
L 1446.833215 -750.634728 
L 1447.321574 -750.619992 
L 1447.809932 -750.604689 
L 1448.29829 -750.588818 
L 1448.786649 -750.572376 
L 1449.275007 -750.555359 
L 1449.763366 -750.537767 
L 1450.251724 -750.519596 
L 1450.740082 -750.500845 
L 1451.228441 -750.481512 
L 1451.716799 -750.461596 
L 1452.205157 -750.441095 
L 1452.693516 -750.420008 
L 1453.181874 -750.398336 
L 1453.670232 -750.376077 
L 1454.158591 -750.353231 
L 1454.646949 -750.329799 
L 1455.135308 -750.305781 
L 1455.623666 -750.281179 
L 1456.112024 -750.255994 
L 1456.600383 -750.230227 
L 1457.088741 -750.203881 
L 1457.577099 -750.176959 
L 1457.577099 -741.031208 
L 1457.577099 -741.031208 
L 1457.088741 -741.004285 
L 1456.600383 -740.977939 
L 1456.112024 -740.952173 
L 1455.623666 -740.926987 
L 1455.135308 -740.902385 
L 1454.646949 -740.878368 
L 1454.158591 -740.854936 
L 1453.670232 -740.83209 
L 1453.181874 -740.809831 
L 1452.693516 -740.788158 
L 1452.205157 -740.767072 
L 1451.716799 -740.746571 
L 1451.228441 -740.726655 
L 1450.740082 -740.707322 
L 1450.251724 -740.688571 
L 1449.763366 -740.6704 
L 1449.275007 -740.652807 
L 1448.786649 -740.635791 
L 1448.29829 -740.619348 
L 1447.809932 -740.603477 
L 1447.321574 -740.588175 
L 1446.833215 -740.573439 
L 1446.344857 -740.559265 
L 1445.856499 -740.545652 
L 1445.36814 -740.532596 
L 1444.879782 -740.520094 
L 1444.391424 -740.508143 
L 1443.903065 -740.49674 
L 1443.414707 -740.485881 
L 1442.926348 -740.475564 
L 1442.43799 -740.465785 
L 1441.949632 -740.456542 
L 1441.461273 -740.447831 
L 1440.972915 -740.439649 
L 1440.484557 -740.431993 
L 1439.996198 -740.424861 
L 1439.50784 -740.418251 
L 1439.019481 -740.412159 
L 1438.531123 -740.406583 
L 1438.042765 -740.401522 
L 1437.554406 -740.396972 
L 1437.066048 -740.392933 
L 1436.57769 -740.389403 
L 1436.089331 -740.386379 
L 1435.600973 -740.383862 
L 1435.112615 -740.381849 
L 1434.624256 -740.380341 
L 1434.135898 -740.379335 
L 1433.647539 -740.378832 
L 1433.159181 -740.378832 
L 1432.670823 -740.379335 
L 1432.182464 -740.380341 
L 1431.694106 -740.381849 
L 1431.205748 -740.383862 
L 1430.717389 -740.386379 
L 1430.229031 -740.389403 
L 1429.740673 -740.392933 
L 1429.252314 -740.396972 
L 1428.763956 -740.401522 
L 1428.275597 -740.406583 
L 1427.787239 -740.412159 
L 1427.298881 -740.418251 
L 1426.810522 -740.424861 
L 1426.322164 -740.431993 
L 1425.833806 -740.439649 
L 1425.345447 -740.447831 
L 1424.857089 -740.456542 
L 1424.36873 -740.465785 
L 1423.880372 -740.475564 
L 1423.392014 -740.485881 
L 1422.903655 -740.49674 
L 1422.415297 -740.508143 
L 1421.926939 -740.520094 
L 1421.43858 -740.532596 
L 1420.950222 -740.545652 
L 1420.461864 -740.559265 
L 1419.973505 -740.573439 
L 1419.485147 -740.588175 
L 1418.996788 -740.603477 
L 1418.50843 -740.619348 
L 1418.020072 -740.635791 
L 1417.531713 -740.652807 
L 1417.043355 -740.6704 
L 1416.554997 -740.688571 
L 1416.066638 -740.707322 
L 1415.57828 -740.726655 
L 1415.089922 -740.746571 
L 1414.601563 -740.767072 
L 1414.113205 -740.788158 
L 1413.624846 -740.809831 
L 1413.136488 -740.83209 
L 1412.64813 -740.854936 
L 1412.159771 -740.878368 
L 1411.671413 -740.902385 
L 1411.183055 -740.926987 
L 1410.694696 -740.952173 
L 1410.206338 -740.977939 
L 1409.717979 -741.004285 
L 1409.229621 -741.031208 
z
" id="m522b7ad3f4" style="stroke:#333333;"/>
    </defs>
    <g clip-path="url(#pf845408d17)">
     <use style="fill:#484566;stroke:#333333;" x="0" xlink:href="#m522b7ad3f4" y="1403.595"/>
    </g>
   </g>
   <g id="PolyCollection_4">
    <defs>
     <path d="M 1416.512474 -717.93494 
L 1416.512474 -723.20856 
L 1417.054217 -723.265215 
L 1417.595961 -723.320043 
L 1418.137704 -723.373071 
L 1418.679448 -723.424349 
L 1419.221192 -723.473947 
L 1419.762935 -723.521953 
L 1420.304679 -723.568477 
L 1420.846422 -723.613645 
L 1421.388166 -723.657598 
L 1421.929909 -723.700495 
L 1422.471653 -723.742508 
L 1423.013397 -723.783822 
L 1423.55514 -723.824633 
L 1424.096884 -723.865146 
L 1424.638627 -723.905579 
L 1425.180371 -723.946154 
L 1425.722114 -723.987104 
L 1426.263858 -724.028665 
L 1426.805602 -724.071081 
L 1427.347345 -724.114602 
L 1427.889089 -724.15948 
L 1428.430832 -724.205973 
L 1428.972576 -724.254344 
L 1429.514319 -724.304858 
L 1430.056063 -724.357782 
L 1430.597807 -724.41339 
L 1431.13955 -724.471954 
L 1431.681294 -724.53375 
L 1432.223037 -724.599056 
L 1432.764781 -724.668148 
L 1433.306525 -724.741302 
L 1433.848268 -724.818795 
L 1434.390012 -724.900896 
L 1434.931755 -724.987873 
L 1435.473499 -725.079986 
L 1436.015242 -725.177484 
L 1436.556986 -725.280609 
L 1437.09873 -725.389586 
L 1437.640473 -725.504625 
L 1438.182217 -725.625916 
L 1438.72396 -725.753627 
L 1439.265704 -725.887901 
L 1439.807447 -726.028851 
L 1440.349191 -726.176559 
L 1440.890935 -726.331072 
L 1441.432678 -726.492398 
L 1441.974422 -726.660506 
L 1442.516165 -726.835319 
L 1443.057909 -727.016712 
L 1443.599652 -727.204515 
L 1444.141396 -727.398504 
L 1444.68314 -727.598403 
L 1445.224883 -727.803882 
L 1445.766627 -728.014556 
L 1446.30837 -728.229984 
L 1446.850114 -728.449671 
L 1447.391857 -728.673066 
L 1447.933601 -728.899564 
L 1448.475345 -729.128506 
L 1449.017088 -729.359186 
L 1449.558832 -729.590846 
L 1450.100575 -729.822685 
L 1450.642319 -730.05386 
L 1451.184063 -730.28349 
L 1451.725806 -730.510659 
L 1452.26755 -730.734425 
L 1452.809293 -730.95382 
L 1453.351037 -731.16786 
L 1453.89278 -731.375546 
L 1454.434524 -731.575875 
L 1454.976268 -731.767844 
L 1455.518011 -731.950456 
L 1456.059755 -732.122727 
L 1456.601498 -732.283694 
L 1457.143242 -732.432423 
L 1457.684985 -732.56801 
L 1458.226729 -732.689595 
L 1458.768473 -732.796365 
L 1459.310216 -732.88756 
L 1459.85196 -732.962482 
L 1460.393703 -733.020499 
L 1460.935447 -733.061051 
L 1461.47719 -733.083657 
L 1462.018934 -733.087917 
L 1462.560678 -733.073518 
L 1463.102421 -733.04024 
L 1463.644165 -732.987954 
L 1464.185908 -732.916628 
L 1464.727652 -732.826329 
L 1465.269395 -732.717221 
L 1465.811139 -732.58957 
L 1466.352883 -732.443738 
L 1466.894626 -732.280184 
L 1467.43637 -732.099463 
L 1467.978113 -731.90222 
L 1468.519857 -731.689187 
L 1469.061601 -731.46118 
L 1469.603344 -731.21909 
L 1470.145088 -730.963879 
L 1470.145088 -710.179621 
L 1470.145088 -710.179621 
L 1469.603344 -709.92441 
L 1469.061601 -709.68232 
L 1468.519857 -709.454313 
L 1467.978113 -709.24128 
L 1467.43637 -709.044037 
L 1466.894626 -708.863316 
L 1466.352883 -708.699762 
L 1465.811139 -708.55393 
L 1465.269395 -708.426279 
L 1464.727652 -708.317171 
L 1464.185908 -708.226872 
L 1463.644165 -708.155546 
L 1463.102421 -708.10326 
L 1462.560678 -708.069982 
L 1462.018934 -708.055583 
L 1461.47719 -708.059843 
L 1460.935447 -708.082449 
L 1460.393703 -708.123001 
L 1459.85196 -708.181018 
L 1459.310216 -708.25594 
L 1458.768473 -708.347135 
L 1458.226729 -708.453905 
L 1457.684985 -708.57549 
L 1457.143242 -708.711077 
L 1456.601498 -708.859806 
L 1456.059755 -709.020773 
L 1455.518011 -709.193044 
L 1454.976268 -709.375656 
L 1454.434524 -709.567625 
L 1453.89278 -709.767954 
L 1453.351037 -709.97564 
L 1452.809293 -710.18968 
L 1452.26755 -710.409075 
L 1451.725806 -710.632841 
L 1451.184063 -710.86001 
L 1450.642319 -711.08964 
L 1450.100575 -711.320815 
L 1449.558832 -711.552654 
L 1449.017088 -711.784314 
L 1448.475345 -712.014994 
L 1447.933601 -712.243936 
L 1447.391857 -712.470434 
L 1446.850114 -712.693829 
L 1446.30837 -712.913516 
L 1445.766627 -713.128944 
L 1445.224883 -713.339618 
L 1444.68314 -713.545097 
L 1444.141396 -713.744996 
L 1443.599652 -713.938985 
L 1443.057909 -714.126788 
L 1442.516165 -714.308181 
L 1441.974422 -714.482994 
L 1441.432678 -714.651102 
L 1440.890935 -714.812428 
L 1440.349191 -714.966941 
L 1439.807447 -715.114649 
L 1439.265704 -715.255599 
L 1438.72396 -715.389873 
L 1438.182217 -715.517584 
L 1437.640473 -715.638875 
L 1437.09873 -715.753914 
L 1436.556986 -715.862891 
L 1436.015242 -715.966016 
L 1435.473499 -716.063514 
L 1434.931755 -716.155627 
L 1434.390012 -716.242604 
L 1433.848268 -716.324705 
L 1433.306525 -716.402198 
L 1432.764781 -716.475352 
L 1432.223037 -716.544444 
L 1431.681294 -716.60975 
L 1431.13955 -716.671546 
L 1430.597807 -716.73011 
L 1430.056063 -716.785718 
L 1429.514319 -716.838642 
L 1428.972576 -716.889156 
L 1428.430832 -716.937527 
L 1427.889089 -716.98402 
L 1427.347345 -717.028898 
L 1426.805602 -717.072419 
L 1426.263858 -717.114835 
L 1425.722114 -717.156396 
L 1425.180371 -717.197346 
L 1424.638627 -717.237921 
L 1424.096884 -717.278354 
L 1423.55514 -717.318867 
L 1423.013397 -717.359678 
L 1422.471653 -717.400992 
L 1421.929909 -717.443005 
L 1421.388166 -717.485902 
L 1420.846422 -717.529855 
L 1420.304679 -717.575023 
L 1419.762935 -717.621547 
L 1419.221192 -717.669553 
L 1418.679448 -717.719151 
L 1418.137704 -717.770429 
L 1417.595961 -717.823457 
L 1417.054217 -717.878285 
L 1416.512474 -717.93494 
z
" id="m79c4d19348" style="stroke:#333333;"/>
    </defs>
    <g clip-path="url(#pf845408d17)">
     <use style="fill:#b75e1a;stroke:#333333;" x="0" xlink:href="#m79c4d19348" y="1403.595"/>
    </g>
   </g>
   <g id="patch_86">
    <path clip-path="url(#pf845408d17)" d="M 1244.311546 607.92625 
L 1244.311546 607.92625 
L 1244.311546 607.92625 
L 1244.311546 607.92625 
z
" style="fill:#484566;stroke:#333333;stroke-linejoin:miter;stroke-width:0.5;"/>
   </g>
   <g id="patch_87">
    <path clip-path="url(#pf845408d17)" d="M 1244.311546 607.92625 
L 1244.311546 607.92625 
L 1244.311546 607.92625 
L 1244.311546 607.92625 
z
" style="fill:#b75e1a;stroke:#333333;stroke-linejoin:miter;stroke-width:0.5;"/>
   </g>
   <g id="matplotlib.axis_3">
    <g id="xtick_5">
     <g id="line2d_9">
      <g>
       <use style="stroke:#000000;stroke-width:1.6;" x="1244.311546" xlink:href="#md31c06dd43" y="826.959167"/>
      </g>
     </g>
     <g id="text_11">
      <!-- 0.0 -->
      <g transform="translate(1228.408421 856.856042)scale(0.2 -0.2)">
       <use xlink:href="#DejaVuSans-48"/>
       <use x="63.623047" xlink:href="#DejaVuSans-46"/>
       <use x="95.410156" xlink:href="#DejaVuSans-48"/>
      </g>
     </g>
    </g>
    <g id="xtick_6">
     <g id="line2d_10">
      <g>
       <use style="stroke:#000000;stroke-width:1.6;" x="1311.064435" xlink:href="#md31c06dd43" y="826.959167"/>
      </g>
     </g>
     <g id="text_12">
      <!-- 0.2 -->
      <g transform="translate(1295.16131 856.856042)scale(0.2 -0.2)">
       <use xlink:href="#DejaVuSans-48"/>
       <use x="63.623047" xlink:href="#DejaVuSans-46"/>
       <use x="95.410156" xlink:href="#DejaVuSans-50"/>
      </g>
     </g>
    </g>
    <g id="xtick_7">
     <g id="line2d_11">
      <g>
       <use style="stroke:#000000;stroke-width:1.6;" x="1377.817324" xlink:href="#md31c06dd43" y="826.959167"/>
      </g>
     </g>
     <g id="text_13">
      <!-- 0.4 -->
      <g transform="translate(1361.914199 856.856042)scale(0.2 -0.2)">
       <use xlink:href="#DejaVuSans-48"/>
       <use x="63.623047" xlink:href="#DejaVuSans-46"/>
       <use x="95.410156" xlink:href="#DejaVuSans-52"/>
      </g>
     </g>
    </g>
    <g id="xtick_8">
     <g id="line2d_12">
      <g>
       <use style="stroke:#000000;stroke-width:1.6;" x="1444.570212" xlink:href="#md31c06dd43" y="826.959167"/>
      </g>
     </g>
     <g id="text_14">
      <!-- 0.6 -->
      <g transform="translate(1428.667087 856.856042)scale(0.2 -0.2)">
       <use xlink:href="#DejaVuSans-48"/>
       <use x="63.623047" xlink:href="#DejaVuSans-46"/>
       <use x="95.410156" xlink:href="#DejaVuSans-54"/>
      </g>
     </g>
    </g>
    <g id="text_15">
     <!-- Max JS Divergence within $\epsilon$ -->
     <defs>
      <path d="M 9.8125 72.90625 
L 24.515625 72.90625 
L 43.109375 23.296875 
L 61.8125 72.90625 
L 76.515625 72.90625 
L 76.515625 0 
L 66.890625 0 
L 66.890625 64.015625 
L 48.09375 14.015625 
L 38.1875 14.015625 
L 19.390625 64.015625 
L 19.390625 0 
L 9.8125 0 
z
" id="DejaVuSans-77"/>
      <path d="M 34.28125 27.484375 
Q 23.390625 27.484375 19.1875 25 
Q 14.984375 22.515625 14.984375 16.5 
Q 14.984375 11.71875 18.140625 8.90625 
Q 21.296875 6.109375 26.703125 6.109375 
Q 34.1875 6.109375 38.703125 11.40625 
Q 43.21875 16.703125 43.21875 25.484375 
L 43.21875 27.484375 
z
M 52.203125 31.203125 
L 52.203125 0 
L 43.21875 0 
L 43.21875 8.296875 
Q 40.140625 3.328125 35.546875 0.953125 
Q 30.953125 -1.421875 24.3125 -1.421875 
Q 15.921875 -1.421875 10.953125 3.296875 
Q 6 8.015625 6 15.921875 
Q 6 25.140625 12.171875 29.828125 
Q 18.359375 34.515625 30.609375 34.515625 
L 43.21875 34.515625 
L 43.21875 35.40625 
Q 43.21875 41.609375 39.140625 45 
Q 35.0625 48.390625 27.6875 48.390625 
Q 23 48.390625 18.546875 47.265625 
Q 14.109375 46.140625 10.015625 43.890625 
L 10.015625 52.203125 
Q 14.9375 54.109375 19.578125 55.046875 
Q 24.21875 56 28.609375 56 
Q 40.484375 56 46.34375 49.84375 
Q 52.203125 43.703125 52.203125 31.203125 
z
" id="DejaVuSans-97"/>
      <path d="M 54.890625 54.6875 
L 35.109375 28.078125 
L 55.90625 0 
L 45.3125 0 
L 29.390625 21.484375 
L 13.484375 0 
L 2.875 0 
L 24.125 28.609375 
L 4.6875 54.6875 
L 15.28125 54.6875 
L 29.78125 35.203125 
L 44.28125 54.6875 
z
" id="DejaVuSans-120"/>
      <path d="M 9.8125 72.90625 
L 19.671875 72.90625 
L 19.671875 5.078125 
Q 19.671875 -8.109375 14.671875 -14.0625 
Q 9.671875 -20.015625 -1.421875 -20.015625 
L -5.171875 -20.015625 
L -5.171875 -11.71875 
L -2.09375 -11.71875 
Q 4.4375 -11.71875 7.125 -8.046875 
Q 9.8125 -4.390625 9.8125 5.078125 
z
" id="DejaVuSans-74"/>
      <path d="M 53.515625 70.515625 
L 53.515625 60.890625 
Q 47.90625 63.578125 42.921875 64.890625 
Q 37.9375 66.21875 33.296875 66.21875 
Q 25.25 66.21875 20.875 63.09375 
Q 16.5 59.96875 16.5 54.203125 
Q 16.5 49.359375 19.40625 46.890625 
Q 22.3125 44.4375 30.421875 42.921875 
L 36.375 41.703125 
Q 47.40625 39.59375 52.65625 34.296875 
Q 57.90625 29 57.90625 20.125 
Q 57.90625 9.515625 50.796875 4.046875 
Q 43.703125 -1.421875 29.984375 -1.421875 
Q 24.8125 -1.421875 18.96875 -0.25 
Q 13.140625 0.921875 6.890625 3.21875 
L 6.890625 13.375 
Q 12.890625 10.015625 18.65625 8.296875 
Q 24.421875 6.59375 29.984375 6.59375 
Q 38.421875 6.59375 43.015625 9.90625 
Q 47.609375 13.234375 47.609375 19.390625 
Q 47.609375 24.75 44.3125 27.78125 
Q 41.015625 30.8125 33.5 32.328125 
L 27.484375 33.5 
Q 16.453125 35.6875 11.515625 40.375 
Q 6.59375 45.0625 6.59375 53.421875 
Q 6.59375 63.09375 13.40625 68.65625 
Q 20.21875 74.21875 32.171875 74.21875 
Q 37.3125 74.21875 42.625 73.28125 
Q 47.953125 72.359375 53.515625 70.515625 
z
" id="DejaVuSans-83"/>
      <path d="M 19.671875 64.796875 
L 19.671875 8.109375 
L 31.59375 8.109375 
Q 46.6875 8.109375 53.6875 14.9375 
Q 60.6875 21.78125 60.6875 36.53125 
Q 60.6875 51.171875 53.6875 57.984375 
Q 46.6875 64.796875 31.59375 64.796875 
z
M 9.8125 72.90625 
L 30.078125 72.90625 
Q 51.265625 72.90625 61.171875 64.09375 
Q 71.09375 55.28125 71.09375 36.53125 
Q 71.09375 17.671875 61.125 8.828125 
Q 51.171875 0 30.078125 0 
L 9.8125 0 
z
" id="DejaVuSans-68"/>
      <path d="M 9.421875 54.6875 
L 18.40625 54.6875 
L 18.40625 0 
L 9.421875 0 
z
M 9.421875 75.984375 
L 18.40625 75.984375 
L 18.40625 64.59375 
L 9.421875 64.59375 
z
" id="DejaVuSans-105"/>
      <path d="M 2.984375 54.6875 
L 12.5 54.6875 
L 29.59375 8.796875 
L 46.6875 54.6875 
L 56.203125 54.6875 
L 35.6875 0 
L 23.484375 0 
z
" id="DejaVuSans-118"/>
      <path d="M 56.203125 29.59375 
L 56.203125 25.203125 
L 14.890625 25.203125 
Q 15.484375 15.921875 20.484375 11.0625 
Q 25.484375 6.203125 34.421875 6.203125 
Q 39.59375 6.203125 44.453125 7.46875 
Q 49.3125 8.734375 54.109375 11.28125 
L 54.109375 2.78125 
Q 49.265625 0.734375 44.1875 -0.34375 
Q 39.109375 -1.421875 33.890625 -1.421875 
Q 20.796875 -1.421875 13.15625 6.1875 
Q 5.515625 13.8125 5.515625 26.8125 
Q 5.515625 40.234375 12.765625 48.109375 
Q 20.015625 56 32.328125 56 
Q 43.359375 56 49.78125 48.890625 
Q 56.203125 41.796875 56.203125 29.59375 
z
M 47.21875 32.234375 
Q 47.125 39.59375 43.09375 43.984375 
Q 39.0625 48.390625 32.421875 48.390625 
Q 24.90625 48.390625 20.390625 44.140625 
Q 15.875 39.890625 15.1875 32.171875 
z
" id="DejaVuSans-101"/>
      <path d="M 41.109375 46.296875 
Q 39.59375 47.171875 37.8125 47.578125 
Q 36.03125 48 33.890625 48 
Q 26.265625 48 22.1875 43.046875 
Q 18.109375 38.09375 18.109375 28.8125 
L 18.109375 0 
L 9.078125 0 
L 9.078125 54.6875 
L 18.109375 54.6875 
L 18.109375 46.1875 
Q 20.953125 51.171875 25.484375 53.578125 
Q 30.03125 56 36.53125 56 
Q 37.453125 56 38.578125 55.875 
Q 39.703125 55.765625 41.0625 55.515625 
z
" id="DejaVuSans-114"/>
      <path d="M 45.40625 27.984375 
Q 45.40625 37.75 41.375 43.109375 
Q 37.359375 48.484375 30.078125 48.484375 
Q 22.859375 48.484375 18.828125 43.109375 
Q 14.796875 37.75 14.796875 27.984375 
Q 14.796875 18.265625 18.828125 12.890625 
Q 22.859375 7.515625 30.078125 7.515625 
Q 37.359375 7.515625 41.375 12.890625 
Q 45.40625 18.265625 45.40625 27.984375 
z
M 54.390625 6.78125 
Q 54.390625 -7.171875 48.1875 -13.984375 
Q 42 -20.796875 29.203125 -20.796875 
Q 24.46875 -20.796875 20.265625 -20.09375 
Q 16.0625 -19.390625 12.109375 -17.921875 
L 12.109375 -9.1875 
Q 16.0625 -11.328125 19.921875 -12.34375 
Q 23.78125 -13.375 27.78125 -13.375 
Q 36.625 -13.375 41.015625 -8.765625 
Q 45.40625 -4.15625 45.40625 5.171875 
L 45.40625 9.625 
Q 42.625 4.78125 38.28125 2.390625 
Q 33.9375 0 27.875 0 
Q 17.828125 0 11.671875 7.65625 
Q 5.515625 15.328125 5.515625 27.984375 
Q 5.515625 40.671875 11.671875 48.328125 
Q 17.828125 56 27.875 56 
Q 33.9375 56 38.28125 53.609375 
Q 42.625 51.21875 45.40625 46.390625 
L 45.40625 54.6875 
L 54.390625 54.6875 
z
" id="DejaVuSans-103"/>
      <path d="M 54.890625 33.015625 
L 54.890625 0 
L 45.90625 0 
L 45.90625 32.71875 
Q 45.90625 40.484375 42.875 44.328125 
Q 39.84375 48.1875 33.796875 48.1875 
Q 26.515625 48.1875 22.3125 43.546875 
Q 18.109375 38.921875 18.109375 30.90625 
L 18.109375 0 
L 9.078125 0 
L 9.078125 54.6875 
L 18.109375 54.6875 
L 18.109375 46.1875 
Q 21.34375 51.125 25.703125 53.5625 
Q 30.078125 56 35.796875 56 
Q 45.21875 56 50.046875 50.171875 
Q 54.890625 44.34375 54.890625 33.015625 
z
" id="DejaVuSans-110"/>
      <path d="M 48.78125 52.59375 
L 48.78125 44.1875 
Q 44.96875 46.296875 41.140625 47.34375 
Q 37.3125 48.390625 33.40625 48.390625 
Q 24.65625 48.390625 19.8125 42.84375 
Q 14.984375 37.3125 14.984375 27.296875 
Q 14.984375 17.28125 19.8125 11.734375 
Q 24.65625 6.203125 33.40625 6.203125 
Q 37.3125 6.203125 41.140625 7.25 
Q 44.96875 8.296875 48.78125 10.40625 
L 48.78125 2.09375 
Q 45.015625 0.34375 40.984375 -0.53125 
Q 36.96875 -1.421875 32.421875 -1.421875 
Q 20.0625 -1.421875 12.78125 6.34375 
Q 5.515625 14.109375 5.515625 27.296875 
Q 5.515625 40.671875 12.859375 48.328125 
Q 20.21875 56 33.015625 56 
Q 37.15625 56 41.109375 55.140625 
Q 45.0625 54.296875 48.78125 52.59375 
z
" id="DejaVuSans-99"/>
      <path d="M 4.203125 54.6875 
L 13.1875 54.6875 
L 24.421875 12.015625 
L 35.59375 54.6875 
L 46.1875 54.6875 
L 57.421875 12.015625 
L 68.609375 54.6875 
L 77.59375 54.6875 
L 63.28125 0 
L 52.6875 0 
L 40.921875 44.828125 
L 29.109375 0 
L 18.5 0 
z
" id="DejaVuSans-119"/>
      <path d="M 18.3125 70.21875 
L 18.3125 54.6875 
L 36.8125 54.6875 
L 36.8125 47.703125 
L 18.3125 47.703125 
L 18.3125 18.015625 
Q 18.3125 11.328125 20.140625 9.421875 
Q 21.96875 7.515625 27.59375 7.515625 
L 36.8125 7.515625 
L 36.8125 0 
L 27.59375 0 
Q 17.1875 0 13.234375 3.875 
Q 9.28125 7.765625 9.28125 18.015625 
L 9.28125 47.703125 
L 2.6875 47.703125 
L 2.6875 54.6875 
L 9.28125 54.6875 
L 9.28125 70.21875 
z
" id="DejaVuSans-116"/>
      <path d="M 54.890625 33.015625 
L 54.890625 0 
L 45.90625 0 
L 45.90625 32.71875 
Q 45.90625 40.484375 42.875 44.328125 
Q 39.84375 48.1875 33.796875 48.1875 
Q 26.515625 48.1875 22.3125 43.546875 
Q 18.109375 38.921875 18.109375 30.90625 
L 18.109375 0 
L 9.078125 0 
L 9.078125 75.984375 
L 18.109375 75.984375 
L 18.109375 46.1875 
Q 21.34375 51.125 25.703125 53.5625 
Q 30.078125 56 35.796875 56 
Q 45.21875 56 50.046875 50.171875 
Q 54.890625 44.34375 54.890625 33.015625 
z
" id="DejaVuSans-104"/>
      <path d="M 19.734375 29.5 
Q 14.453125 30.671875 12.15625 33.84375 
Q 10.453125 36.078125 10.453125 39.109375 
Q 10.453125 47.40625 18.359375 52.25 
Q 24.609375 56.0625 34.1875 56.0625 
Q 37.890625 56.0625 41.9375 55.46875 
Q 46 54.890625 50.53125 53.71875 
L 48.96875 45.5625 
Q 44.484375 46.96875 40.71875 47.609375 
Q 36.859375 48.25 33.40625 48.25 
Q 27.59375 48.25 23.78125 46 
Q 19.1875 43.3125 19.1875 39.40625 
Q 19.1875 36.8125 21.578125 35.015625 
Q 24.421875 32.859375 30.078125 32.859375 
L 37.640625 32.859375 
L 36.234375 25.4375 
L 29 25.4375 
Q 22.265625 25.4375 18.3125 22.953125 
Q 12.9375 19.578125 12.9375 14.3125 
Q 12.9375 10.984375 15.828125 8.796875 
Q 19.4375 6.0625 26.8125 6.0625 
Q 31.34375 6.0625 35.6875 6.9375 
Q 40.046875 7.859375 43.84375 9.671875 
L 42.1875 1.3125 
Q 37.546875 -0.046875 33.296875 -0.734375 
Q 29.046875 -1.421875 25.140625 -1.421875 
Q 13.53125 -1.421875 8.0625 3.03125 
Q 3.90625 6.453125 3.90625 12.203125 
Q 3.90625 19.96875 9.375 24.75 
Q 13.421875 28.328125 19.734375 29.5 
z
" id="DejaVuSans-Oblique-949"/>
     </defs>
     <g transform="translate(1217.18499 880.215417)scale(0.2 -0.2)">
      <use transform="translate(0 0.015625)" xlink:href="#DejaVuSans-77"/>
      <use transform="translate(86.279297 0.015625)" xlink:href="#DejaVuSans-97"/>
      <use transform="translate(147.558594 0.015625)" xlink:href="#DejaVuSans-120"/>
      <use transform="translate(206.738281 0.015625)" xlink:href="#DejaVuSans-32"/>
      <use transform="translate(238.525391 0.015625)" xlink:href="#DejaVuSans-74"/>
      <use transform="translate(268.017578 0.015625)" xlink:href="#DejaVuSans-83"/>
      <use transform="translate(331.494141 0.015625)" xlink:href="#DejaVuSans-32"/>
      <use transform="translate(363.28125 0.015625)" xlink:href="#DejaVuSans-68"/>
      <use transform="translate(440.283203 0.015625)" xlink:href="#DejaVuSans-105"/>
      <use transform="translate(468.066406 0.015625)" xlink:href="#DejaVuSans-118"/>
      <use transform="translate(527.246094 0.015625)" xlink:href="#DejaVuSans-101"/>
      <use transform="translate(588.769531 0.015625)" xlink:href="#DejaVuSans-114"/>
      <use transform="translate(629.882812 0.015625)" xlink:href="#DejaVuSans-103"/>
      <use transform="translate(693.359375 0.015625)" xlink:href="#DejaVuSans-101"/>
      <use transform="translate(754.882812 0.015625)" xlink:href="#DejaVuSans-110"/>
      <use transform="translate(818.261719 0.015625)" xlink:href="#DejaVuSans-99"/>
      <use transform="translate(873.242188 0.015625)" xlink:href="#DejaVuSans-101"/>
      <use transform="translate(934.765625 0.015625)" xlink:href="#DejaVuSans-32"/>
      <use transform="translate(966.552734 0.015625)" xlink:href="#DejaVuSans-119"/>
      <use transform="translate(1048.339844 0.015625)" xlink:href="#DejaVuSans-105"/>
      <use transform="translate(1076.123047 0.015625)" xlink:href="#DejaVuSans-116"/>
      <use transform="translate(1115.332031 0.015625)" xlink:href="#DejaVuSans-104"/>
      <use transform="translate(1178.710938 0.015625)" xlink:href="#DejaVuSans-105"/>
      <use transform="translate(1206.494141 0.015625)" xlink:href="#DejaVuSans-110"/>
      <use transform="translate(1269.873047 0.015625)" xlink:href="#DejaVuSans-32"/>
      <use transform="translate(1301.660156 0.015625)" xlink:href="#DejaVuSans-Oblique-949"/>
     </g>
    </g>
   </g>
   <g id="matplotlib.axis_4">
    <g id="ytick_5">
     <g id="line2d_13">
      <g>
       <use style="stroke:#000000;stroke-width:1.6;" x="1227.623324" xlink:href="#m3d5daeb5ac" y="607.92625"/>
      </g>
     </g>
     <g id="text_16">
      <!-- [0.00, -->
      <defs>
       <path d="M 8.59375 75.984375 
L 29.296875 75.984375 
L 29.296875 69 
L 17.578125 69 
L 17.578125 -6.203125 
L 29.296875 -6.203125 
L 29.296875 -13.1875 
L 8.59375 -13.1875 
z
" id="DejaVuSans-91"/>
       <path d="M 11.71875 12.40625 
L 22.015625 12.40625 
L 22.015625 4 
L 14.015625 -11.625 
L 7.71875 -11.625 
L 11.71875 4 
z
" id="DejaVuSans-44"/>
      </defs>
      <g transform="translate(1154.232699 604.326875)scale(0.2 -0.2)">
       <use xlink:href="#DejaVuSans-91"/>
       <use x="39.013672" xlink:href="#DejaVuSans-48"/>
       <use x="102.636719" xlink:href="#DejaVuSans-46"/>
       <use x="134.423828" xlink:href="#DejaVuSans-48"/>
       <use x="198.046875" xlink:href="#DejaVuSans-48"/>
       <use x="261.669922" xlink:href="#DejaVuSans-44"/>
      </g>
      <!-- 0.25) -->
      <defs>
       <path d="M 8.015625 75.875 
L 15.828125 75.875 
Q 23.140625 64.359375 26.78125 53.3125 
Q 30.421875 42.28125 30.421875 31.390625 
Q 30.421875 20.453125 26.78125 9.375 
Q 23.140625 -1.703125 15.828125 -13.1875 
L 8.015625 -13.1875 
Q 14.5 -2 17.703125 9.0625 
Q 20.90625 20.125 20.90625 31.390625 
Q 20.90625 42.671875 17.703125 53.65625 
Q 14.5 64.65625 8.015625 75.875 
z
" id="DejaVuSans-41"/>
      </defs>
      <g transform="translate(1160.588949 626.7225)scale(0.2 -0.2)">
       <use xlink:href="#DejaVuSans-48"/>
       <use x="63.623047" xlink:href="#DejaVuSans-46"/>
       <use x="95.410156" xlink:href="#DejaVuSans-50"/>
       <use x="159.033203" xlink:href="#DejaVuSans-53"/>
       <use x="222.65625" xlink:href="#DejaVuSans-41"/>
      </g>
     </g>
    </g>
    <g id="ytick_6">
     <g id="line2d_14">
      <g>
       <use style="stroke:#000000;stroke-width:1.6;" x="1227.623324" xlink:href="#m3d5daeb5ac" y="670.507083"/>
      </g>
     </g>
     <g id="text_17">
      <!-- [0.25, -->
      <g transform="translate(1154.232699 666.907708)scale(0.2 -0.2)">
       <use xlink:href="#DejaVuSans-91"/>
       <use x="39.013672" xlink:href="#DejaVuSans-48"/>
       <use x="102.636719" xlink:href="#DejaVuSans-46"/>
       <use x="134.423828" xlink:href="#DejaVuSans-50"/>
       <use x="198.046875" xlink:href="#DejaVuSans-53"/>
       <use x="261.669922" xlink:href="#DejaVuSans-44"/>
      </g>
      <!-- 0.50) -->
      <g transform="translate(1160.588949 689.303333)scale(0.2 -0.2)">
       <use xlink:href="#DejaVuSans-48"/>
       <use x="63.623047" xlink:href="#DejaVuSans-46"/>
       <use x="95.410156" xlink:href="#DejaVuSans-53"/>
       <use x="159.033203" xlink:href="#DejaVuSans-48"/>
       <use x="222.65625" xlink:href="#DejaVuSans-41"/>
      </g>
     </g>
    </g>
    <g id="ytick_7">
     <g id="line2d_15">
      <g>
       <use style="stroke:#000000;stroke-width:1.6;" x="1227.623324" xlink:href="#m3d5daeb5ac" y="733.087917"/>
      </g>
     </g>
     <g id="text_18">
      <!-- [0.50, -->
      <g transform="translate(1154.232699 729.488542)scale(0.2 -0.2)">
       <use xlink:href="#DejaVuSans-91"/>
       <use x="39.013672" xlink:href="#DejaVuSans-48"/>
       <use x="102.636719" xlink:href="#DejaVuSans-46"/>
       <use x="134.423828" xlink:href="#DejaVuSans-53"/>
       <use x="198.046875" xlink:href="#DejaVuSans-48"/>
       <use x="261.669922" xlink:href="#DejaVuSans-44"/>
      </g>
      <!-- 0.75) -->
      <defs>
       <path d="M 8.203125 72.90625 
L 55.078125 72.90625 
L 55.078125 68.703125 
L 28.609375 0 
L 18.3125 0 
L 43.21875 64.59375 
L 8.203125 64.59375 
z
" id="DejaVuSans-55"/>
      </defs>
      <g transform="translate(1160.588949 751.884167)scale(0.2 -0.2)">
       <use xlink:href="#DejaVuSans-48"/>
       <use x="63.623047" xlink:href="#DejaVuSans-46"/>
       <use x="95.410156" xlink:href="#DejaVuSans-55"/>
       <use x="159.033203" xlink:href="#DejaVuSans-53"/>
       <use x="222.65625" xlink:href="#DejaVuSans-41"/>
      </g>
     </g>
    </g>
    <g id="ytick_8">
     <g id="line2d_16">
      <g>
       <use style="stroke:#000000;stroke-width:1.6;" x="1227.623324" xlink:href="#m3d5daeb5ac" y="795.66875"/>
      </g>
     </g>
     <g id="text_19">
      <!-- [0.75, -->
      <g transform="translate(1154.232699 792.069375)scale(0.2 -0.2)">
       <use xlink:href="#DejaVuSans-91"/>
       <use x="39.013672" xlink:href="#DejaVuSans-48"/>
       <use x="102.636719" xlink:href="#DejaVuSans-46"/>
       <use x="134.423828" xlink:href="#DejaVuSans-55"/>
       <use x="198.046875" xlink:href="#DejaVuSans-53"/>
       <use x="261.669922" xlink:href="#DejaVuSans-44"/>
      </g>
      <!-- 1.00) -->
      <g transform="translate(1160.588949 814.465)scale(0.2 -0.2)">
       <use xlink:href="#DejaVuSans-49"/>
       <use x="63.623047" xlink:href="#DejaVuSans-46"/>
       <use x="95.410156" xlink:href="#DejaVuSans-48"/>
       <use x="159.033203" xlink:href="#DejaVuSans-48"/>
       <use x="222.65625" xlink:href="#DejaVuSans-41"/>
      </g>
     </g>
    </g>
    <g id="text_20">
     <!-- Max Attention -->
     <defs>
      <path d="M 34.1875 63.1875 
L 20.796875 26.90625 
L 47.609375 26.90625 
z
M 28.609375 72.90625 
L 39.796875 72.90625 
L 67.578125 0 
L 57.328125 0 
L 50.6875 18.703125 
L 17.828125 18.703125 
L 11.1875 0 
L 0.78125 0 
z
" id="DejaVuSans-65"/>
      <path d="M 30.609375 48.390625 
Q 23.390625 48.390625 19.1875 42.75 
Q 14.984375 37.109375 14.984375 27.296875 
Q 14.984375 17.484375 19.15625 11.84375 
Q 23.34375 6.203125 30.609375 6.203125 
Q 37.796875 6.203125 41.984375 11.859375 
Q 46.1875 17.53125 46.1875 27.296875 
Q 46.1875 37.015625 41.984375 42.703125 
Q 37.796875 48.390625 30.609375 48.390625 
z
M 30.609375 56 
Q 42.328125 56 49.015625 48.375 
Q 55.71875 40.765625 55.71875 27.296875 
Q 55.71875 13.875 49.015625 6.21875 
Q 42.328125 -1.421875 30.609375 -1.421875 
Q 18.84375 -1.421875 12.171875 6.21875 
Q 5.515625 13.875 5.515625 27.296875 
Q 5.515625 40.765625 12.171875 48.375 
Q 18.84375 56 30.609375 56 
z
" id="DejaVuSans-111"/>
     </defs>
     <g transform="translate(1146.073324 771.975625)rotate(-90)scale(0.2 -0.2)">
      <use xlink:href="#DejaVuSans-77"/>
      <use x="86.279297" xlink:href="#DejaVuSans-97"/>
      <use x="147.558594" xlink:href="#DejaVuSans-120"/>
      <use x="206.738281" xlink:href="#DejaVuSans-32"/>
      <use x="238.525391" xlink:href="#DejaVuSans-65"/>
      <use x="306.917969" xlink:href="#DejaVuSans-116"/>
      <use x="346.126953" xlink:href="#DejaVuSans-116"/>
      <use x="385.335938" xlink:href="#DejaVuSans-101"/>
      <use x="446.859375" xlink:href="#DejaVuSans-110"/>
      <use x="510.238281" xlink:href="#DejaVuSans-116"/>
      <use x="549.447266" xlink:href="#DejaVuSans-105"/>
      <use x="577.230469" xlink:href="#DejaVuSans-111"/>
      <use x="638.412109" xlink:href="#DejaVuSans-110"/>
     </g>
    </g>
   </g>
   <g id="line2d_17">
    <path clip-path="url(#pf845408d17)" d="M 1431.971083 585.830656 
L 1431.971083 604.989511 
" style="fill:none;stroke:#333333;stroke-dasharray:1.5,1.5;stroke-dashoffset:0;"/>
   </g>
   <g id="line2d_18">
    <path clip-path="url(#pf845408d17)" d="M 1440.775457 583.271404 
L 1440.775457 607.548763 
" style="fill:none;stroke:#333333;stroke-dasharray:3,3;stroke-dashoffset:0;"/>
   </g>
   <g id="line2d_19">
    <path clip-path="url(#pf845408d17)" d="M 1448.893496 586.046008 
L 1448.893496 604.774159 
" style="fill:none;stroke:#333333;stroke-dasharray:1.5,1.5;stroke-dashoffset:0;"/>
   </g>
   <g id="line2d_20">
    <path clip-path="url(#pf845408d17)" d="M 1437.067202 609.834456 
L 1437.067202 631.050377 
" style="fill:none;stroke:#333333;stroke-dasharray:1.5,1.5;stroke-dashoffset:0;"/>
   </g>
   <g id="line2d_21">
    <path clip-path="url(#pf845408d17)" d="M 1445.475523 609.573114 
L 1445.475523 631.311719 
" style="fill:none;stroke:#333333;stroke-dasharray:3,3;stroke-dashoffset:0;"/>
   </g>
   <g id="line2d_22">
    <path clip-path="url(#pf845408d17)" d="M 1457.54497 615.571187 
L 1457.54497 625.313646 
" style="fill:none;stroke:#333333;stroke-dasharray:1.5,1.5;stroke-dashoffset:0;"/>
   </g>
   <g id="line2d_23">
    <path clip-path="url(#pf845408d17)" d="M 1421.606952 652.970144 
L 1421.606952 663.011689 
" style="fill:none;stroke:#333333;stroke-dasharray:1.5,1.5;stroke-dashoffset:0;"/>
   </g>
   <g id="line2d_24">
    <path clip-path="url(#pf845408d17)" d="M 1433.40336 652.817918 
L 1433.40336 663.163915 
" style="fill:none;stroke:#333333;stroke-dasharray:3,3;stroke-dashoffset:0;"/>
   </g>
   <g id="line2d_25">
    <path clip-path="url(#pf845408d17)" d="M 1445.199768 652.970144 
L 1445.199768 663.011689 
" style="fill:none;stroke:#333333;stroke-dasharray:1.5,1.5;stroke-dashoffset:0;"/>
   </g>
   <g id="line2d_26">
    <path clip-path="url(#pf845408d17)" d="M 1448.430559 674.552061 
L 1448.430559 691.494439 
" style="fill:none;stroke:#333333;stroke-dasharray:1.5,1.5;stroke-dashoffset:0;"/>
   </g>
   <g id="line2d_27">
    <path clip-path="url(#pf845408d17)" d="M 1457.270553 671.281184 
L 1457.270553 694.765316 
" style="fill:none;stroke:#333333;stroke-dasharray:3,3;stroke-dashoffset:0;"/>
   </g>
   <g id="line2d_28">
    <path clip-path="url(#pf845408d17)" d="M 1466.197836 671.269982 
L 1466.197836 694.776518 
" style="fill:none;stroke:#333333;stroke-dasharray:1.5,1.5;stroke-dashoffset:0;"/>
   </g>
   <g id="patch_88">
    <path d="M 1227.623324 826.959167 
L 1227.623324 576.635833 
" style="fill:none;stroke:#000000;stroke-linecap:square;stroke-linejoin:miter;stroke-width:0.8;"/>
   </g>
   <g id="patch_89">
    <path d="M 1227.623324 826.959167 
L 1477.946657 826.959167 
" style="fill:none;stroke:#000000;stroke-linecap:square;stroke-linejoin:miter;stroke-width:0.8;"/>
   </g>
  </g>
 </g>
 <defs>
  <clipPath id="p688a0ceb29">
   <rect height="250.323333" width="250.323333" x="860.40999" y="576.635833"/>
  </clipPath>
  <clipPath id="pf845408d17">
   <rect height="250.323333" width="250.323333" x="1227.623324" y="576.635833"/>
  </clipPath>
 </defs>
</svg>
